<svg xmlns="http://www.w3.org/2000/svg" xml:space="preserve" viewBox="0 0 164.336 37.702"><path d="M0 0a2.238 2.238 0 0 1-2.232 2.232h-17.264A2.238 2.238 0 0 1-21.728 0c0-1.265 1.004-2.269 2.232-2.269h6.363v-21.469a2.255 2.255 0 0 1 2.269-2.269c1.228 0 2.233 1.005 2.233 2.269v21.469h6.399C-1.004-2.269 0-1.265 0 0" style="fill-rule:nonzero;stroke:none" transform="matrix(1.33333 0 0 -1.33333 28.97 2.976)"/><path d="M0 0c-2.666 0-4.867 2.125-4.867 4.79S-2.666 9.618 0 9.618c2.626 0 4.828-2.163 4.828-4.828C4.828 2.125 2.626 0 0 0m7.957 14.292c-1.275 0-2.047-1.004-2.047-2.202v-.193C4.249 13.249 2.317 14.138 0 14.138c-5.176 0-9.348-4.211-9.348-9.348 0-5.138 4.172-9.31 9.348-9.31 2.317 0 4.249.851 5.91 2.279v-.463c0-1.197.772-2.202 2.047-2.202 1.274 0 2.241 1.005 2.241 2.202V12.09c0 1.198-.967 2.202-2.241 2.202" style="fill-rule:nonzero;stroke:none" transform="matrix(1.33333 0 0 -1.33333 33.866 30.863)"/><path d="M0 0c-1.274.579-2.548.579-3.552.618-.618 0-1.197 0-1.584.115-.308.117-.656.619-.695.812-.154 1.661 2.008 1.738 3.167 1.544.695-.116 1.081-.386 1.622-.772a2.357 2.357 0 0 1 2.973.386c.85.927.773 2.394-.154 3.244-.966.888-2.124 1.429-3.669 1.699-2.046.348-4.866.078-6.797-1.699-.888-.85-1.931-2.356-1.737-4.789.154-2.008 1.776-4.094 3.784-4.749 1.081-.387 2.124-.425 3.051-.425.695 0 1.313 0 1.66-.193.387-.155.85-.541.85-1.082 0-.425-.231-.85-.617-1.081-1.468-.965-4.055-.077-4.751.58-.926.849-2.394.81-3.243-.155-.889-.928-.811-2.395.115-3.244 1.274-1.197 3.746-2.202 6.218-2.202 1.467 0 2.896.31 4.209 1.16C2.51-9.114 3.515-7.26 3.515-5.291 3.515-3.051 2.124-.965 0 0" style="fill-rule:nonzero;stroke:none" transform="matrix(1.33333 0 0 -1.33333 64.283 22.462)"/><path d="M0 0c-1.302 0-2.345-1.005-2.345-2.27v-11.912c0-1.265 1.043-2.307 2.345-2.307 1.227 0 2.27 1.042 2.27 2.307V-2.27A2.28 2.28 0 0 1 0 0" style="fill-rule:nonzero;stroke:none" transform="matrix(1.33333 0 0 -1.33333 93.889 15.37)"/><path d="M0 0c.918 1.415 2.449 2.295 4.209 2.295 1.722 0 3.137-.842 3.902-2.295zm5.893 6.772a8.43 8.43 0 0 1-1.684.153c-5.318 0-9.565-4.362-9.565-9.603 0-5.319 4.247-9.604 9.565-9.604 2.181 0 5.127.688 7.231 2.716.918.88.957 2.373.038 3.253-.88.918-2.333.918-3.252.038-.995-.957-2.793-1.454-4.017-1.454-2.373 0-4.324 1.683-4.86 3.864h11.785c.918 0 1.569.651 1.875 1.378.153.382.306.765.306 1.11.077 1.261-.612 2.678-1.224 3.749-1.378 2.295-3.597 3.902-6.198 4.4" style="fill-rule:nonzero;stroke:none" transform="matrix(1.33333 0 0 -1.33333 107.111 21.326)"/><path d="M0 0c-1.273.579-2.547.579-3.551.618-.618 0-1.197 0-1.582.115-.309.116-.657.618-.696.811-.154 1.66 2.008 1.737 3.166 1.544.695-.116 1.08-.386 1.621-.772a2.354 2.354 0 0 1 2.972.386c.849.926.772 2.393-.154 3.243-.965.888-2.123 1.428-3.667 1.698-2.046.347-4.864.078-6.794-1.698-.888-.85-1.93-2.355-1.737-4.787.154-2.007 1.776-4.092 3.783-4.748 1.08-.386 2.123-.424 3.049-.424.695 0 1.313 0 1.66-.194.387-.154.85-.54.85-1.08 0-.425-.232-.85-.618-1.082-1.467-.964-4.053-.076-4.748.58-.927.85-2.393.81-3.242-.155-.888-.926-.812-2.393.115-3.242 1.274-1.197 3.744-2.201 6.215-2.201 1.467 0 2.895.31 4.207 1.159 1.66 1.119 2.664 2.972 2.664 4.941C3.513-3.049 2.123-.965 0 0" style="fill-rule:nonzero;stroke:none" transform="matrix(1.33333 0 0 -1.33333 141.353 22.469)"/><path d="M0 0a1.684 1.684 0 0 1-2.071-1.179 3.03 3.03 0 0 0-1.068-1.589 3 3 0 0 0-1.846-.629 3.03 3.03 0 0 0-2.916 2.219 1.685 1.685 0 0 1-3.25-.892A6.39 6.39 0 0 1-9-5.338l.08-.072.026-.024a6.37 6.37 0 0 1 3.909-1.334 6.394 6.394 0 0 1 6.164 4.697A1.686 1.686 0 0 1 0 0" style="fill-rule:nonzero;stroke:none" transform="matrix(1.33333 0 0 -1.33333 100.067 3.645)"/><path d="M0 0v2.456h1.228l.058.005h.871a2.312 2.312 0 0 1 2.304 2.306 2.311 2.311 0 0 1-2.304 2.304H0v.93h-.003v.007L0 8.04v4.35a2.25 2.25 0 0 1-2.244 2.243 2.25 2.25 0 0 1-2.244-2.243V7.071h-2.47a2.311 2.311 0 0 1-2.305-2.304 2.312 2.312 0 0 1 2.305-2.306h.835l.059-.005h1.576v.188l.023-.227v-8.104c0-1.154.521-2.493 1.266-3.349.855-.967 2.046-1.488 3.274-1.674.229-.025.444-.032.661-.035l.03-.003h1.457a2.245 2.245 0 0 1 2.238 2.239A2.245 2.245 0 0 1 2.223-6.27H.766l-.097-.01c-.156.01-.305.043-.409.146-.26.223-.185.67-.26.967v3.934z" style="fill-rule:nonzero;stroke:none" transform="matrix(1.33333 0 0 -1.33333 81.32 23.074)"/><path d="M0 0v2.456H1.229l.056.005h.871a2.312 2.312 0 0 1 2.305 2.306 2.311 2.311 0 0 1-2.305 2.304H0v.93h-.003v.007L0 8.04v4.35a2.25 2.25 0 0 1-2.244 2.243 2.25 2.25 0 0 1-2.244-2.243V7.071h-2.47a2.311 2.311 0 0 1-2.305-2.304 2.312 2.312 0 0 1 2.305-2.306h.835l.059-.005h1.576v.188l.023-.227v-8.104c0-1.154.521-2.493 1.266-3.349.855-.967 2.046-1.488 3.273-1.674.23-.025.445-.032.662-.035l.03-.003h1.456a2.246 2.246 0 0 1 2.239 2.239A2.245 2.245 0 0 1 2.222-6.27H.766l-.097-.01c-.156.01-.306.043-.408.146-.261.223-.187.67-.261.967v3.934z" style="fill-rule:nonzero;stroke:none" transform="matrix(1.33333 0 0 -1.33333 158.388 23.074)"/></svg>