<svg xmlns="http://www.w3.org/2000/svg" data-name="Layer 1" viewBox="0 0 48.68 48.68"><rect width="48.68" height="48.68" rx="11.88" style="fill:#ff7412"/><path d="M24.78 9.14c4.7 0 5.25 0 7.11.11a9.83 9.83 0 0 1 3.26.6 5.88 5.88 0 0 1 3.34 3.34 9.57 9.57 0 0 1 .6 3.26c.09 1.86.11 2.41.11 7.11s0 5.25-.11 7.1a9.58 9.58 0 0 1-.6 3.27 5.83 5.83 0 0 1-3.34 3.33 9.75 9.75 0 0 1-3.26.61c-1.86.08-2.41.1-7.11.1s-5.25 0-7.1-.1a9.77 9.77 0 0 1-3.27-.61 5.77 5.77 0 0 1-3.33-3.33 9.77 9.77 0 0 1-.61-3.31c-.08-1.85-.1-2.41-.1-7.1 0-4.69 0-5.25.1-7.11a9.75 9.75 0 0 1 .61-3.26 5.83 5.83 0 0 1 3.33-3.34 9.84 9.84 0 0 1 3.27-.6c1.85-.09 2.41-.11 7.1-.11m0-3.16c-4.77 0-5.37 0-7.25.1a13 13 0 0 0-4.26.82 8.61 8.61 0 0 0-3.12 2 8.79 8.79 0 0 0-2 3.11 12.94 12.94 0 0 0-.81 4.27c-.09 1.87-.11 2.47-.11 7.25 0 4.78 0 5.37.11 7.25A12.82 12.82 0 0 0 8.15 35a9 9 0 0 0 5.15 5.15 12.82 12.82 0 0 0 4.26.81c1.88.09 2.48.11 7.25.11s5.38 0 7.25-.11a12.94 12.94 0 0 0 4.27-.81 8.71 8.71 0 0 0 3.11-2 8.61 8.61 0 0 0 2-3.12 12.79 12.79 0 0 0 .82-4.26c.08-1.88.1-2.48.1-7.25s0-5.38-.1-7.25a12.91 12.91 0 0 0-.82-4.27 9 9 0 0 0-5.14-5.14 13.17 13.17 0 0 0-4.27-.82c-1.87-.04-2.47-.06-7.25-.06zm0 8.55a9 9 0 1 0 9 9 9 9 0 0 0-9-8.96zm0 14.89a5.86 5.86 0 1 1 5.86-5.86 5.87 5.87 0 0 1-5.86 5.9zm11.5-15.25a2.11 2.11 0 1 1-2.11-2.11 2.11 2.11 0 0 1 2.11 2.15z" style="fill:#fff"/></svg>