<svg xmlns="http://www.w3.org/2000/svg" viewBox="0 0 500 500"><defs><style>.cls-1{fill:#fff;}.cls-2{fill:#fe4c00;}.cls-3{fill:#ffd617;}</style></defs><title>food</title><g id="Layer_1" data-name="Layer 1"><path class="cls-1" d="M298,71.42a19.21,19.21,0,0,1,4.28,3.24c2.87-4.28,5.9-8.43,9-12.4,3.79-4.83,7.69-9.39,11.55-13.65q-3.49-1.28-7-2.43a219.17,219.17,0,0,0-42.22-9.25A58,58,0,0,1,287,67.07,50.4,50.4,0,0,1,298,71.42Z"/><path class="cls-1" d="M439.29,147.73a167.25,167.25,0,0,1-1.83,16.73,92.6,92.6,0,0,1-8.3,27A60.71,60.71,0,0,1,422,202.52,182.45,182.45,0,0,1,211.88,430.86a61.9,61.9,0,0,1-9.7,5.6,62.6,62.6,0,0,1-66.06-8.6L139.3,424l-3.18,3.85-19.79-16.35a62.45,62.45,0,0,1-22.71-48.26v-.08a50.27,50.27,0,0,1-8-3.05,60.87,60.87,0,0,1-13.83-9.3,66.3,66.3,0,0,1-11.54-13.17,5,5,0,0,1-.76-2.64l-.06-38.35a4.77,4.77,0,0,1,.19-1.31,26.15,26.15,0,0,1,.28-3.42,15.43,15.43,0,0,1,1-3.67,8.69,8.69,0,0,1,1.5-2.41,15.28,15.28,0,0,0,1-1.3c.48-.68,1.07-1.58,1.73-2.63.23-.36.47-.74.71-1.14a181.85,181.85,0,0,1,6.58-85.61q2.19-6.75,4.86-13.2L62.87,138.36A218.59,218.59,0,1,0,456.24,321.51h0a217.92,217.92,0,0,0-16.95-173.78Z"/><path class="cls-1" d="M162.39,71.67a35.77,35.77,0,0,1,4.92-2.42c1.32-.53,2.73-1,4.22-1.5a57.84,57.84,0,0,1,6.52-20.63,219,219,0,0,0-38.69,17.51A57.85,57.85,0,0,1,162.39,71.67Z"/><path class="cls-2" d="M477,254A228.86,228.86,0,0,0,439.71,129.1c-.44-11.68-3.8-23.17-8.78-34.06-8-17.53-20.23-33.63-32-46.77a309.32,309.32,0,0,0-29.43-28.61h0a12.74,12.74,0,0,0-16.45-.06c-5.12,4.28-13.51,11.63-22.78,21.11q-5.62-2.16-11.41-4a228.49,228.49,0,0,0-58-10.87,58.19,58.19,0,0,0-72.71,7.75v0a229.94,229.94,0,0,0-71,33.38,58.35,58.35,0,0,0-35.5,30.74A228.59,228.59,0,1,0,465.75,324.6L461,323.06l4.76,1.54A228.37,228.37,0,0,0,477,254ZM122.7,403.8a52.23,52.23,0,0,1-14.26-18.49,52.89,52.89,0,0,1-4.82-22.06,52.33,52.33,0,0,1,12-33.45l2.81-3.39.13.11a51,51,0,0,0-10.09,30.74,57.61,57.61,0,0,0,21.26,44.19L143,412.38a58.24,58.24,0,0,0,37.05,13.53,53.75,53.75,0,0,0,22-4.66,50.39,50.39,0,0,0,16.61-12l.61.5-2.81,3.4A52.17,52.17,0,0,1,198,427.37a52.58,52.58,0,0,1-55.51-7.22h0ZM263.4,40.62a48,48,0,0,1,14.12,34.09c0,.17,0,.35,0,.52l-5.31-2.66a5,5,0,0,0-4.47,9l8.51,4.25c-.08.34-.15.69-.24,1-5.43.82-11.7,1.48-18.43,2-7.06.49-14.64.79-22.3.88a5,5,0,0,0-1.59-2.72l-10.31-9a5,5,0,0,0-6.57,7.54l4.73,4.12A303.88,303.88,0,0,1,183,86.74l-.41-.07a49,49,0,0,1-1.5-12,48.21,48.21,0,0,1,82.3-34.09Zm52.39,5.56q3.56,1.16,7,2.43c-3.86,4.26-7.76,8.82-11.55,13.65-3.11,4-6.14,8.12-9,12.4A19.21,19.21,0,0,0,298,71.42a50.4,50.4,0,0,0-11-4.35,58,58,0,0,0-13.43-30.14A219.17,219.17,0,0,1,315.79,46.18Zm43.68-18.9a2.73,2.73,0,0,1,3.58,0h0c1,.87,2.19,1.87,3.47,3,0,.13,0,.26,0,.4h0c0,.11.3,3.63.3,9.45a196.08,196.08,0,0,1-2.13,28.61c-2.57,17.35-8.14,37.84-19.52,55.37A91.27,91.27,0,0,1,326.78,145a32.56,32.56,0,0,0-4.28-4.8,31.81,31.81,0,0,0-21.5-8.36h-9.27s0-.09,0-.13c0-10.67,3-21.7,8-32.46,7.49-16.16,19.32-31.63,30.84-44.28A300.13,300.13,0,0,1,359.47,27.28ZM421.84,99.2c4.92,10.76,7.93,21.78,7.92,32.46,0,13.6-.9,25.75-3.1,36.2a75.06,75.06,0,0,1-7.2,20.56A47.77,47.77,0,0,1,410.8,200a49.53,49.53,0,0,1-19.7,11.53c-8.19,2.68-18.21,4.14-30.35,4.14a108.1,108.1,0,0,1-15.16-1L358.13,190a14.49,14.49,0,0,0,1.28-.94,9.87,9.87,0,0,0,2.16-2.5,7.42,7.42,0,0,0,1.07-3.8,7.22,7.22,0,0,0-.41-2.39A8.73,8.73,0,0,0,360,177a14.26,14.26,0,0,0-2.67-2,32.6,32.6,0,0,0-6.26-2.73,111.64,111.64,0,0,0-15.73-3.71l-2-.32-.65-7.39a32,32,0,0,0-1.35-6.74,92.67,92.67,0,0,0,7.34-6.4,107.51,107.51,0,0,0,20.54-27.95c7.77-15,12.13-30.77,14.58-44.88a205.82,205.82,0,0,0,3-34.72v-.38a269.39,269.39,0,0,1,25.95,28.69A160.09,160.09,0,0,1,421.84,99.2ZM326.58,230c-.06.12-.11.25-.16.37l-.12.06a20.11,20.11,0,0,1-3.45,1.22,92.45,92.45,0,0,1-11.23,2.09c-6.91.92-15.5,1.63-24.89,2.1s-19.6.71-29.8.71c-2.58,0-5.16,0-7.72,0q-2.44-1.4-4.87-2.73c-5.28-2.9-10.52-5.58-15.48-7.89A132.1,132.1,0,0,0,215,220.24L213.44,225l1.56-4.75a17.14,17.14,0,0,0-14.37,1.67c-.52.32-1.08.67-1.65,1-.57-.27-1.15-.54-1.76-.81a167.7,167.7,0,0,0-17.12-6.27l-10.84-21.33q4.88,1,11.08,1.81c9.7,1.26,21.67,2.2,34.82,2.82s27.45.94,41.77.94c24.79,0,49.56-.93,68.32-2.82,4.69-.47,9-1,12.88-1.6q3.48-.54,6.46-1.15ZM333,279c-1.6,1-3.62,2-5.78,3-1.62.79-3.31,1.61-5,2.5a35.74,35.74,0,0,0-7.2,4.78,16.33,16.33,0,0,0-2.95,3.46,11.91,11.91,0,0,0-1.72,4.66,19.75,19.75,0,0,1-.91,3.71c-.61,1.73-1.47,3.47-2.47,5.63a47.89,47.89,0,0,0-2.93,7.86,45.78,45.78,0,0,0-1.14,6.87c-.18,1.69-.33,3.32-.51,4.83a25,25,0,0,1-1.13,5.54,5.76,5.76,0,0,1-.73,1.41,1.8,1.8,0,0,1-.6.56,5,5,0,0,0,5,8.64,12.15,12.15,0,0,0,3.27-2.82,16.73,16.73,0,0,0,3-6,53.62,53.62,0,0,0,1.45-9,50.12,50.12,0,0,1,1.07-7.37A47.24,47.24,0,0,1,317,309c.64-1.37,1.3-2.84,1.89-4.51a30,30,0,0,0,1.37-5.6,1.91,1.91,0,0,1,.25-.68,7.69,7.69,0,0,1,2.08-2.14,44.68,44.68,0,0,1,7-4c2.78-1.38,5.78-2.76,8.55-4.41,3.64-2.19,6.66-3.88,8.77-5l1.53-.82a118,118,0,0,1,10.13,8.14,31.87,31.87,0,0,1,2.82,2.93c-.59.88-1.36,2-2.29,3.27-2,2.71-4.59,6.19-7.54,10.15-4.44,5.93-9.62,13-14.55,20.26a184.14,184.14,0,0,0-13.09,22.1,66.43,66.43,0,0,1-17.09,22.05,44.08,44.08,0,0,1-8.42,5.6,19.61,19.61,0,0,1-3.23,1.28,7.27,7.27,0,0,1-1.9.35h-.15a23.6,23.6,0,0,1-2.32-1c-1.89-.93-4.48-2.34-7.68-4.1-6.75-3.73-16.23-9-28.32-15.07,0,0,.06,0,.08-.07a26,26,0,0,0,6.87-11.49,47.58,47.58,0,0,1,8.31-14.74c3.48-4.41,7.3-8.24,10.37-11.56a33.69,33.69,0,0,0,4.8-7.1,81,81,0,0,0,4.58-10.89c1.05-3.1,1.64-5.28,1.66-5.36a5,5,0,0,0-9.66-2.58h0c0,.12-1,3.71-2.64,7.91a60.17,60.17,0,0,1-2.85,6.37,23.79,23.79,0,0,1-3.24,4.87c-2.86,3.1-6.95,7.18-10.87,12.15a57.43,57.43,0,0,0-10,17.88,19.07,19.07,0,0,1-2.77,5.67,8.23,8.23,0,0,1-3.51,2.92,4.26,4.26,0,0,1-.9.28H245v0a4.57,4.57,0,0,0-1.39.26q-2.69-1.28-5.5-2.55a38.87,38.87,0,0,1-9.59-6.05,27.81,27.81,0,0,1-7.62-10.52,28.65,28.65,0,0,1-2.06-10.77,27.77,27.77,0,0,1,1.4-8.91,12.9,12.9,0,0,1,1.13-2.53,2.89,2.89,0,0,1,.27-.39c.4-.25.79-.52,1.21-.82q1.45-1.08,3.38-2.71a196.39,196.39,0,0,0,17.07-16.73c3.09-3.41,6.12-7,8.8-10.56a69.87,69.87,0,0,0,6.74-10.57,33,33,0,0,1,4.32-6.42,60.7,60.7,0,0,1,9-8.51,92.63,92.63,0,0,1,8.6-6,7.14,7.14,0,0,1,6-.69h0c1.83.6,3.83,1.36,5.95,2.22-1.66,1.13-3.5,2.45-5.41,3.92a82.2,82.2,0,0,0-9.56,8.47,43.5,43.5,0,0,0-4.09,5,25.81,25.81,0,0,0-3,5.57,86.35,86.35,0,0,1-6.87,14.52,43.5,43.5,0,0,1-4.43,6.13,23.65,23.65,0,0,1-4.58,4.12,5,5,0,1,0,5.55,8.32,33.33,33.33,0,0,0,6.54-5.84,53.3,53.3,0,0,0,5.46-7.52A96.73,96.73,0,0,0,280,276.19a16.33,16.33,0,0,1,1.85-3.37,41.93,41.93,0,0,1,6.11-6.71A99.55,99.55,0,0,1,299,257.53c1.62-1.09,3-2,4-2.57l.5-.31q2.94,1.44,6,3a344.08,344.08,0,0,1,29.82,17.72C337.49,276.41,335.37,277.63,333,279ZM236.51,380.86a39.18,39.18,0,0,1-13.32-8.24,54.13,54.13,0,0,1-11.54-16.05,59.54,59.54,0,0,1-2.49-6c-.12-.34-.22-.63-.3-.9l3.45-11.21a37.71,37.71,0,0,0,1.78,3.37,38.55,38.55,0,0,0,7.82,9.3,48.87,48.87,0,0,0,12,7.63c15.22,6.93,27.42,13.4,36.62,18.44,4.61,2.52,8.47,4.68,11.62,6.39,1.58.85,3,1.59,4.23,2.21a34,34,0,0,0,3.44,1.51,10.28,10.28,0,0,0,3.46.57,17.25,17.25,0,0,0,4.69-.74,36.35,36.35,0,0,0,8.64-4,66.52,66.52,0,0,0,13.93-11.8A77.36,77.36,0,0,0,333,353a155.42,155.42,0,0,1,9.73-16.85c2.77-4.27,5.73-8.54,8.65-12.61-1.88,5.28-3.87,10.77-5.89,16.16-3,8.05-6.09,15.88-8.88,22.37-1.4,3.25-2.73,6.16-3.93,8.58a50.44,50.44,0,0,1-3.09,5.53c-4.33,6.35-10,11.32-16.65,15.72s-14.19,8.2-22,12.19a10.29,10.29,0,0,1-4.81,1.14,16.24,16.24,0,0,1-4.14-.59,42.25,42.25,0,0,1-9-3.82c-5-2.67-10.52-6.33-16.58-10A114,114,0,0,0,236.51,380.86Zm-29.16,6-72-59.47,2.07-6.71a34.13,34.13,0,0,0,1.78,3.37,39,39,0,0,0,7.81,9.31,49.4,49.4,0,0,0,12,7.62c15.22,6.93,27.41,13.4,36.62,18.44,3.26,1.78,6.13,3.38,8.65,4.77.49.9,1,1.81,1.58,2.74a60.79,60.79,0,0,0,10.46,13,51.5,51.5,0,0,0,4.61,3.8l-4.93,2.53a10.3,10.3,0,0,1-4.82,1.14A16.29,16.29,0,0,1,207.35,386.88ZM212.63,401A40.37,40.37,0,0,1,198,412.13,42.41,42.41,0,0,1,189.1,415L180,374ZM90,351.12a54.28,54.28,0,0,1-15.77-11.91,61.64,61.64,0,0,1-4.15-5l-.55-.77,0-11.74a37,37,0,0,0,7.2,6.17,45.6,45.6,0,0,0,19.46,6.83q2.07.25,4.08.54A62.06,62.06,0,0,0,94.47,353,42.45,42.45,0,0,1,90,351.12Zm26-132.59a81.84,81.84,0,0,0-6.62,10.92,44.11,44.11,0,0,0-2.43,6,25.4,25.4,0,0,0-1.22,6.21,86.93,86.93,0,0,1-2.26,15.91,44.42,44.42,0,0,1-2.42,7.16A23.71,23.71,0,0,1,97.88,270a5,5,0,1,0,7.76,6.31,33.79,33.79,0,0,0,4.53-7.52,53.82,53.82,0,0,0,3-8.8,95.81,95.81,0,0,0,2.55-17.77,16,16,0,0,1,.77-3.76,41.8,41.8,0,0,1,3.85-8.22,99,99,0,0,1,8-11.47c1.22-1.53,2.29-2.78,3-3.64l.39-.45c2.33.37,4.72.78,7.14,1.24,11,2,22.84,4.94,33.18,8-1.41,1.5-3.07,3.29-4.91,5.34-1.18,1.32-2.71,2.79-4.36,4.34a83.73,83.73,0,0,0-7.52,7.64,23.4,23.4,0,0,0-3,4.65,13.43,13.43,0,0,0-1.41,5.82,11.39,11.39,0,0,0,.15,1.83h0a19.38,19.38,0,0,1,.24,3,41.81,41.81,0,0,1-.56,5.81,55.29,55.29,0,0,0-.65,7.82c0,.53,0,1.08,0,1.63a35.89,35.89,0,0,0,.51,4.57c-2.05,1.94-4,3.66-5.52,5-.94.8-1.77,1.48-2.44,2a14.08,14.08,0,0,1-1.32.95,8.7,8.7,0,0,0-2,1.69,15.52,15.52,0,0,0-2.22,3.43,25.69,25.69,0,0,0-1.29,3.2,4.47,4.47,0,0,0-.52,1.13L127,320.52l-8-6.62a48.25,48.25,0,0,1,3.56-16c2-5.25,4.53-10,6.48-14.12a30.49,30.49,0,0,0,2.06-6.13,63,63,0,0,0,1.34-9.38c.23-3,.28-5.59.28-7.43,0-1.59,0-2.57,0-2.63a5,5,0,0,0-10,.4h0c0,.05,0,.89,0,2.23a86.22,86.22,0,0,1-.5,9.34,45.82,45.82,0,0,1-.87,5.22,20.56,20.56,0,0,1-1.33,4.08c-1.82,3.81-4.51,8.92-6.8,14.83a57.74,57.74,0,0,0-4.24,20,19,19,0,0,1-1,6.24,8.42,8.42,0,0,1-2.49,3.83,4.17,4.17,0,0,1-.78.52l-.08,0h0v0a4.94,4.94,0,0,0-1.25.65c-2-.27-4-.54-6-.8a36.72,36.72,0,0,1-13.94-4.46,27.54,27.54,0,0,1-6.68-5.43,28.14,28.14,0,0,1-5.62-9.72,28.61,28.61,0,0,1-1.57-9.06,14.53,14.53,0,0,1,.3-3.25,5.81,5.81,0,0,1,.18-.61c.31-.36.6-.73.91-1.15.73-1,1.53-2.17,2.43-3.59a197.35,197.35,0,0,0,11.36-21c1.94-4.17,3.77-8.49,5.28-12.69a71.29,71.29,0,0,0,3.31-12.1c.76-4.78,3.15-10.06,6-14.77a88.9,88.9,0,0,1,8.69-11.68,7.12,7.12,0,0,1,5.4-2.44h.13c1.93,0,4.07.16,6.34.36C118.76,214.76,117.38,216.57,116,218.53ZM217.82,232c-1.66,1.14-3.5,2.45-5.41,3.92a81.39,81.39,0,0,0-9.56,8.47,43.5,43.5,0,0,0-4.09,5,26,26,0,0,0-3,5.57,86.47,86.47,0,0,1-6.87,14.53,44,44,0,0,1-4.43,6.12,23.65,23.65,0,0,1-4.58,4.12,5,5,0,1,0,5.54,8.32,33.39,33.39,0,0,0,6.55-5.84,53.52,53.52,0,0,0,5.46-7.52,96.73,96.73,0,0,0,7.69-16.22A15.86,15.86,0,0,1,207,255a41.93,41.93,0,0,1,6.11-6.71,99.5,99.5,0,0,1,11.07-8.58c1.62-1.09,3-2,4-2.57l.51-.31c2,1,4,2,6,3,7.77,4.08,15.9,8.82,23.41,13.57-.87.9-1.72,1.83-2.54,2.81a42.48,42.48,0,0,0-5.62,8.4,68.51,68.51,0,0,1-7.45,11.18A181.1,181.1,0,0,1,226.72,293c-2.53,2.46-4.88,4.59-6.77,6.2-.94.81-1.77,1.49-2.43,2a15.11,15.11,0,0,1-1.33.95,8.2,8.2,0,0,0-2,1.69,14.84,14.84,0,0,0-2.22,3.43,26.15,26.15,0,0,0-1.3,3.19,4.7,4.7,0,0,0-.52,1.14l-11.3,36.65a5.34,5.34,0,0,0-.22,1.44c-5.29-2.88-11.51-6.19-18.66-9.76l.08-.07a25.89,25.89,0,0,0,6.87-11.49,47.71,47.71,0,0,1,8.3-14.73c3.49-4.42,7.3-8.25,10.38-11.57a33.69,33.69,0,0,0,4.8-7.1A79,79,0,0,0,215,284.05c1.06-3.1,1.64-5.28,1.67-5.36a5,5,0,0,0-9.67-2.58h0c0,.12-1,3.71-2.63,7.91a59.28,59.28,0,0,1-2.85,6.37,23.79,23.79,0,0,1-3.24,4.87c-2.86,3.1-6.95,7.18-10.88,12.15a57.61,57.61,0,0,0-10,17.88,19.19,19.19,0,0,1-2.77,5.67,8.36,8.36,0,0,1-3.51,2.93,4.74,4.74,0,0,1-.91.27h-.11v0a4.89,4.89,0,0,0-1.38.26c-1.8-.85-3.62-1.7-5.5-2.55a39.13,39.13,0,0,1-9.6-6A27.88,27.88,0,0,1,146,315.33,28.58,28.58,0,0,1,144,304.56a27.82,27.82,0,0,1,1.4-8.91,13.19,13.19,0,0,1,1.13-2.53,2.89,2.89,0,0,1,.27-.39c.4-.25.79-.51,1.2-.82,1-.71,2.1-1.62,3.39-2.71a197.82,197.82,0,0,0,17.07-16.73c3.09-3.41,6.11-7,8.79-10.56A70.76,70.76,0,0,0,184,251.34a32.14,32.14,0,0,1,4.32-6.42,60.63,60.63,0,0,1,9-8.51,92.62,92.62,0,0,1,8.61-6,7.14,7.14,0,0,1,6-.69h0C213.7,230.34,215.7,231.1,217.82,232ZM179.05,415.89a48.32,48.32,0,0,1-29.68-11.22l-1.81-1.49,22.57-27.31ZM119.7,367.47,163,368.76l-23.18,28.05-3.71-3.07A48.28,48.28,0,0,1,119.7,367.47Zm8.15-36.55L124,327.73l37.48,31-43-1.28c0-.06,0-.11,0-.17A41,41,0,0,1,127.85,330.92Zm61.71-101.15c-.68.56-1.37,1.14-2.05,1.74a65.92,65.92,0,0,0-6.9,7,42.92,42.92,0,0,0-5.62,8.4,67.32,67.32,0,0,1-7.44,11.18c-2.24,2.84-4.74,5.72-7.28,8.49.09-.93.21-1.86.35-2.81a52.66,52.66,0,0,0,.65-7.19,29.45,29.45,0,0,0-.37-4.62h0a2,2,0,0,1,0-.25,2.93,2.93,0,0,1,.16-.86,10.45,10.45,0,0,1,1.64-2.8,52.42,52.42,0,0,1,5.45-5.7c2.16-2,4.48-4.14,6.52-6.42,2.83-3.16,5.22-5.68,6.89-7.39l1.22-1.24C185.22,228.12,187.51,229,189.56,229.77Zm76.12,16.71h.07l0,0ZM212.63,401h0l3.86,3.19ZM87.6,181.38a2.92,2.92,0,0,0-.12-.49L74.64,142.1c1.82.5,3.77,1,5.88,1.38a207.24,207.24,0,0,0,24.69,3.07c9.27.67,19.34,1,29.4,1,17.47,0,34.89-1,48.24-3.05,1.33-.21,2.61-.43,3.86-.66a31.82,31.82,0,0,0-6.78,17l-.7,7.92c-1.79.33-3.51.66-5.13,1q-4.18.88-7.59,1.91-2.55.77-4.66,1.63a20.7,20.7,0,0,0-5.5,3.13,9.55,9.55,0,0,0-2.17,2.5,7.16,7.16,0,0,0-.89,5.36,6.9,6.9,0,0,0,.52,2.3,1.18,1.18,0,0,0,.11.19c-6.12.44-12.71.66-19.31.66-6.37,0-12.75-.21-18.7-.61-4.47-.31-8.69-.73-12.48-1.25-2.84-.4-5.44-.85-7.7-1.36-1.7-.37-3.2-.78-4.46-1.19A14.61,14.61,0,0,1,87.6,181.38Zm12.52-92.87a48.21,48.21,0,0,1,82.29,34.08c0,.18,0,.35,0,.53l-5.31-2.66a5,5,0,1,0-4.47,8.94l8.5,4.26c-.08.34-.15.69-.24,1-5.43.82-11.7,1.47-18.43,1.95-7.06.49-14.63.78-22.3.88a5,5,0,0,0-1.59-2.72l-10.31-9a5,5,0,1,0-6.56,7.54l4.73,4.12a303.89,303.89,0,0,1-38.52-2.86l-.41-.06a48.64,48.64,0,0,1-1.49-12A48,48,0,0,1,100.12,88.51ZM287.44,77.69c.81.27,1.58.56,2.28.84a21.79,21.79,0,0,1,4.44,2.29,2.88,2.88,0,0,0-.13.31l-.24.72a.87.87,0,0,1-.1.08,13.17,13.17,0,0,1-2.88,1.43,40,40,0,0,1-4.16,1.32A59.54,59.54,0,0,0,287.44,77.69Zm35.32,84L325,187.26l-3.56.35c-7.36.68-15.62,1.23-24.44,1.63-12.63.58-26.36.87-40.08.87-24.53,0-49.09-.93-67.33-2.77l-1.95-.2,2.24-25.43a21.86,21.86,0,0,1,21.76-19.92H301a21.86,21.86,0,0,1,21.76,19.92ZM186.66,97.34c4.27.53,8.85,1,13.65,1.32,9.28.68,19.34,1,29.41,1,17.47,0,34.89-1,48.24-3,3.34-.51,6.43-1.1,9.22-1.76.87-.21,1.7-.42,2.52-.64l-12.45,37.57h-65.6c-.65,0-1.31,0-2,.07a8.32,8.32,0,0,0,.41-2.6,8.77,8.77,0,0,0-.81-3.67,10.43,10.43,0,0,0-1.79-2.69,18.45,18.45,0,0,0-4.62-3.6,51,51,0,0,0-11-4.34A57.83,57.83,0,0,0,186.66,97.34Zm12.4,31.36c-.05.11-.1.21-.14.31l-.24.73-.09.07a13.69,13.69,0,0,1-2.89,1.44,40,40,0,0,1-4.16,1.32,57.42,57.42,0,0,0,.8-7c.81.28,1.57.56,2.27.84A23,23,0,0,1,199.06,128.7Zm-21.34,57.18-.47-.07c-2.06-.32-3.95-.65-5.65-1-.78-.2-1.52-.41-2.21-.61-1.45-.44-2.71-.88-3.73-1.3l-.42-.18.82-.34a75.73,75.73,0,0,1,12.26-3.28Zm167.89-1.82c-2.81.71-6.43,1.38-10.66,2l-.67-7.55q2.81.5,5.27,1c2.59.56,4.87,1.13,6.81,1.72,1.45.43,2.71.87,3.74,1.29l.07,0A30.18,30.18,0,0,1,345.61,184.06ZM76.13,126.34a56,56,0,0,0,.7,6c-.38-.1-.74-.21-1.09-.32a19,19,0,0,1-4.8-2.63l-.13-.12a8.34,8.34,0,0,1,.79-.63,21,21,0,0,1,3.33-1.79Zm95.4-58.59c-1.49.48-2.9,1-4.22,1.5a35.77,35.77,0,0,0-4.92,2.42,57.85,57.85,0,0,0-23-7,219,219,0,0,1,38.69-17.51A57.84,57.84,0,0,0,171.53,67.75ZM456.24,321.51h0A218.56,218.56,0,1,1,62.87,138.36L77.31,182l.51,1.54a7.89,7.89,0,0,0,.75,2.41,9.21,9.21,0,0,0,1.74,2.37A15.15,15.15,0,0,0,84.4,191c.31.15.66.29,1,.43A46.46,46.46,0,0,0,93.63,194a141,141,0,0,0,18.76,2.59c7,.57,14.62.85,22.22.85,6.6,0,13.19-.21,19.39-.64,1.7-.11,3.36-.25,5-.4l7.95,15.65c-7-1.88-14.34-3.62-21.52-5.08-5.82-1.18-11.53-2.17-16.87-2.89a130,130,0,0,0-14.7-1.25h-.32a17.12,17.12,0,0,0-12.92,5.85,98.19,98.19,0,0,0-9.69,13c-3.3,5.41-6.29,11.67-7.4,18.4A68.36,68.36,0,0,1,79.71,253c-1.39,3.6-3,7.33-4.76,10.94s-3.47,7-5.16,10.07c-1.4,2.56-2.74,4.87-3.92,6.78-.24.4-.48.78-.71,1.14-.66,1.05-1.25,1.95-1.73,2.63a15.28,15.28,0,0,1-1,1.3,8.69,8.69,0,0,0-1.5,2.41,15.43,15.43,0,0,0-1,3.67,26.15,26.15,0,0,0-.28,3.42,4.77,4.77,0,0,0-.19,1.31L59.52,335a5,5,0,0,0,.76,2.64,66.3,66.3,0,0,0,11.54,13.17,60.87,60.87,0,0,0,13.83,9.3,50.27,50.27,0,0,0,8,3.05v.08a62.45,62.45,0,0,0,22.71,48.26l19.79,16.35L139.3,424l-3.18,3.85a62.51,62.51,0,0,0,86.34-6.38c.59-.66,1.18-1.31,1.74-2l9.18-11.11L218.51,396.1a19.47,19.47,0,0,0,2.1-.93c3.59-1.84,7.2-3.67,10.78-5.59.57.23,1.13.47,1.72.68A90.69,90.69,0,0,1,247,396.89c6.79,3.86,13.27,8.26,19.62,11.83a66.09,66.09,0,0,0,9.54,4.54,28.88,28.88,0,0,0,9.92,1.94,20.37,20.37,0,0,0,9.37-2.24c7.72-4,15.61-7.89,22.94-12.75s14.12-10.69,19.39-18.44a61.21,61.21,0,0,0,3.78-6.7c2.3-4.64,4.84-10.54,7.49-17.1,7.91-19.66,16.67-45.2,20.78-57.61a8.58,8.58,0,0,0,.43-2.68v-.14c.36-.58.69-1.13,1-1.68A6.21,6.21,0,0,0,372,293a7.29,7.29,0,0,0-.42-2.42,12.34,12.34,0,0,0-1.83-3.28,40.39,40.39,0,0,0-5.33-5.57,163.23,163.23,0,0,0-15-11.49,353.07,353.07,0,0,0-30.23-18.63c-4.67-2.57-9.29-4.94-13.73-7.06l3-.31c3.55-.39,6.83-.84,9.77-1.35,2.21-.38,4.24-.79,6.07-1.24,1.38-.34,2.65-.71,3.82-1.12a17.58,17.58,0,0,0,4.75-2.36,8.81,8.81,0,0,0,2.09-2.19,7,7,0,0,0,.79-1.67c0-.11.06-.24.09-.36l5-9.9a113.66,113.66,0,0,0,19.91,1.65c15.32,0,28-2.16,38.55-6.51A59.6,59.6,0,0,0,413,211.32a54.75,54.75,0,0,0,6.2-5.56c1-1,2-2.12,2.87-3.24a60.71,60.71,0,0,0,7.14-11.07,92.6,92.6,0,0,0,8.3-27,167.25,167.25,0,0,0,1.83-16.73,217.92,217.92,0,0,1,16.95,173.78Z"/><polygon class="cls-1" points="113.85 202.83 113.85 202.83 113.85 202.83 113.85 202.83"/><path class="cls-1" d="M74.5,251.55c0,4.15.16,8.28.45,12.38,1.73-3.61,3.37-7.34,4.76-10.94a68.36,68.36,0,0,0,3.81-12.87c1.11-6.73,4.1-13,7.4-18.4a98.19,98.19,0,0,1,9.69-13,17.12,17.12,0,0,1,12.92-5.85h.32a130,130,0,0,1,14.7,1.25c5.34.72,11,1.71,16.87,2.89,7.18,1.46,14.52,3.2,21.52,5.08L159,196.4c-1.63.15-3.29.29-5,.4-6.2.43-12.79.64-19.39.64-7.6,0-15.2-.28-22.22-.85A141,141,0,0,1,93.63,194a46.46,46.46,0,0,1-8.24-2.53c-.87,2.34-1.69,4.7-2.47,7.1A171.41,171.41,0,0,0,74.5,251.55Z"/><path class="cls-1" d="M265.68,246.48l0,0,0,0Z"/><path class="cls-1" d="M346.05,391A171.37,171.37,0,0,0,413,211.32a59.6,59.6,0,0,1-13.65,7.82c-10.51,4.35-23.23,6.51-38.55,6.51A113.66,113.66,0,0,1,340.84,224l-5,9.9c0,.12-.05.25-.09.36a7,7,0,0,1-.79,1.67,8.81,8.81,0,0,1-2.09,2.19,17.58,17.58,0,0,1-4.75,2.36c-1.17.41-2.44.78-3.82,1.12-1.83.45-3.86.86-6.07,1.24-2.94.51-6.22,1-9.77,1.35l-3,.31c4.44,2.12,9.06,4.49,13.73,7.06a353.07,353.07,0,0,1,30.23,18.63,163.23,163.23,0,0,1,15,11.49,40.39,40.39,0,0,1,5.33,5.57,12.34,12.34,0,0,1,1.83,3.28A7.29,7.29,0,0,1,372,293a6.21,6.21,0,0,1-.7,2.91c-.29.55-.62,1.1-1,1.68v.14a8.58,8.58,0,0,1-.43,2.68C365.75,312.77,357,338.31,349.08,358c-2.65,6.56-5.19,12.46-7.49,17.1a61.21,61.21,0,0,1-3.78,6.7c-5.27,7.75-12.07,13.58-19.39,18.44S303.2,409,295.48,413a20.37,20.37,0,0,1-9.37,2.24,28.88,28.88,0,0,1-9.92-1.94,66.09,66.09,0,0,1-9.54-4.54c-6.35-3.57-12.83-8-19.62-11.83a90.69,90.69,0,0,0-13.92-6.63c-.59-.21-1.15-.45-1.72-.68-3.58,1.92-7.19,3.75-10.78,5.59a19.47,19.47,0,0,1-2.1.93l14.87,12.28-9.18,11.11c-.56.68-1.15,1.33-1.74,2A171.07,171.07,0,0,0,346.05,391Z"/><path class="cls-3" d="M63.5,251.55a182.2,182.2,0,0,0,2.37,29.23c1.18-1.91,2.52-4.22,3.92-6.78,1.69-3.08,3.46-6.51,5.16-10.07-.29-4.1-.45-8.23-.45-12.38a171.41,171.41,0,0,1,8.42-53c.78-2.4,1.6-4.76,2.47-7.1-.33-.14-.68-.28-1-.43a15.15,15.15,0,0,1-4.09-2.75,9.21,9.21,0,0,1-1.74-2.37,7.89,7.89,0,0,1-.75-2.41L77.31,182q-2.66,6.45-4.86,13.2A182.78,182.78,0,0,0,63.5,251.55Z"/><path class="cls-3" d="M352.45,400A182.36,182.36,0,0,0,422,202.52c-.92,1.12-1.87,2.2-2.87,3.24a54.75,54.75,0,0,1-6.2,5.56A171.49,171.49,0,0,1,222.46,421.48a62.73,62.73,0,0,1-10.58,9.38A182,182,0,0,0,352.45,400Z"/><path class="cls-1" d="M290.81,83.36a13.17,13.17,0,0,0,2.88-1.43.87.87,0,0,0,.1-.08l.24-.72a2.88,2.88,0,0,1,.13-.31,21.79,21.79,0,0,0-4.44-2.29c-.7-.28-1.47-.57-2.28-.84a59.54,59.54,0,0,1-.79,7A40,40,0,0,0,290.81,83.36Z"/><path class="cls-1" d="M195.22,40.62A48.07,48.07,0,0,0,181.1,74.71a49,49,0,0,0,1.5,12l.41.07a303.88,303.88,0,0,0,38.51,2.85l-4.73-4.12a5,5,0,0,1,6.57-7.54l10.31,9a5,5,0,0,1,1.59,2.72c7.66-.09,15.24-.39,22.3-.88,6.73-.47,13-1.13,18.43-2,.09-.34.16-.69.24-1l-8.51-4.25a5,5,0,0,1,4.47-9l5.31,2.66c0-.17,0-.35,0-.52a48.21,48.21,0,0,0-82.3-34.09Zm-3.61,12.75,8.65-13.3a5,5,0,1,1,8.38,5.45L200,58.82a5,5,0,1,1-8.38-5.45ZM216,56.76a5,5,0,0,1,6.82-7.31l10,9.31A5,5,0,0,1,226,66.07ZM191.74,82a5,5,0,1,1-1.85-9.83l16-3A5,5,0,0,1,207.7,79Zm69.38-12-10,11.64a5,5,0,0,1-7.59-6.51l10-11.64A5,5,0,0,1,261.12,70Zm5-20.41a5,5,0,0,1-2.37,9.71L250.15,56a5,5,0,0,1,2.37-9.72Zm-16.56-16a5,5,0,0,1-4,5.81l-18.29,3.33a5,5,0,0,1-1.79-9.84l18.29-3.33A5,5,0,0,1,249.6,33.59Z"/><path class="cls-1" d="M202.89,119.3a18.45,18.45,0,0,1,4.62,3.6,10.43,10.43,0,0,1,1.79,2.69,8.77,8.77,0,0,1,.81,3.67,8.32,8.32,0,0,1-.41,2.6c.64,0,1.3-.07,2-.07h65.6L289.7,94.22c-.82.22-1.65.43-2.52.64-2.79.66-5.88,1.25-9.22,1.76-13.35,2-30.77,3-48.24,3-10.07,0-20.13-.33-29.41-1-4.8-.35-9.38-.79-13.65-1.32A57.83,57.83,0,0,1,191.9,115,51,51,0,0,1,202.89,119.3Z"/><path class="cls-2" d="M193.08,60.29A5,5,0,0,0,200,58.82l8.65-13.3a5,5,0,1,0-8.38-5.45l-8.65,13.3A5,5,0,0,0,193.08,60.29Z"/><path class="cls-2" d="M233,65.83a5,5,0,0,0-.24-7.07l-10-9.31A5,5,0,0,0,216,56.76l10,9.31A5,5,0,0,0,233,65.83Z"/><path class="cls-2" d="M225.5,32.89a5,5,0,0,0,1.79,9.84l18.29-3.33a5,5,0,0,0-1.79-9.84Z"/><path class="cls-2" d="M246.48,49.92a5,5,0,0,0,3.67,6l13.64,3.32a5,5,0,0,0,2.37-9.71l-13.64-3.33A5,5,0,0,0,246.48,49.92Z"/><path class="cls-2" d="M260.58,62.94a5,5,0,0,0-7,.54l-10,11.64a5,5,0,0,0,7.59,6.51l10-11.64A5,5,0,0,0,260.58,62.94Z"/><path class="cls-2" d="M211.69,73.13a5,5,0,0,0-5.83-4l-16,3A5,5,0,1,0,191.74,82l16-3A5,5,0,0,0,211.69,73.13Z"/><path class="cls-1" d="M70.81,129.26l.13.12a19,19,0,0,0,4.8,2.63c.35.11.71.22,1.09.32a56,56,0,0,1-.7-6l-1.2.5a21,21,0,0,0-3.33,1.79A8.34,8.34,0,0,0,70.81,129.26Z"/><path class="cls-1" d="M191.54,132.57a40,40,0,0,0,4.16-1.32,13.69,13.69,0,0,0,2.89-1.44l.09-.07.24-.73c0-.1.09-.2.14-.31a23,23,0,0,0-4.45-2.29c-.7-.28-1.46-.56-2.27-.84A57.42,57.42,0,0,1,191.54,132.57Z"/><path class="cls-1" d="M86,122.59a48.64,48.64,0,0,0,1.49,12l.41.06a303.89,303.89,0,0,0,38.52,2.86l-4.73-4.12a5,5,0,1,1,6.56-7.54l10.31,9a5,5,0,0,1,1.59,2.72c7.67-.1,15.24-.39,22.3-.88,6.73-.48,13-1.13,18.43-1.95.09-.34.16-.69.24-1l-8.5-4.26a5,5,0,1,1,4.47-8.94l5.31,2.66c0-.18,0-.35,0-.53a48.21,48.21,0,0,0-96.41,0Zm26.59,4.26-16,3A5,5,0,1,1,94.79,120l16-3a5,5,0,1,1,1.84,9.82ZM156,129.52a5,5,0,0,1-7.6-6.51l10-11.64a5,5,0,0,1,7.59,6.51Zm18.68-26a5,5,0,0,1-6,3.67l-13.63-3.33a5,5,0,1,1,2.37-9.71l13.63,3.32A5,5,0,0,1,174.72,103.51ZM130.39,80.77l18.29-3.32a5,5,0,1,1,1.79,9.84l-18.29,3.32a5,5,0,0,1-1.79-9.84Zm-2.67,16.56,10,9.32a5,5,0,1,1-6.82,7.31l-10-9.31a5,5,0,0,1,6.83-7.32ZM112.07,86.49a5,5,0,0,1,1.46,6.92l-8.64,13.3a5,5,0,0,1-8.39-5.45L105.15,88A5,5,0,0,1,112.07,86.49Z"/><path class="cls-1" d="M95.73,184.22c2.26.51,4.86,1,7.7,1.36,3.79.52,8,.94,12.48,1.25,6,.4,12.33.61,18.7.61,6.6,0,13.19-.22,19.31-.66a1.18,1.18,0,0,1-.11-.19,6.9,6.9,0,0,1-.52-2.3,7.16,7.16,0,0,1,.89-5.36,9.55,9.55,0,0,1,2.17-2.5,20.7,20.7,0,0,1,5.5-3.13q2.11-.87,4.66-1.63,3.41-1,7.59-1.91c1.62-.35,3.34-.68,5.13-1l.7-7.92a31.82,31.82,0,0,1,6.78-17c-1.25.23-2.53.45-3.86.66-13.35,2.05-30.77,3-48.24,3.05-10.06,0-20.13-.34-29.4-1a207.24,207.24,0,0,1-24.69-3.07c-2.11-.42-4.06-.88-5.88-1.38l12.84,38.79a2.92,2.92,0,0,1,.12.49A14.61,14.61,0,0,0,91.27,183C92.53,183.44,94,183.85,95.73,184.22Z"/><path class="cls-2" d="M96.5,101.26a5,5,0,0,0,8.39,5.45l8.64-13.3A5,5,0,1,0,105.15,88Z"/><path class="cls-2" d="M120.89,104.65l10,9.31a5,5,0,1,0,6.82-7.31l-10-9.32a5,5,0,0,0-6.83,7.32Z"/><path class="cls-2" d="M132.18,90.61l18.29-3.32a5,5,0,1,0-1.79-9.84l-18.29,3.32a5,5,0,0,0,1.79,9.84Z"/><path class="cls-2" d="M171.05,97.46l-13.63-3.32a5,5,0,1,0-2.37,9.71l13.63,3.33a5,5,0,0,0,2.37-9.72Z"/><path class="cls-2" d="M166,117.88a5,5,0,0,0-7.59-6.51l-10,11.64a5,5,0,0,0,7.6,6.51Z"/><path class="cls-2" d="M116.58,121a5,5,0,0,0-5.83-4l-16,3a5,5,0,1,0,1.84,9.83l16-3A5,5,0,0,0,116.58,121Z"/><path class="cls-1" d="M376.81,39.76v.38a205.82,205.82,0,0,1-3,34.72C371.38,89,367,104.78,359.25,119.74a107.51,107.51,0,0,1-20.54,28,92.67,92.67,0,0,1-7.34,6.4,32,32,0,0,1,1.35,6.74l.65,7.39,2,.32a111.64,111.64,0,0,1,15.73,3.71,32.6,32.6,0,0,1,6.26,2.73,14.26,14.26,0,0,1,2.67,2,8.73,8.73,0,0,1,2.22,3.36,7.22,7.22,0,0,1,.41,2.39,7.42,7.42,0,0,1-1.07,3.8,9.87,9.87,0,0,1-2.16,2.5,14.49,14.49,0,0,1-1.28.94l-12.54,24.68a108.1,108.1,0,0,0,15.16,1c12.14,0,22.16-1.46,30.35-4.14A49.53,49.53,0,0,0,410.8,200a47.77,47.77,0,0,0,8.66-11.56,75.06,75.06,0,0,0,7.2-20.56c2.2-10.45,3.1-22.6,3.1-36.2,0-10.68-3-21.7-7.92-32.46a160.09,160.09,0,0,0-19.08-30.75A269.39,269.39,0,0,0,376.81,39.76Zm24,80.3-2.7,7.53-8.65-3.1,2.7-7.53Zm-14.23-35.6,4.32,3.16-4.72,6.46-4.32-3.16ZM359,127.36l6.87-3.54,3.67,7.11-6.87,3.54Zm54.66-16.88-6.43-3.55,3.86-7,6.43,3.54Z"/><path class="cls-1" d="M330.61,54.92C319.09,67.57,307.26,83,299.77,99.2c-5,10.76-8,21.79-8,32.46,0,0,0,.09,0,.13H301a31.81,31.81,0,0,1,21.5,8.36,32.56,32.56,0,0,1,4.28,4.8,91.27,91.27,0,0,0,18.38-20.83c11.38-17.53,16.95-38,19.52-55.37a196.08,196.08,0,0,0,2.13-28.61c0-5.82-.29-9.34-.3-9.45h0c0-.14,0-.27,0-.4-1.28-1.13-2.45-2.13-3.47-3h0a2.73,2.73,0,0,0-3.58,0A300.13,300.13,0,0,0,330.61,54.92Zm19,5.41-8.2-6,4.71-6.46,8.2,6ZM345,84.26l-6.65,4.88-4.73-6.45,6.65-4.88ZM312.55,114l4.65,4.21-5.36,5.93-4.66-4.21Zm26.42-7.9-9.31.66-.57-8,9.31-.66Z"/><rect class="cls-3" x="382.35" y="86.59" width="8" height="5.35" transform="translate(86.32 348.54) rotate(-53.84)"/><rect class="cls-3" x="335.23" y="79.48" width="8.25" height="8" transform="translate(16.32 216.82) rotate(-36.25)"/><rect class="cls-3" x="329.36" y="98.43" width="9.34" height="8" transform="translate(-6.45 24.06) rotate(-4.09)"/><rect class="cls-3" x="391.11" y="117.68" width="8" height="9.19" transform="translate(146.54 452.84) rotate(-70.25)"/><rect class="cls-3" x="360.42" y="125.15" width="7.73" height="8" transform="translate(-18.66 181.45) rotate(-27.3)"/><rect class="cls-3" x="343.88" y="49.02" width="8" height="10.15" transform="translate(99.13 303.24) rotate(-53.88)"/><rect class="cls-3" x="308.19" y="115.92" width="8" height="6.28" transform="translate(14.45 270.68) rotate(-47.86)"/><rect class="cls-3" x="408.4" y="101.53" width="8" height="7.34" transform="translate(121.08 415.48) rotate(-61.12)"/><path class="cls-1" d="M165.24,182.72l.42.18c1,.42,2.28.86,3.73,1.3.69.2,1.43.41,2.21.61,1.7.35,3.59.68,5.65,1l.47.07.6-6.78a75.73,75.73,0,0,0-12.26,3.28Z"/><path class="cls-1" d="M346.36,181.25c-1.94-.59-4.22-1.16-6.81-1.72q-2.46-.53-5.27-1l.67,7.55c4.23-.62,7.85-1.29,10.66-2a30.18,30.18,0,0,0,4.56-1.48l-.07,0C349.07,182.12,347.81,181.68,346.36,181.25Z"/><path class="cls-1" d="M315.75,147.53A21.82,21.82,0,0,0,301,141.79H211.65a21.79,21.79,0,0,0-19.3,11.65A26.67,26.67,0,0,1,209.93,147h84.36c13.14,0,24.1,9.12,25.25,21l1.91,19.61,3.56-.35-2.25-25.55A21.82,21.82,0,0,0,315.75,147.53Z"/><path class="cls-3" d="M319.54,168c-1.15-11.89-12.11-21-25.25-21H209.93a26.67,26.67,0,0,0-17.58,6.45,21.92,21.92,0,0,0-2.46,8.27l-2.24,25.43,1.95.2c18.24,1.84,42.8,2.77,67.33,2.77,13.72,0,27.45-.29,40.08-.87,8.82-.4,17.08-1,24.44-1.63Z"/><path class="cls-1" d="M344.59,194.54q-3,.61-6.46,1.15c-3.87.6-8.19,1.13-12.88,1.6-18.76,1.89-43.53,2.81-68.32,2.82-14.32,0-28.63-.32-41.77-.94s-25.12-1.56-34.82-2.82q-6.19-.81-11.08-1.81l10.84,21.33a167.7,167.7,0,0,1,17.12,6.27c.61.27,1.19.54,1.76.81.57-.37,1.13-.72,1.65-1A17.14,17.14,0,0,1,215,220.24L213.44,225l1.56-4.75a132.1,132.1,0,0,1,13.86,5.64c5,2.31,10.2,5,15.48,7.89q2.43,1.33,4.87,2.73c2.56,0,5.14,0,7.72,0,10.2,0,20.41-.23,29.8-.71s18-1.18,24.89-2.1a92.45,92.45,0,0,0,11.23-2.09,20.11,20.11,0,0,0,3.45-1.22l.12-.06c.05-.12.1-.25.16-.37Z"/><path class="cls-1" d="M100.24,335.27q-2-.28-4.08-.54A45.6,45.6,0,0,1,76.7,327.9a37,37,0,0,1-7.2-6.17l0,11.74.55.77a61.64,61.64,0,0,0,4.15,5A54.28,54.28,0,0,0,90,351.12,42.45,42.45,0,0,0,94.47,353,62.06,62.06,0,0,1,100.24,335.27Z"/><path class="cls-1" d="M113.66,212.83h-.13a7.12,7.12,0,0,0-5.4,2.44A88.9,88.9,0,0,0,99.44,227c-2.9,4.71-5.29,10-6,14.77a71.29,71.29,0,0,1-3.31,12.1c-1.51,4.2-3.34,8.52-5.28,12.69a197.35,197.35,0,0,1-11.36,21c-.9,1.42-1.7,2.62-2.43,3.59-.31.42-.6.79-.91,1.15a5.81,5.81,0,0,0-.18.61,14.53,14.53,0,0,0-.3,3.25,28.61,28.61,0,0,0,1.57,9.06,28.14,28.14,0,0,0,5.62,9.72,27.54,27.54,0,0,0,6.68,5.43,36.72,36.72,0,0,0,13.94,4.46c2,.26,4,.53,6,.8a4.94,4.94,0,0,1,1.25-.65v0h0l.08,0a4.17,4.17,0,0,0,.78-.52,8.42,8.42,0,0,0,2.49-3.83,19,19,0,0,0,1-6.24,57.74,57.74,0,0,1,4.24-20c2.29-5.91,5-11,6.8-14.83a20.56,20.56,0,0,0,1.33-4.08,45.82,45.82,0,0,0,.87-5.22,86.22,86.22,0,0,0,.5-9.34c0-1.34,0-2.18,0-2.23h0a5,5,0,0,1,10-.4c0,.06,0,1,0,2.63,0,1.84-.05,4.47-.28,7.43a63,63,0,0,1-1.34,9.38,30.49,30.49,0,0,1-2.06,6.13c-1.95,4.09-4.46,8.87-6.48,14.12a48.25,48.25,0,0,0-3.56,16l8,6.62,8.25-26.74a4.47,4.47,0,0,1,.52-1.13,25.69,25.69,0,0,1,1.29-3.2,15.52,15.52,0,0,1,2.22-3.43,8.7,8.7,0,0,1,2-1.69,14.08,14.08,0,0,0,1.32-.95c.67-.51,1.5-1.19,2.44-2,1.57-1.35,3.47-3.07,5.52-5a35.89,35.89,0,0,1-.51-4.57h0c0-.55,0-1.1,0-1.63a55.29,55.29,0,0,1,.65-7.82,41.81,41.81,0,0,0,.56-5.81,19.38,19.38,0,0,0-.24-3h0a11.39,11.39,0,0,1-.15-1.83,13.43,13.43,0,0,1,1.41-5.82,23.4,23.4,0,0,1,3-4.65,83.73,83.73,0,0,1,7.52-7.64c1.65-1.55,3.18-3,4.36-4.34,1.84-2,3.5-3.84,4.91-5.34-10.34-3-22.17-5.94-33.18-8-2.42-.46-4.81-.87-7.14-1.24l-.39.45c-.75.86-1.82,2.11-3,3.64a99,99,0,0,0-8,11.47,41.8,41.8,0,0,0-3.85,8.22,16,16,0,0,0-.77,3.76A95.81,95.81,0,0,1,113.15,260a53.82,53.82,0,0,1-3,8.8,33.79,33.79,0,0,1-4.53,7.52A5,5,0,1,1,97.88,270a23.71,23.71,0,0,0,3.16-5.29,44.42,44.42,0,0,0,2.42-7.16,86.93,86.93,0,0,0,2.26-15.91,25.4,25.4,0,0,1,1.22-6.21,44.11,44.11,0,0,1,2.43-6A81.84,81.84,0,0,1,116,218.53c1.39-2,2.77-3.77,4-5.34-2.27-.2-4.41-.33-6.34-.36Z"/><path class="cls-1" d="M174.65,235.9c-2,2.28-4.36,4.38-6.52,6.42a52.42,52.42,0,0,0-5.45,5.7,10.45,10.45,0,0,0-1.64,2.8,2.93,2.93,0,0,0-.16.86,2,2,0,0,0,0,.25h0a29.45,29.45,0,0,1,.37,4.62,52.66,52.66,0,0,1-.65,7.19c-.14.95-.26,1.88-.35,2.81,2.54-2.77,5-5.65,7.28-8.49A67.32,67.32,0,0,0,175,246.88a42.92,42.92,0,0,1,5.62-8.4,65.92,65.92,0,0,1,6.9-7c.68-.6,1.37-1.18,2.05-1.74-2.05-.81-4.34-1.65-6.8-2.5l-1.22,1.24C179.87,230.22,177.48,232.74,174.65,235.9Z"/><polygon class="cls-2" points="150.1 271.82 150.1 271.81 150.1 271.81 150.1 271.82"/><path class="cls-1" d="M221,383.74a51.5,51.5,0,0,1-4.61-3.8,60.79,60.79,0,0,1-10.46-13c-.57-.93-1.09-1.84-1.58-2.74-2.52-1.39-5.39-3-8.65-4.77-9.21-5-21.4-11.51-36.62-18.44a49.4,49.4,0,0,1-12-7.62,39,39,0,0,1-7.81-9.31,34.13,34.13,0,0,1-1.78-3.37l-2.07,6.71,72,59.47a16.29,16.29,0,0,0,3.89.53,10.3,10.3,0,0,0,4.82-1.14Z"/><path class="cls-1" d="M209.6,229.37a7.18,7.18,0,0,0-3.74,1.06,92.62,92.62,0,0,0-8.61,6,60.63,60.63,0,0,0-9,8.51,32.14,32.14,0,0,0-4.32,6.42,70.76,70.76,0,0,1-6.75,10.57c-2.68,3.57-5.7,7.15-8.79,10.56a197.82,197.82,0,0,1-17.07,16.73c-1.29,1.09-2.41,2-3.39,2.71-.41.31-.8.57-1.2.82a2.89,2.89,0,0,0-.27.39,13.19,13.19,0,0,0-1.13,2.53,27.82,27.82,0,0,0-1.4,8.91A28.58,28.58,0,0,0,146,315.33a27.88,27.88,0,0,0,7.61,10.52,39.13,39.13,0,0,0,9.6,6c1.88.85,3.7,1.7,5.5,2.55a4.89,4.89,0,0,1,1.38-.26v0h.11a4.74,4.74,0,0,0,.91-.27,8.36,8.36,0,0,0,3.51-2.93,19.19,19.19,0,0,0,2.77-5.67,57.61,57.61,0,0,1,10-17.88c3.93-5,8-9.05,10.88-12.15a23.79,23.79,0,0,0,3.24-4.87,59.28,59.28,0,0,0,2.85-6.37c1.63-4.2,2.6-7.79,2.63-7.91h0a5,5,0,0,1,9.67,2.58c0,.08-.61,2.26-1.67,5.36a79,79,0,0,1-4.57,10.89,33.69,33.69,0,0,1-4.8,7.1c-3.08,3.32-6.89,7.15-10.38,11.57a47.71,47.71,0,0,0-8.3,14.73,25.89,25.89,0,0,1-6.87,11.49l-.08.07c7.15,3.57,13.37,6.88,18.66,9.76a5.34,5.34,0,0,1,.22-1.44l11.3-36.65a4.7,4.7,0,0,1,.52-1.14,26.15,26.15,0,0,1,1.3-3.19,14.84,14.84,0,0,1,2.22-3.43,8.2,8.2,0,0,1,2-1.69,15.11,15.11,0,0,0,1.33-.95c.66-.51,1.49-1.19,2.43-2,1.89-1.61,4.24-3.74,6.77-6.2a181.1,181.1,0,0,0,15.69-17.12,68.51,68.51,0,0,0,7.45-11.18,42.48,42.48,0,0,1,5.62-8.4c.82-1,1.67-1.91,2.54-2.81-7.51-4.75-15.64-9.49-23.41-13.57-2-1.06-4-2.07-6-3l-.51.31c-1,.6-2.36,1.48-4,2.57a99.5,99.5,0,0,0-11.07,8.58A41.93,41.93,0,0,0,207,255a15.86,15.86,0,0,0-1.85,3.37,96.73,96.73,0,0,1-7.69,16.22,53.52,53.52,0,0,1-5.46,7.52,33.39,33.39,0,0,1-6.55,5.84,5,5,0,1,1-5.54-8.32,23.65,23.65,0,0,0,4.58-4.12,44,44,0,0,0,4.43-6.12,86.47,86.47,0,0,0,6.87-14.53,26,26,0,0,1,3-5.57,43.5,43.5,0,0,1,4.09-5,81.39,81.39,0,0,1,9.56-8.47c1.91-1.47,3.75-2.78,5.41-3.92-2.12-.86-4.12-1.62-5.95-2.22h0A7.15,7.15,0,0,0,209.6,229.37Z"/><path class="cls-1" d="M256.4,390.8c6.06,3.66,11.61,7.32,16.58,10a42.25,42.25,0,0,0,9,3.82,16.24,16.24,0,0,0,4.14.59,10.29,10.29,0,0,0,4.81-1.14c7.78-4,15.34-7.78,22-12.19s12.32-9.37,16.65-15.72a50.44,50.44,0,0,0,3.09-5.53c1.2-2.42,2.53-5.33,3.93-8.58,2.79-6.49,5.86-14.32,8.88-22.37,2-5.39,4-10.88,5.89-16.16-2.92,4.07-5.88,8.34-8.65,12.61A155.42,155.42,0,0,0,333,353a77.36,77.36,0,0,1-12.39,18.38,66.52,66.52,0,0,1-13.93,11.8,36.35,36.35,0,0,1-8.64,4,17.25,17.25,0,0,1-4.69.74,10.28,10.28,0,0,1-3.46-.57,34,34,0,0,1-3.44-1.51c-1.25-.62-2.65-1.36-4.23-2.21-3.15-1.71-7-3.87-11.62-6.39-9.2-5-21.4-11.51-36.62-18.44a48.87,48.87,0,0,1-12-7.63,38.55,38.55,0,0,1-7.82-9.3,37.71,37.71,0,0,1-1.78-3.37l-3.45,11.21c.08.27.18.56.3.9a59.54,59.54,0,0,0,2.49,6,54.13,54.13,0,0,0,11.54,16.05,39.18,39.18,0,0,0,13.32,8.24A114,114,0,0,1,256.4,390.8Z"/><path class="cls-1" d="M303.5,254.65l-.5.31c-1,.6-2.36,1.48-4,2.57a99.55,99.55,0,0,0-11.08,8.58,41.93,41.93,0,0,0-6.11,6.71,16.33,16.33,0,0,0-1.85,3.37,96.73,96.73,0,0,1-7.69,16.22,53.3,53.3,0,0,1-5.46,7.52,33.33,33.33,0,0,1-6.54,5.84,5,5,0,1,1-5.55-8.32,23.65,23.65,0,0,0,4.58-4.12,43.5,43.5,0,0,0,4.43-6.13,86.35,86.35,0,0,0,6.87-14.52,25.81,25.81,0,0,1,3-5.57,43.5,43.5,0,0,1,4.09-5,82.2,82.2,0,0,1,9.56-8.47c1.91-1.47,3.75-2.79,5.41-3.92-2.12-.86-4.12-1.62-5.95-2.22h0a7.14,7.14,0,0,0-6,.69,92.63,92.63,0,0,0-8.6,6,60.7,60.7,0,0,0-9,8.51,33,33,0,0,0-4.32,6.42,69.87,69.87,0,0,1-6.74,10.57c-2.68,3.57-5.71,7.15-8.8,10.56A196.39,196.39,0,0,1,226.2,307q-1.92,1.63-3.38,2.71c-.42.3-.81.57-1.21.82a2.89,2.89,0,0,0-.27.39,12.9,12.9,0,0,0-1.13,2.53,27.77,27.77,0,0,0-1.4,8.91,28.65,28.65,0,0,0,2.06,10.77,27.81,27.81,0,0,0,7.62,10.52,38.87,38.87,0,0,0,9.59,6.05q2.82,1.28,5.5,2.55A4.57,4.57,0,0,1,245,352v0h.12a4.26,4.26,0,0,0,.9-.28,8.23,8.23,0,0,0,3.51-2.92,19.07,19.07,0,0,0,2.77-5.67,57.43,57.43,0,0,1,10-17.88c3.92-5,8-9.05,10.87-12.15a23.79,23.79,0,0,0,3.24-4.87,60.17,60.17,0,0,0,2.85-6.37c1.63-4.2,2.61-7.79,2.64-7.91h0a5,5,0,0,1,9.66,2.58c0,.08-.61,2.26-1.66,5.36a81,81,0,0,1-4.58,10.89,33.69,33.69,0,0,1-4.8,7.1c-3.07,3.32-6.89,7.15-10.37,11.56a47.58,47.58,0,0,0-8.31,14.74,26,26,0,0,1-6.87,11.49s0,0-.08.07c12.09,6,21.57,11.34,28.32,15.07,3.2,1.76,5.79,3.17,7.68,4.1a23.6,23.6,0,0,0,2.32,1h.15a7.27,7.27,0,0,0,1.9-.35,19.61,19.61,0,0,0,3.23-1.28,44.08,44.08,0,0,0,8.42-5.6,66.43,66.43,0,0,0,17.09-22.05A184.14,184.14,0,0,1,337,326.53c4.93-7.31,10.11-14.33,14.55-20.26,2.95-4,5.57-7.44,7.54-10.15.93-1.28,1.7-2.39,2.29-3.27a31.87,31.87,0,0,0-2.82-2.93,118,118,0,0,0-10.13-8.14l-1.53.82c-2.11,1.14-5.13,2.83-8.77,5-2.77,1.65-5.77,3-8.55,4.41a44.68,44.68,0,0,0-7,4,7.69,7.69,0,0,0-2.08,2.14,1.91,1.91,0,0,0-.25.68,30,30,0,0,1-1.37,5.6c-.59,1.67-1.25,3.14-1.89,4.51a47.24,47.24,0,0,0-3.28,8.26,50.12,50.12,0,0,0-1.07,7.37,53.62,53.62,0,0,1-1.45,9,16.73,16.73,0,0,1-3,6A12.15,12.15,0,0,1,305,342.5a5,5,0,0,1-5-8.64,1.8,1.8,0,0,0,.6-.56,5.76,5.76,0,0,0,.73-1.41,25,25,0,0,0,1.13-5.54c.18-1.51.33-3.14.51-4.83a45.78,45.78,0,0,1,1.14-6.87,47.89,47.89,0,0,1,2.93-7.86c1-2.16,1.86-3.9,2.47-5.63a19.75,19.75,0,0,0,.91-3.71,11.91,11.91,0,0,1,1.72-4.66,16.33,16.33,0,0,1,2.95-3.46,35.74,35.74,0,0,1,7.2-4.78c1.68-.89,3.37-1.71,5-2.5,2.16-1,4.18-2.05,5.78-3,2.35-1.41,4.47-2.63,6.27-3.64a344.08,344.08,0,0,0-29.82-17.72Q306.44,256.09,303.5,254.65Z"/><path class="cls-3" d="M175.94,432.2A52.74,52.74,0,0,0,198,427.37a52.17,52.17,0,0,0,18.49-14.25l2.81-3.4-.61-.5a50.39,50.39,0,0,1-16.61,12,53.75,53.75,0,0,1-22,4.66A58.24,58.24,0,0,1,143,412.38l-13.23-10.93a57.61,57.61,0,0,1-21.26-44.19,51,51,0,0,1,10.09-30.74l-.13-.11-2.81,3.39a52.33,52.33,0,0,0-12,33.45,52.89,52.89,0,0,0,4.82,22.06A52.23,52.23,0,0,0,122.7,403.8l19.79,16.35h0A52.32,52.32,0,0,0,175.94,432.2Z"/><path class="cls-1" d="M147.56,403.18l1.81,1.49a48.32,48.32,0,0,0,29.68,11.22l-8.92-40ZM164,389c.39-1.8,2.73-5.54,4.53-5.14s2.36,4.76,2,6.55A3.33,3.33,0,0,1,164,389Z"/><path class="cls-1" d="M136.14,393.74l3.71,3.07L163,368.76l-43.33-1.29A48.28,48.28,0,0,0,136.14,393.74Zm14.59-16.23a3.32,3.32,0,0,1-3-5.93c1.64-.83,6-1.37,6.84.27S152.37,376.69,150.73,377.51Z"/><path class="cls-1" d="M118.51,357.26c0,.06,0,.11,0,.17l43,1.28-37.48-31,3.85,3.19A41,41,0,0,0,118.51,357.26Zm24.07-.83a3.32,3.32,0,1,1,2.17-6.28c1.74.6,5.17,3.36,4.57,5.1S144.31,357,142.58,356.43Z"/><polygon class="cls-1" points="212.63 400.97 216.49 404.16 212.63 400.97 212.63 400.97"/><path class="cls-1" d="M180,374l9.15,41a42.41,42.41,0,0,0,8.88-2.86A40.37,40.37,0,0,0,212.63,401Zm6.26,18.21c-1.05-1.5-2.19-5.76-.68-6.81s5.1,1.51,6.14,3a3.32,3.32,0,1,1-5.46,3.79Z"/><path class="cls-3" d="M166.53,392.92a3.32,3.32,0,0,0,4-2.54c.39-1.79-.18-6.16-2-6.55s-4.14,3.34-4.53,5.14A3.32,3.32,0,0,0,166.53,392.92Z"/><path class="cls-3" d="M190.84,393a3.32,3.32,0,0,0,.83-4.63c-1-1.51-4.63-4.07-6.14-3s-.37,5.31.68,6.81A3.33,3.33,0,0,0,190.84,393Z"/><path class="cls-3" d="M154.58,371.85c-.83-1.64-5.2-1.1-6.84-.27a3.32,3.32,0,0,0,3,5.93C152.37,376.69,155.41,373.49,154.58,371.85Z"/><path class="cls-3" d="M144.75,350.15a3.32,3.32,0,1,0-2.17,6.28c1.73.6,6.14.56,6.74-1.18S146.49,350.75,144.75,350.15Z"/></g></svg>