<svg id="Layer_1" data-name="Layer 1" xmlns="http://www.w3.org/2000/svg" viewBox="0 0 500 500"><defs><style>.cls-2{fill:#fff}.cls-3{fill:#ffd617}.cls-4{fill:#fe4c00}</style></defs><path d="m367 167.2 3.54 3.53-4.25 4.27.38.62a12.24 12.24 0 0 1 2.2 1.78c.1.1.19.21.28.31l3.35-9c-.64.69-1.27 1.38-1.94 2z" style="fill:none"/><path class="cls-2" d="M253.36 75.59a80.83 80.83 0 0 1 8.34 5.07 35.88 35.88 0 0 1 9.84 10 34.76 34.76 0 0 1 3.83 8.55 65.21 65.21 0 0 1 2 9c.08.5.14 1 .21 1.48l5.77-2.14a10.29 10.29 0 0 1 3.51-.63 10 10 0 0 1 8.71 5l12.27-12.28-27.39-44.12a14.12 14.12 0 0 0-5-4.92 11.55 11.55 0 0 0-5.8-1.57 11.39 11.39 0 0 0-4.89 1.11 13.51 13.51 0 0 0-4.51 3.53l-14.87 17.6c2.43 1.39 5.15 2.79 7.98 4.32zm-148.7 103.66c.31 3 .41 6.07.46 9.07.1 6 0 11.92.87 17.19a30.77 30.77 0 0 0 2.94 9.6 24.2 24.2 0 0 0 3.92 5.37 50.7 50.7 0 0 0 5.71 5.07c1.4 1.08 2.88 2.17 4.41 3.26a9.36 9.36 0 0 1 2.71-.41 9.14 9.14 0 0 1 2.2.27h.12c.25.06.5.14.76.22l51.77 17.38-8.88-24.22 18.66-17.2a10.27 10.27 0 0 1 3.25-2 9.89 9.89 0 0 1 3.58-.65 10.14 10.14 0 0 1 5.65 1.71 10 10 0 0 1 3.83 4.9L226 261.54l27.65 9.28 2.6-68A81.06 81.06 0 0 1 237.67 189l-9.6-9.59 30.2-30.19 1.25-32.84 8.43-3.13a82.08 82.08 0 0 0-1.5-8.76 27.56 27.56 0 0 0-3.34-8.49 22.91 22.91 0 0 0-4.31-4.92 42.48 42.48 0 0 0-5.8-4.17c-4.25-2.62-9.11-4.89-13.67-7.6a37.25 37.25 0 0 1-8.43-6.53 20.58 20.58 0 0 1-3.56-5.31A91.94 91.94 0 0 1 222 50.54c-1.27-5.38-2.4-10.34-4-14.29a21.37 21.37 0 0 0-4-6.52 15.19 15.19 0 0 0-3.19-2.61 19.09 19.09 0 0 0-5.2-2.12 36.38 36.38 0 0 0-9-1c-1.27 0-2.63.05-4.07.14a39.33 39.33 0 0 0-11 2.68 95 95 0 0 0-11.84 5.58A160.69 160.69 0 0 0 153.24 43a2.82 2.82 0 0 0-.3.5 11.6 11.6 0 0 0-.82 2.38 42 42 0 0 0-1 7.33 9.83 9.83 0 0 1-2.78 6.41 9 9 0 0 1-6.4 2.66 9.66 9.66 0 0 1-5.07-1.46 34.75 34.75 0 0 0-5.29-2.66 1.5 1.5 0 0 0-.35-.08 6.55 6.55 0 0 0-1-.06 26.31 26.31 0 0 0-5.76.85 80.35 80.35 0 0 0-7.88 2.38 165.31 165.31 0 0 0-16.38 6.91c-3.19 1.55-5.89 3-7.52 4A5.86 5.86 0 0 0 90.75 74a11.48 11.48 0 0 0-1.39 3.07 26.28 26.28 0 0 0-1 7.24c0 1.63.13 2.75.13 2.78v.66a45.44 45.44 0 0 1-1.19 10.51 35.56 35.56 0 0 1-2.74 7.29c-.66 1.33-1.31 2.49-1.87 3.56a28.47 28.47 0 0 0-1.85 4.07 21.74 21.74 0 0 0-1.06 7.23 54.89 54.89 0 0 0 .94 9.38 22.54 22.54 0 0 0 2 5.87 61.81 61.81 0 0 0 3.92 6.74c3.1 4.75 7 9.9 10.4 15.59a60.88 60.88 0 0 1 5.79 12.27 43.84 43.84 0 0 1 1.83 8.99zM156 206.39l-1.62 4.73-12.09-4.12 3.25-9.46 12.13 4.17-1.67 4.68zm35.68-22-3.9-3.12-3.91-3.12 4.62-5.78 7.81 6.24zm38.09 25.71 7.82 6.24-8.44 10.55-3.9-3.12-3.91-3.12zm-2.35-38.1-4.92-.9-4.92-.9 2.31-12.62 9.84 1.8zm-.68-46.05-3.91-3.13-3.9-3.12 8.63-10.8 7.82 6.24zm-35.09-48.43 9.59 2.8-3.83 13.11-4.8-1.43-4.8-1.4zm-39.24-2 40.47 86.57-4.53 2.12-40.47-86.59zM147 141.79l9.68 2.52-2 7.84-4.84-1.26-4.84-1.26zm-37.55-44.37 7.74 6.19-3.12 3.91-3.12 3.9-7.74-6.18zm185.63 137.13a44.65 44.65 0 0 1-2.43-5.45l-.65 16.36z"/><path class="cls-3" transform="rotate(-25.06 170.34 119.827)" d="M167.88 72.06h5v95.56h-5z"/><path class="cls-4" d="m197.41 93.43 3.83-13.1-9.59-2.81-3.84 13.1 4.8 1.4 4.8 1.41zm-83.34 14.09 3.12-3.91-7.74-6.19-6.24 7.81 7.74 6.19 3.12-3.9zm40.56 44.63 2.04-7.84-9.68-2.52-2.04 7.84 4.84 1.26 4.84 1.26zm62.95 18.04 4.92.9 4.92.9 2.31-12.62-9.84-1.8-2.31 12.62zm-72.04 27.3-3.25 9.46 12.12 4.17 1.63-4.73 1.63-4.73-12.13-4.17zm38.37-19.32 3.91 3.12 3.9 3.12 4.62-5.78-7.81-6.24-4.62 5.78zm35.02-58.48 3.9 3.12 3.91 3.13 8.64-10.81-7.82-6.24-8.63 10.8zm2.45 100.98 3.91 3.12 3.9 3.12 8.44-10.55-7.82-6.24-8.43 10.55z"/><path class="cls-2" d="m286.78 120.69.14-3.68v-.05l-.01-.01-.06-.05h-.02l-.03.01-17.54 6.5-.59 15.38 18.11-18.1zm-23.27 153.45.64.22 17-6.91 2.13-55.56a80.72 80.72 0 0 1-17.25-4.5zm-49.69-16.68-16.58-45.2-.02-.04-.08-.03-.02.01-.03.02-13.75 12.68 9.34 25.47 21.14 7.09zM361 60.64l-2.58 2.58a65.89 65.89 0 0 1 12 19.31 67.71 67.71 0 0 1 4.83 25.22 70.53 70.53 0 0 1-14 42l-6.3 22.43 8.55-8.55a70.45 70.45 0 0 0 20.81-49.94 72.16 72.16 0 0 0-5.18-26.92 70.71 70.71 0 0 0-15.63-23.64z"/><path class="cls-2" d="M362.89 124.18a59.5 59.5 0 0 0 2.11-11.77l-15.28 1.91zm-68.48 59.73a60.17 60.17 0 0 0 15.95-3.78l10.07-35.86-18.71-18.71zm11-47.11c1.86-.72 5 2.88 5.72 4.74a3.61 3.61 0 1 1-6.72 2.62c-.73-1.85-.87-6.63.99-7.36zm7.32-27.92 52.27-6.54a57.24 57.24 0 0 0-3.86-16.08 55.74 55.74 0 0 0-9.8-16zm15.65-11.2a3.61 3.61 0 1 1 3.53 6.29c-1.73 1-6.45 1.77-7.42 0s2.15-5.31 3.89-6.29zm-18.73 21.66 13.88 13.89 1.46-5.18a3.94 3.94 0 0 1-.47-.1c-1.89-.61-5.69-3.52-5.08-5.42s5.39-2.06 7.28-1.45a1.76 1.76 0 0 1 .2.09l1.16-4.14zm-14.76 83.39a72.27 72.27 0 0 0 9.3-.62l2.92-10.41a69.66 69.66 0 0 1-18.32 2.48 67.73 67.73 0 0 1-25.23-4.84 65.51 65.51 0 0 1-19.3-12l-2 2 2.52 2.52a70.75 70.75 0 0 0 50.11 20.87zm-43.54-32.47a55.7 55.7 0 0 0 15.94 9.8 57.2 57.2 0 0 0 17 3.93l6.69-53.4zm27.85-24.14c.83-1.82 4.17-5.24 6-4.41s1.41 5.59.58 7.4a3.6 3.6 0 0 1-6.56-3z"/><path class="cls-3" d="M319.44 122.53c-.61 1.9 3.19 4.81 5.08 5.42a3.94 3.94 0 0 0 .47.1l1.93-6.88a1.76 1.76 0 0 0-.2-.09c-1.89-.61-6.67-.44-7.28 1.45zM331.91 104a3.61 3.61 0 1 0-3.53-6.29c-1.74 1-4.87 4.59-3.89 6.33s5.69.96 7.42-.04zm-22.83 42.21a3.61 3.61 0 0 0 2-4.67c-.72-1.86-3.86-5.46-5.72-4.74s-1.72 5.51-1 7.36a3.62 3.62 0 0 0 4.72 2.05zM281 150.89a3.6 3.6 0 0 0 4.78-1.78c.83-1.81 1.23-6.57-.58-7.4s-5.15 2.59-6 4.41a3.59 3.59 0 0 0 1.8 4.77z"/><path class="cls-2" d="m355.98 131.5-17.82-13.36-39.99 142.43 13.55-5.5 25.74-79.74 6.36-.51 12.16-43.32zm4.87 52.29a2.72 2.72 0 0 0-1.09-.22h-.25l-14.58 1.18-21.12 65.41 21-8.53 17.56-54.4a2.9 2.9 0 0 0 .15-.88 2.74 2.74 0 0 0-.48-1.53 2.82 2.82 0 0 0-1.19-1.03zm24.47-20.89-27.26 73.39 21.86-8.86 24.48-65.92-18.09.67a1.11 1.11 0 0 0-.99.72z"/><path class="cls-4" d="M414.59 162.78a8.35 8.35 0 0 0 .54-2.94 8.47 8.47 0 0 0-2.41-5.88 8.38 8.38 0 0 0-6-2.54h-.33l-20.44.77a10.18 10.18 0 0 0-1.58.18 80.12 80.12 0 0 0 9.95-38.65 82.13 82.13 0 0 0-5.9-30.65 80.49 80.49 0 0 0-17.84-27L361 46.5l-45.9 45.89L289 50.25a24.18 24.18 0 0 0-8.49-8.32A21.66 21.66 0 0 0 269.68 39a21.42 21.42 0 0 0-9.17 2.07 23.4 23.4 0 0 0-7.87 6.12l-15.11 17.92a9.55 9.55 0 0 1-1.07-1.78 81.51 81.51 0 0 1-4.69-15c-.94-4-1.84-8-3.08-11.86a43.35 43.35 0 0 0-3.69-8.53 27.76 27.76 0 0 0-4.35-5.71 26 26 0 0 0-10-6.14A42.91 42.91 0 0 0 196.59 14c-1.51 0-3.08.05-4.72.16A49.06 49.06 0 0 0 178 17.47a117 117 0 0 0-19 9.57c-5.47 3.35-9.78 6.43-11.79 7.9A11 11 0 0 0 144 39a24.92 24.92 0 0 0-2.09 6.75 56 56 0 0 0-.73 6 44 44 0 0 0-5.91-2.9 13.42 13.42 0 0 0-5.07-.85 29.82 29.82 0 0 0-5.29.53 73.87 73.87 0 0 0-10.16 2.75 160.81 160.81 0 0 0-15.61 6.3c-2.42 1.11-4.66 2.2-6.63 3.22s-3.67 1.94-5 2.76a16 16 0 0 0-5 4.89A23.48 23.48 0 0 0 79.09 77a39.28 39.28 0 0 0-.68 7.32c0 1.67.1 2.93.16 3.54a32.79 32.79 0 0 1-1.27 9 27.22 27.22 0 0 1-1.88 4.55c-.54 1.07-1.15 2.16-1.78 3.37a33.5 33.5 0 0 0-2.64 6.54 32.54 32.54 0 0 0-1.17 9.09 66 66 0 0 0 1.08 11.09 36 36 0 0 0 4.26 11.18c2.94 5.27 6.7 10.29 10.11 15.37s6.45 10.18 8.11 15.31a38.52 38.52 0 0 1 1.58 9.54c.34 5.38.13 11.48.52 17.77a63.45 63.45 0 0 0 1.26 9.56 38.18 38.18 0 0 0 3.36 9.49 36.17 36.17 0 0 0 7.71 9.79 88.7 88.7 0 0 0 8.54 6.83 9.42 9.42 0 0 0-.14 1.6 9.55 9.55 0 0 0 1.15 4.52l40.29 75.09 2.63 4.9 93.94 175.07 4.48-7.8L360.3 312.94l43.72-76a10 10 0 0 0 1.35-5 9.73 9.73 0 0 0-.8-3.86 10.12 10.12 0 0 0-3.57-4.38 9.92 9.92 0 0 0-5.62-1.77l-1.73-2.8zM86.66 142.4a61.81 61.81 0 0 1-3.92-6.74 22.54 22.54 0 0 1-2-5.87 54.89 54.89 0 0 1-.94-9.38 21.74 21.74 0 0 1 1.06-7.23 28.47 28.47 0 0 1 1.85-4.07c.56-1.07 1.21-2.23 1.87-3.56a35.56 35.56 0 0 0 2.74-7.29 45.44 45.44 0 0 0 1.28-10.49v-.66s-.13-1.15-.13-2.78a26.28 26.28 0 0 1 1-7.24A11.48 11.48 0 0 1 90.75 74a5.86 5.86 0 0 1 1.9-1.88c1.63-1 4.33-2.43 7.52-4a165.31 165.31 0 0 1 16.38-6.91 80.35 80.35 0 0 1 7.88-2.38 26.31 26.31 0 0 1 5.76-.85 6.55 6.55 0 0 1 1 .06 1.5 1.5 0 0 1 .35.08 34.75 34.75 0 0 1 5.29 2.66 9.66 9.66 0 0 0 5.07 1.46 9 9 0 0 0 6.4-2.66 9.83 9.83 0 0 0 2.78-6.41 42 42 0 0 1 1-7.33 11.6 11.6 0 0 1 .82-2.38 2.82 2.82 0 0 1 .3-.5 160.69 160.69 0 0 1 16.53-10.56 95 95 0 0 1 11.84-5.58 39.33 39.33 0 0 1 11-2.68c1.44-.09 2.8-.14 4.07-.14a36.38 36.38 0 0 1 9 1 19.09 19.09 0 0 1 5.22 2.13 15.19 15.19 0 0 1 3.14 2.6 21.37 21.37 0 0 1 4 6.52c1.63 4 2.76 8.91 4 14.29a91.94 91.94 0 0 0 5.33 16.93 20.58 20.58 0 0 0 3.56 5.31 37.25 37.25 0 0 0 8.43 6.53c4.56 2.71 9.42 5 13.67 7.6a42.48 42.48 0 0 1 5.79 4.16 22.91 22.91 0 0 1 4.33 4.93 27.56 27.56 0 0 1 3.34 8.48 82.08 82.08 0 0 1 1.5 8.76l-8.43 3.13-1.25 32.84-30.2 30.19 9.6 9.59a81.06 81.06 0 0 0 18.55 13.88l-2.6 68-27.62-9.33-19.35-52.73a10 10 0 0 0-3.83-4.9 10.14 10.14 0 0 0-5.65-1.71 9.89 9.89 0 0 0-3.58.65 10.27 10.27 0 0 0-3.25 2l-18.66 17.2 8.88 24.22-51.77-17.38c-.26-.08-.51-.16-.76-.22h-.12a9.14 9.14 0 0 0-2.2-.27 9.36 9.36 0 0 0-2.71.41c-1.53-1.09-3-2.18-4.41-3.26a50.7 50.7 0 0 1-5.71-5.07 24.2 24.2 0 0 1-3.92-5.37 30.77 30.77 0 0 1-2.94-9.6c-.82-5.27-.77-11.18-.87-17.19-.05-3-.15-6-.46-9.07a43.84 43.84 0 0 0-1.81-9A60.88 60.88 0 0 0 97.06 158c-3.42-5.7-7.3-10.85-10.4-15.6zm178.13-92.26a11.39 11.39 0 0 1 4.89-1.14 11.55 11.55 0 0 1 5.8 1.57 14.12 14.12 0 0 1 5 4.92l27.36 44.13-12.27 12.28a10 10 0 0 0-8.71-5 10.29 10.29 0 0 0-3.51.63l-5.77 2.14c-.07-.49-.13-1-.21-1.48a65.21 65.21 0 0 0-2-9 34.76 34.76 0 0 0-3.83-8.55 35.88 35.88 0 0 0-9.84-10 80.83 80.83 0 0 0-8.34-5.07c-2.83-1.53-5.55-2.93-8-4.32l14.87-17.6a13.51 13.51 0 0 1 4.56-3.51zm119.51 63.58a70.45 70.45 0 0 1-20.81 49.94l-8.55 8.55 6.3-22.43a70.53 70.53 0 0 0 14-42 67.71 67.71 0 0 0-4.83-25.22 65.89 65.89 0 0 0-12-19.31l2.59-2.61 2.52 2.52a70.71 70.71 0 0 1 15.6 23.64 72.16 72.16 0 0 1 5.18 26.92zm20.1 47.79-24.48 65.92-21.86 8.86 27.26-73.39a1.11 1.11 0 0 1 1-.72zm-277.71 77.26 141.19 47.39 80.71 27.09-48.3 84-14.53 25.28-7.91 13.75-6.86 12-9.08 15.72-7.43 12.92-3.87-7.21-4.73-8.82-3.94-7.34-4.74-8.82-3.91-7.29-4.73-8.82-2.77-5.17-4.73-8.82-8.48-15.8-4.73-8.83-4.61-8.58-4.73-8.82L195 366l-4.73-8.82-3.7-6.88-4.73-8.82-4.18-7.79-4.74-8.82-6.45-12-4.79-8.87zm242 39.56-5 8.7-1.56 2.72-5 8.7-3.43 5.95-75-25.16L395.32 232 375 267.35l-5 8.7-1.31 2.28zM183.34 224.9l13.75-12.68h.08l16.58 45.2-21.14-7.09zm85.92-101.49 17.54-6.5h.11v.09l-.14 3.68-18.11 18.1zm74.56 51.41-6.35.51-25.75 79.74-13.55 5.5 40-142.43L356 131.5zm-51.17 54.28a44.65 44.65 0 0 0 2.43 5.45L292 245.46zm69.76-41.86-17.56 54.4-21 8.53 21.12-65.41 14.58-1.18h.25a2.72 2.72 0 0 1 1.09.22 2.82 2.82 0 0 1 1.23 1 2.74 2.74 0 0 1 .48 1.53 2.9 2.9 0 0 1-.19.91zm-52.05-7.11a60.17 60.17 0 0 1-15.95 3.78l7.31-58.35 18.71 18.71zM291 130.59 284.32 184a57.2 57.2 0 0 1-17-3.93 55.7 55.7 0 0 1-15.94-9.8zm-46.75 46.76a65.51 65.51 0 0 0 19.3 12 67.73 67.73 0 0 0 25.23 4.84 69.66 69.66 0 0 0 18.32-2.48l-2.92 10.41a72.27 72.27 0 0 1-9.3.62 70.75 70.75 0 0 1-50.15-20.82l-2.52-2.52zm39 34.54-2.13 55.56-17 6.91-.64-.22 2.54-66.75a80.72 80.72 0 0 0 17.28 4.5zm79.59-87.71-13.16-9.86 15.32-1.91a59.5 59.5 0 0 1-2.11 11.77zm-36-3-1.84 6.87-1.46 5.18-13.88-13.89 18.42-2.34zm24.46-50.87a55.74 55.74 0 0 1 9.8 16 57.24 57.24 0 0 1 3.9 16.03l-52.23 6.54zm17.85 107.4c-.09-.1-.18-.21-.28-.31a12.24 12.24 0 0 0-2.2-1.78l-.38-.62 4.27-4.27-3.56-3.53 3.54 3.53c.67-.66 1.3-1.35 1.94-2z"/><path class="cls-2" d="m344.63 264.27 4.22-9.07 26.13 12.15 20.34-35.38-116.61 47.27 74.97 25.16 3.42-5.95-23.53-10.94 4.22-9.07 24.31 11.31 1.56-2.72-24.94-11.6 4.21-9.07 25.74 11.97 1.31-2.28-25.35-11.78zm-130.22 15.38 4.19 9.08-52.18 24.09 6.45 12.03 49.55-23.84 4.33 9.01-49.14 23.65 4.18 7.79 49.66-23.9 4.34 9.01-49.27 23.71 3.7 6.88 49.47-23.8 4.34 9.01-49.08 23.61 3.56 6.64 50.84-24.46 4.33 9.01-50.44 24.27 4.6 8.58 50.54-24.32 4.34 9.02-50.14 24.12 8.48 15.8 47.85-23.02 4.34 9.01-47.46 22.83 2.77 5.17 47.71-22.96 4.34 9.02-47.32 22.76 3.91 7.29 48.11-23.15.45.93 14.54-25.27-56.15-100.19 23.73-10.9-141.19-47.39 34.99 65.22 52.73-24.34zm31.47 181.25 25.11-12.68 6.86-11.95-35.91 17.29 3.94 7.34zm8.6 16.03 7.43-12.92-11.3 5.71 3.87 7.21z"/><path class="cls-3" d="m348.85 255.2-4.22 9.07 25.35 11.78 5-8.7-26.13-12.15zm-5.92 11.16-4.21 9.07 24.94 11.6 5.01-8.7-25.74-11.97zm-5.14 12.08-4.22 9.07 23.53 10.94 5-8.7-24.31-11.31zM218.6 288.73l-4.19-9.08-52.73 24.34 4.74 8.83 52.18-24.09zm8.15 21.29-4.33-9.01-49.55 23.84 4.74 8.82 49.14-23.65zm9.04 16.55-4.34-9.01-49.66 23.9 4.73 8.82 49.27-23.71zm8.24 15.8-4.34-9.01-49.47 23.8 4.73 8.82 49.08-23.61zm9.65 14.8-4.33-9.01-50.84 24.46 4.73 8.82 50.44-24.27zm9.04 17.55-4.34-9.02-50.54 24.32 4.74 8.82 50.14-24.12zm6.19 16.9-47.85 23.02 4.73 8.82 47.46-22.83-4.34-9.01zm7.36 14.05-47.71 22.96 4.73 8.82 47.32-22.76-4.34-9.02zm-39.07 39.07 4.74 8.82 35.91-17.29 7.91-13.75-.45-.93-48.11 23.15zm13.41 24.98 11.3-5.71 9.08-15.79-25.11 12.68 4.73 8.82zm-6.46-172.66 56.15 100.19 48.29-84-80.71-27.09-23.73 10.9zM384.3 113.72a70.45 70.45 0 0 1-20.81 49.94l-8.55 8.55 6.3-22.43a70.53 70.53 0 0 0 14-42 67.71 67.71 0 0 0-4.83-25.22 65.89 65.89 0 0 0-12-19.31l2.59-2.61 2.52 2.52a70.71 70.71 0 0 1 15.6 23.64 72.16 72.16 0 0 1 5.18 26.92zm-140.04 63.63a65.51 65.51 0 0 0 19.3 12 67.73 67.73 0 0 0 25.23 4.84 69.66 69.66 0 0 0 18.32-2.48l-2.92 10.41a72.27 72.27 0 0 1-9.3.62 70.75 70.75 0 0 1-50.15-20.82l-2.52-2.52z"/></svg>