<svg data-name="Layer 2" xmlns="http://www.w3.org/2000/svg" viewBox="0 0 359.9 319.35"><g data-name="Layer 1"><path d="M281.83 355.61a140.48 140.48 0 0 1-27.83 3.26h-11.66L229.1 375.1h14.16a145.54 145.54 0 0 0 101-40.54c-5.47 2.53-11.3 5-17.35 7.38a287.87 287.87 0 0 1-45.08 13.67zM197.74 373l9.87-14.46a154.07 154.07 0 0 1-25.53-4.06 220.45 220.45 0 0 1-34-11.38 254.94 254.94 0 0 1-37.29-19.54c2.56 3 5.24 5.93 8 8.73A145.61 145.61 0 0 0 197.74 373zm186.67-116.81q-1.76 3-3.71 5.93a82.55 82.55 0 0 1-5 7c-1.66 2-3.33 4-5 5.81a139.28 139.28 0 0 1-21.94 19.72c-21.77 15.81-49.42 27.15-80.29 32.16l-19.39 23.73H254a117.93 117.93 0 0 0 19.21-1.78 213.62 213.62 0 0 0 21.49-4.8 308.85 308.85 0 0 0 42.85-15.46 213 213 0 0 0 22.26-11.4 145.17 145.17 0 0 0 28-67.34 89.773 89.773 0 0 1-3.4 6.43zM135.5 328.16a226.5 226.5 0 0 0 48.5 18.26 140.45 140.45 0 0 0 29.06 4.07l14.27-20.91c-29.25-.66-56.59-6.87-80.14-17.3l-.28-.11-.21-.08-.29-.15c-1.94-.83-3.87-1.76-5.76-2.69-26.25-12.91-47.27-31.25-60.02-53.12q-1.66-2.81-3.08-5.7a145 145 0 0 0 18.33 52.2 217.5 217.5 0 0 0 39.62 25.53z" transform="translate(-67.45 -87.5)" style="fill:#fff"/><path d="m89.1 307.47-.12-.23a1 1 0 0 0 .12.23zm93 47.05a154 154 0 0 0 25.51 4.06l5.5-8.06a140.34 140.34 0 0 1-29.05-4.06 226.33 226.33 0 0 1-48.54-18.27 219.27 219.27 0 0 1-39.59-25.46 145.65 145.65 0 0 0 14.84 20.9A255.13 255.13 0 0 0 148 343.16a222 222 0 0 0 34.1 11.36zm155.43-26.02a309 309 0 0 1-42.85 15.5 213.62 213.62 0 0 1-21.49 4.8 118.82 118.82 0 0 1-19.2 1.78h-4.88l-6.76 8.3H254a141.12 141.12 0 0 0 27.86-3.26 287.87 287.87 0 0 0 45.06-13.67c6.05-2.37 11.88-4.85 17.35-7.38l2.29-2.23a147.8 147.8 0 0 0 13.28-15.23 214.34 214.34 0 0 1-22.31 11.39z" transform="translate(-67.45 -87.5)" style="fill:#ffd617"/><path d="M381.27 188.44a33.16 33.16 0 0 1 .87 30.53 40.26 40.26 0 0 1 3 8.58c.33 1.38.6 2.77.83 4.15a82.37 82.37 0 0 0-.63-48.29zM246.22 96.22a54 54 0 0 1 33.56 18.27 15.39 15.39 0 0 1 2-1.19 16.79 16.79 0 0 1 22.46 7.7 16.4 16.4 0 0 1 .83 2c1.25-.07 2.49-.12 3.81-.12a61 61 0 0 1 45.65 20.48l2.28-3.33a137 137 0 0 0-13-10.69c-25.25-18.49-59.45-30.73-97.59-33.12zM76.23 199.8c.36-.61.72-1.2 1.11-1.79a38.6 38.6 0 0 1 16.38-14.22 36.23 36.23 0 0 1 12.62-3 27 27 0 0 1-.52-5.31 27.79 27.79 0 0 1 27.79-27.79 27.72 27.72 0 0 1 6.22.7 34.15 34.15 0 0 1 56.22-31.86 54.13 54.13 0 0 1 39.28-20.73h-2.8c-32.71 0-63.09 7.24-88.15 19.55S99.56 145 87.84 165.15a87.12 87.12 0 0 0-11.61 34.65z" transform="translate(-67.45 -87.5)" style="fill:#fff"/><path style="fill:#fff" d="M77.25 154.54z"/><path d="M277.26 316c5-1.19 10-2.54 14.7-4a211.53 211.53 0 0 0 46.15-20.64q6.18-3.94 11.74-8.3c.9-.75 2.24-1.86 3.93-3.32s3.75-3.32 5.92-5.42c1.61-1.55 3.27-3.23 4.93-5a109.79 109.79 0 0 0 9-11.62 39 39 0 0 0 4.49-9.53 20.91 20.91 0 0 0 .93-6 14.84 14.84 0 0 0-.19-2.49c-.57-3.66-1.07-7.11-1.82-10.23a29.17 29.17 0 0 0-3.18-8.3 4.13 4.13 0 0 1 0-4.2 25 25 0 0 0 1.66-21.37zm54.2-23.19a11.08 11.08 0 1 1 3.24-7.81 11.08 11.08 0 0 1-3.24 7.82zm22.87-27.35a4.15 4.15 0 0 1-5.85.49l-7.23-6.16a4.15 4.15 0 0 1 5.37-6.34l7.27 6.18a4.15 4.15 0 0 1 .44 5.84zm-27.19-82a4.15 4.15 0 0 1-4-6.55l5.61-7.72a4.15 4.15 0 0 1 5.79-.92 4.05 4.05 0 0 1 1.5 2.11l13.66-20a53 53 0 0 0-19.1-14.62 8.56 8.56 0 0 1-.36 2.13l-3.6 11.74a8.68 8.68 0 0 1-10.83 5.74 10.42 10.42 0 0 1-1-.37l-17.94-8a8.63 8.63 0 0 1-4.74-10.43l2.18-7.11a8.81 8.81 0 0 1 2.76-4.15 8.5 8.5 0 0 0-11-4.88 7.17 7.17 0 0 0-.69.3 8.74 8.74 0 0 0-2.92 2.34 4.14 4.14 0 0 1-6.59-.15 46.06 46.06 0 0 0-76 2.29 4.14 4.14 0 0 1-5.73 1.26 4.1 4.1 0 0 1-1-.85 25.86 25.86 0 0 0-42.91 28.32 4.15 4.15 0 0 1-6 5.34 19.49 19.49 0 0 0-28.63 24.07 4.14 4.14 0 0 1-4.15 5.81c-1-.09-1.95-.14-2.93-.14a27.92 27.92 0 0 0-11.53 2.4 29 29 0 0 0-9.08 6.58c-5.32 5.6-8.91 13.51-10 22.29a18.82 18.82 0 0 0-.16 2.49 34 34 0 0 0 3.09 13 79.21 79.21 0 0 0 6.64 12.12c1.54 2.35 3 4.41 4.2 6.06.67.94 1.25 1.75 1.73 2.49.2.29.37.57.55.83s.28.39.51.68l1 1.3c.83 1 1.79 2.18 2.84 3.44 2.08 2.49 4.34 5.17 5.73 6.85l1 1.22.16.2c12 12.45 27.57 25.6 44.9 33.61h.07c23 9.13 51 16.84 82.35 16.84h.48l12.8-18.68a8.61 8.61 0 0 1-8.15-7.77l-1.23-12.22v-.83a8.66 8.66 0 0 1 8.65-8.64h.23l19.63.46a5.36 5.36 0 0 1 .7.05zM283 183.2a11.06 11.06 0 1 1-3.25 7.83 11 11 0 0 1 3.25-7.83zm-40.43-3.94a4.15 4.15 0 1 1-4.1 7.22h-.05l-12.12-7a4.15 4.15 0 0 1 3.85-7.36l.3.18zm-28.07-38.64a11.08 11.08 0 1 1-3.24 7.83 11.08 11.08 0 0 1 3.24-7.83zm-24.26 19.29a4.16 4.16 0 0 1 .73 5.82l-6.54 8.41a4.15 4.15 0 0 1-6.55-5.09l6.54-8.42a4.14 4.14 0 0 1 5.82-.68zm-39.57-10.16a8.61 8.61 0 0 1-2.17-5.75v-7.47a8.64 8.64 0 0 1 7.59-8.59l19.5-2.42a6.48 6.48 0 0 1 1.07-.07 8.65 8.65 0 0 1 8.65 8.65v12.3a8.65 8.65 0 0 1-8.64 8.66 9.42 9.42 0 0 1-1.06-.06l-19.51-2.4a8.58 8.58 0 0 1-5.43-2.85zm-45 70.56-7.95 6.13a4.15 4.15 0 0 1-5.08-6.57l7.93-6.2a4.19 4.19 0 1 1 5.1 6.64zm29.19-10.64a4.16 4.16 0 0 1-2.17-5.45 23 23 0 0 1 8.22-9.92 22.52 22.52 0 0 1 23.41-1.11 22.76 22.76 0 0 1 8 7.27 4.15 4.15 0 1 1-6.87 4.65 14.81 14.81 0 0 0-5.1-4.63 14.18 14.18 0 0 0-14.78.71 14.74 14.74 0 0 0-5.25 6.31 4.15 4.15 0 0 1-5.45 2.13zm46.23 73.12a4.13 4.13 0 0 1 5.79-.93l7.47 5.43a4.15 4.15 0 1 1-4.67 6.86l-.2-.15-7.48-5.42a4.15 4.15 0 0 1-.95-5.79zm-36-13.28a4.16 4.16 0 0 1-7.62-3.32 31.32 31.32 0 0 1 9.47-12.26 8.65 8.65 0 0 1-2.25-11.93l11-16.28a8.63 8.63 0 0 1 11.1-2.87l6.64 3.37a8.58 8.58 0 0 1 4.64 8.85 11.07 11.07 0 0 1 7.67 18.93c-.11.12-.24.22-.36.33a31.52 31.52 0 0 1 6.22 6.77 4.15 4.15 0 1 1-6.88 4.66 23 23 0 0 0-8-7.31 22.44 22.44 0 0 0-23.35 1.12 23 23 0 0 0-8.3 10zm107-28.56a8.75 8.75 0 0 1-6.11 2.53h-.57l-12.25-.83a8.65 8.65 0 0 1-8.05-9.21 9.48 9.48 0 0 1 .14-1.07l3.74-19.3a8.63 8.63 0 0 1 8.51-7h.59l7.42.5a8.64 8.64 0 0 1 8.05 8.16l1.1 19.63v.48a8.62 8.62 0 0 1-2.56 6.13z" transform="translate(-67.45 -87.5)" style="fill:#fff"/><path d="M181.63 242.46a5.25 5.25 0 0 0-3.72-1.55 5.4 5.4 0 0 0-1.83.34l-2.58 7.1a30.24 30.24 0 0 1 6.64 2.57 5.24 5.24 0 0 0 2.49-7 5.06 5.06 0 0 0-1-1.47zm40.7-88.71a5.28 5.28 0 1 0-3.72-1.55 5.19 5.19 0 0 0 3.72 1.55z" transform="translate(-67.45 -87.5)" style="fill:#fff"/><path d="M222.33 159.56a11.08 11.08 0 1 0-7.83-3.25 11.06 11.06 0 0 0 7.83 3.25zm-3.72-14.79a5.28 5.28 0 1 1-1.54 3.72 5.26 5.26 0 0 1 1.54-3.72z" transform="translate(-67.45 -87.5)" style="fill:#fe4c00"/><path d="M151.58 246.69a.31.31 0 0 0-.06.19v.19a.43.43 0 0 0 .14.13l3.93 2a30.54 30.54 0 0 1 9.37-1.76l4.83-13.34v-.1l-.06-.18-.13-.12-6.6-3.4h-.32l-.12.11z" transform="translate(-67.45 -87.5)" style="fill:#ffd617"/><path style="fill:#fe4c00" d="M77.25 154.54zm11.01-16.28zm17.72.5z"/><path d="M153.35 259.57a22.41 22.41 0 0 1 23.35-1.08 23 23 0 0 1 8 7.31 4.15 4.15 0 1 0 6.88-4.66 31.52 31.52 0 0 0-6.22-6.77c.12-.11.25-.21.36-.33a11.07 11.07 0 0 0-7.66-18.89 8.66 8.66 0 0 0-4.64-8.85l-6.64-3.37a8.66 8.66 0 0 0-11.1 2.87l-11 16.28a8.65 8.65 0 0 0 2.23 11.92 31.39 31.39 0 0 0-9.47 12.26 4.16 4.16 0 0 0 7.62 3.32 23 23 0 0 1 8.29-10.01zm9.25-29.17.12-.11h.28l6.64 3.37.13.12.06.18v.13l-4.83 13.3a30.66 30.66 0 0 0-9.38 1.76l-3.92-2a.29.29 0 0 1-.14-.13v-.19a.22.22 0 0 1 .06-.19l11-16.29zm17.62 20.52a30.63 30.63 0 0 0-6.64-2.57l2.57-7.1a5.49 5.49 0 0 1 1.83-.34 5.25 5.25 0 0 1 2.24 10zm-39.95-43.46a14.83 14.83 0 0 1 5.25-6.32 14.2 14.2 0 0 1 14.78-.7 14.81 14.81 0 0 1 5.1 4.63 4.15 4.15 0 1 0 6.87-4.66 22.82 22.82 0 0 0-8-7.26 22.52 22.52 0 0 0-23.41 1.11 23 23 0 0 0-8.22 9.91 4.16 4.16 0 0 0 7.62 3.32zm-39.74 6.21-8 6.13a4.15 4.15 0 0 0 5.07 6.57l8-6.06a4.19 4.19 0 1 0-5.1-6.64zm124.27-39.9a4.15 4.15 0 0 0 1.52 5.67l12.12 7a4.15 4.15 0 0 0 4.2-7.16l-12.12-7a4.15 4.15 0 0 0-5.72 1.49zm-40.38-13.09-6.54 8.42a4.15 4.15 0 0 0 6.55 5.09l6.58-8.41a4.15 4.15 0 0 0-6.44-5.25l-.11.15zM182 288.58l7.47 5.43a4.15 4.15 0 0 0 5.08-6.56c-.07-.05-.14-.11-.21-.15l-7.47-5.43a4.15 4.15 0 1 0-5.08 6.56 1 1 0 0 0 .21.15zm164.58-35.12a4.15 4.15 0 0 0-5.37 6.34l7.27 6.16a4.15 4.15 0 1 0 5.54-6.17l-.17-.15z" transform="translate(-67.45 -87.5)" style="fill:#fe4c00"/><path d="M290.84 196.28a5.26 5.26 0 1 0-.42 0z" transform="translate(-67.45 -87.5)" style="fill:#fff"/><path d="M283 198.85a11.07 11.07 0 1 0-3.24-7.82 11.06 11.06 0 0 0 3.24 7.82zm4.15-11.54a5.26 5.26 0 1 1-1.55 3.74 5.25 5.25 0 0 1 1.56-3.74z" transform="translate(-67.45 -87.5)" style="fill:#fe4c00"/><path d="M323.64 279.74a5.26 5.26 0 1 0 3.72 1.55 5.25 5.25 0 0 0-3.72-1.55z" transform="translate(-67.45 -87.5)" style="fill:#fff"/><path d="M323.64 273.93a11.08 11.08 0 1 0 7.82 3.25 11.07 11.07 0 0 0-7.82-3.25zm3.72 14.79a5.26 5.26 0 0 1-7.45 0 5.32 5.32 0 0 1-1.54-3.71 5.26 5.26 0 1 1 10.52-.42 2.94 2.94 0 0 1 0 .42 5.21 5.21 0 0 1-1.53 3.71z" transform="translate(-67.45 -87.5)" style="fill:#fe4c00"/><path d="m157.11 144.39 19.49 2.42h.07a.36.36 0 0 0 .24-.11.31.31 0 0 0 .1-.25v-12.27a.39.39 0 0 0-.1-.25.37.37 0 0 0-.25-.1l-19.51 2.42a.3.3 0 0 0-.23.11.38.38 0 0 0-.08.24v7.47a.38.38 0 0 0 .08.23.35.35 0 0 0 .19.09z" transform="translate(-67.45 -87.5)" style="fill:#ffd617"/><path d="m156.09 152.63 19.5 2.42a9.61 9.61 0 0 0 1.07.07 8.66 8.66 0 0 0 8.65-8.66v-12.28a8.65 8.65 0 0 0-8.65-8.65 6.48 6.48 0 0 0-1.07.07l-19.5 2.4a8.64 8.64 0 0 0-7.59 8.59v7.47a8.64 8.64 0 0 0 7.59 8.58zm.71-16a.38.38 0 0 1 .08-.24.3.3 0 0 1 .23-.11l19.51-2.43a.34.34 0 0 1 .25.11.39.39 0 0 1 .1.25v12.24a.29.29 0 0 1-.1.25.32.32 0 0 1-.24.11h-.07l-19.49-2.41a.46.46 0 0 1-.23-.12.38.38 0 0 1-.08-.23z" transform="translate(-67.45 -87.5)" style="fill:#fe4c00"/><path d="M246.22 235.09a.34.34 0 0 0 .11-.25l-1.09-19.63a.37.37 0 0 0-.1-.22.36.36 0 0 0-.24-.11l-7.42-.5a.35.35 0 0 0-.22.08.4.4 0 0 0-.12.21L233.41 234a.33.33 0 0 0 .1.23.24.24 0 0 0 .23.11l12.25.83a.28.28 0 0 0 .23-.08z" transform="translate(-67.45 -87.5)" style="fill:#ffd617"/><path d="M253.52 214.73a8.64 8.64 0 0 0-8.05-8.15l-7.42-.51h-.59a8.64 8.64 0 0 0-8.49 7l-3.74 19.3a8.65 8.65 0 0 0 6.85 10.14 9.31 9.31 0 0 0 1.06.14l12.25.83h.61a8.67 8.67 0 0 0 8.65-8.65v-.48zM246 235.19l-12.25-.83a.28.28 0 0 1-.24-.1.36.36 0 0 1-.09-.24V234l3.73-19.3a.35.35 0 0 1 .12-.21.34.34 0 0 1 .22-.07l7.42.49a.38.38 0 0 1 .23.11.33.33 0 0 1 .1.23l1.1 19.63a.34.34 0 0 1-.11.24.32.32 0 0 1-.24.11z" transform="translate(-67.45 -87.5)" style="fill:#fe4c00"/><path d="M245 281.48a.37.37 0 0 0-.24.1.35.35 0 0 0-.1.24v.05l1.23 12.22a.29.29 0 0 0 .11.22l.23.09h.09l6.07-1.38 7.61-11.18zm77.24-146.34a.28.28 0 0 0-.24-.14l-19.35-3.4h-.07l-.21.07a.36.36 0 0 0-.12.18L300.1 139v.29l.15.13 17.95 8h.14l.22-.06a.35.35 0 0 0 .12-.19l3.6-11.73v-.12z" transform="translate(-67.45 -87.5)" style="fill:#ffd617"/><path style="fill:#fe4c00" d="M224.71 49.04z"/><path style="fill:#fff" d="m133.58 295.47 16.28-21.66 96.3-129.74-6.23-4.43-106.35 155.83z"/><path d="m348.41 167 8.61 6.1 43.36-58.41a1.6 1.6 0 0 0 .35-1 1.71 1.71 0 0 0-.18-.83 1.65 1.65 0 0 0-.56-.64l-7.73-5.51-.31-.23a1.76 1.76 0 0 0-1-.32 1.85 1.85 0 0 0-.83.2 1.67 1.67 0 0 0-.64.57z" transform="translate(-67.45 -87.5)" style="fill:#fff"/><path style="fill:#ffd617" d="m284.58 92.3-8.3-5.91-31.67 46.4 6.49 4.62 33.48-45.11z"/><path d="M418.65 129.45a1.67 1.67 0 0 0 .4-1.11 1.72 1.72 0 0 0-.68-1.4l-7.77-6.09a1.72 1.72 0 0 0-1.08-.37 1.75 1.75 0 0 0-.78.18 1.79 1.79 0 0 0-.64.52l-43.69 58.17 8.3 6.48z" transform="translate(-67.45 -87.5)" style="fill:#fff"/><path style="fill:#fff" d="m259.25 154.74-6.01-4.71-115.71 154.01 121.72-149.3z"/><path style="fill:#ffd617" d="m291.96 98.49-33.73 44.9 6.27 4.91 35.49-43.53-8.03-6.28z"/><path d="M426.37 124a10 10 0 0 0-2.88-3.59l-7.77-6.09a10.11 10.11 0 0 0-6.2-2.14h-.65a10 10 0 0 0-4.11-6.74l-8-5.73a10.07 10.07 0 0 0-14 2.33l-.12.16-21 30.72a157.52 157.52 0 0 0-37.25-25.12C298 95 266.47 87.5 232.51 87.5c-45.25 0-86.33 13.28-116.21 35.05-14.94 10.86-27.17 23.88-35.64 38.45a94.22 94.22 0 0 0-13.21 47.61c0 2.67.14 5.32.37 7.94a19 19 0 0 0-.11 2.13v10.4A153.51 153.51 0 0 0 89 307.26l.12.22a154.55 154.55 0 0 0 103.52 73.11l-8 11.71 6.13 4.37-.21.27 12.67 9.91 2.57-3.15 16.55-20.3h20.92a154.35 154.35 0 0 0 154.4-154.29v-10.46a22.54 22.54 0 0 0-.26-3.28c.16-2.25.26-4.51.26-6.79a91.69 91.69 0 0 0-6.09-32.71l33.53-41.17a10.05 10.05 0 0 0 1.26-10.7zm-66.58 193.1a149 149 0 0 1-13.28 15.23c-.76.75-1.52 1.49-2.3 2.23a145.45 145.45 0 0 1-101 40.54h-14.12l13.24-16.23 6.77-8.3 19.37-23.76c30.87-5 58.52-16.35 80.29-32.17a138.79 138.79 0 0 0 21.95-19.71c1.66-1.82 3.32-3.75 5-5.81a78.3 78.3 0 0 0 5-7c1.3-1.94 2.55-3.92 3.72-5.93s2.37-4.26 3.44-6.43a145.22 145.22 0 0 1-28.08 67.34zM95.92 302.69a144.81 144.81 0 0 1-18.34-52.19c1 1.93 2 3.82 3.08 5.69 12.72 21.85 33.77 40.19 60.06 53.13 1.9.93 3.82 1.82 5.76 2.69l.29.15.21.08.28.11c23.55 10.42 50.9 16.64 80.14 17.3l-14.27 20.91-5.52 8-9.87 14.44a145.56 145.56 0 0 1-78.95-40.67c-2.79-2.8-5.47-5.72-8-8.73a144.78 144.78 0 0 1-14.87-20.91zm48.46-187.35C169.43 103 199.82 95.8 232.51 95.8h2.8A54.11 54.11 0 0 0 196 116.55a34.17 34.17 0 0 0-56.22 31.86 28.33 28.33 0 0 0-6.23-.7 27.8 27.8 0 0 0-27.8 27.78 27.09 27.09 0 0 0 .53 5.31 36 36 0 0 0-12.6 3A38.69 38.69 0 0 0 77.34 198c-.39.59-.75 1.19-1.11 1.8a87.13 87.13 0 0 1 11.62-34.65c11.69-20.15 31.45-37.5 56.53-49.81zm245-8.39a1.6 1.6 0 0 1 .64-.57 1.64 1.64 0 0 1 .83-.2 1.67 1.67 0 0 1 1 .32l.31.22 7.74 5.52a1.59 1.59 0 0 1 .55.63 1.87 1.87 0 0 1 .19.83 1.72 1.72 0 0 1-.35 1L357 173.14l-8.57-6.1zM205 391.54l115.7-154 6 4.7zm172.15-187a24.74 24.74 0 0 1-3.32 12.39 4.15 4.15 0 0 0 0 4.2 29.19 29.19 0 0 1 3.19 8.3c.75 3.12 1.25 6.57 1.82 10.23a16 16 0 0 1 .19 2.49 21.26 21.26 0 0 1-.93 6 39.07 39.07 0 0 1-4.51 9.53 107.79 107.79 0 0 1-9 11.62 93.866 93.866 0 0 1-4.93 5c-2.17 2.09-4.21 3.93-5.92 5.42s-3 2.56-3.93 3.32q-5.55 4.37-11.74 8.3A212 212 0 0 1 292 312q-7.14 2.24-14.7 4l98.21-120.46a25 25 0 0 1 1.63 9zm-130.83 89.85h-.1l-.23-.09a.36.36 0 0 1-.11-.22l-1.22-12.22v-.05a.31.31 0 0 1 .1-.24.35.35 0 0 1 .24-.1l15 .36-7.64 11.17zm18.56-20.75-19.64-.46H245a8.66 8.66 0 0 0-8.65 8.64 5.5 5.5 0 0 0 0 .83l1.23 12.22a8.62 8.62 0 0 0 8.15 7.77L233 321.34h-.52c-31.34 0-59.29-7.71-82.34-16.84h-.08c-17.3-8-32.92-21.1-44.88-33.56l-.16-.19c-.25-.34-.58-.74-1-1.22-1.4-1.66-3.66-4.37-5.74-6.86-1-1.25-2-2.49-2.84-3.44l-1-1.29c-.23-.3-.41-.55-.51-.69a10 10 0 0 0-.55-.83c-.47-.7-1.05-1.5-1.73-2.49-1.17-1.66-2.65-3.7-4.2-6.06a79.6 79.6 0 0 1-6.64-12.12 34.09 34.09 0 0 1-3.12-12.95 18.93 18.93 0 0 1 .16-2.49c1.13-8.78 4.72-16.69 10-22.29a29 29 0 0 1 9.19-6.58 28 28 0 0 1 11.54-2.4c1 0 2 .05 2.93.14a4.15 4.15 0 0 0 4.15-5.81 19.49 19.49 0 0 1 28.63-24.07 4.15 4.15 0 0 0 6-5.35 25.86 25.86 0 0 1 42.93-28.29 4.16 4.16 0 0 0 5.85.55 4.26 4.26 0 0 0 .84-1A46 46 0 0 1 275.9 123a4.15 4.15 0 0 0 5.8.9 4.31 4.31 0 0 0 .79-.75 8.5 8.5 0 0 1 14.29 1.56 5.65 5.65 0 0 1 .29.67 8.71 8.71 0 0 0-2.76 4.15l-2.18 7.1a8.66 8.66 0 0 0 4.74 10.44l17.94 8a8.67 8.67 0 0 0 11.44-4.39c.14-.32.26-.65.37-1l3.6-11.73a8.64 8.64 0 0 0 .36-2.14 53.09 53.09 0 0 1 19.1 14.62l-13.66 20a4.07 4.07 0 0 0-1.5-2.1 4.14 4.14 0 0 0-5.8.9L323.1 177a4.15 4.15 0 0 0 4 6.47l-61.57 90.23-.69-.05zm57.44-138.17-3.61 11.74a.28.28 0 0 1-.12.18l-.22.07h-.14l-17.94-8-.15-.12-.06-.2V139l2.18-7.12a.31.31 0 0 1 .13-.17l.2-.08h.07l19.34 3.42a.36.36 0 0 1 .21.11l.09.23v.08zm21.42 38.42 8.3 5.91-33.48 45.11-6.49-4.6zM332 235.8l-6.27-4.91L359.41 186l8 6.28zm22.58-92.52a61 61 0 0 0-45.65-20.48c-1.29 0-2.56 0-3.81.13a16.8 16.8 0 0 0-21.33-10.47 17.73 17.73 0 0 0-2 .81 16.61 16.61 0 0 0-2 1.19 54 54 0 0 0-33.57-18.26c38.14 2.38 72.34 14.62 97.66 33a135.32 135.32 0 0 1 13 10.69zm-47.18 83.84 6.23 4.43-96.34 129.73L201 383zm81.92-18.55a82.93 82.93 0 0 1-3.32 23.11c-.25-1.38-.52-2.77-.83-4.15a39.45 39.45 0 0 0-3-8.57 33.13 33.13 0 0 0-.87-30.53l4.1-5a82.22 82.22 0 0 1 3.95 25.19zm-16.6-22.77-8.3-6.48 43.69-58.16a1.76 1.76 0 0 1 .63-.52 1.84 1.84 0 0 1 .79-.19 1.69 1.69 0 0 1 1.08.38l7.77 6.09a1.73 1.73 0 0 1 .68 1.39 1.77 1.77 0 0 1-.4 1.12z" transform="translate(-67.45 -87.5)" style="fill:#fe4c00"/><path style="fill:#fe4c00" d="M348.26 26.82z"/><circle cx="55.96" cy="162.15" r="6.15" style="fill:#ffd617"/><circle cx="192.21" cy="67.63" r="7.32" style="fill:#ffd617"/><circle cx="207.48" cy="144.9" r="5.13" style="fill:#ffd617"/></g></svg>