<svg data-name="Layer 4" xmlns="http://www.w3.org/2000/svg" viewBox="0 0 333.29 333.29"><path d="M347.06 131.65a159.35 159.35 0 1 0 46.67 112.69 159.37 159.37 0 0 0-46.67-112.69zm25.07 96-7.15 5c.28 3.45.41 6.94.41 10.46a133.12 133.12 0 1 1-143.5-132.71l3.36-7.76 2.31-.08c1.74 0 3.48-.09 5.23-.09a146.92 146.92 0 0 1 16.77 1 19.32 19.32 0 0 1 7.44-6.8l2-1 1.82 1.38a20 20 0 0 1 6.87 9.72q4.88 1.18 9.66 2.73a19 19 0 0 1 7.63 1.75l2.07 1v.79a145.84 145.84 0 0 1 31.28 17.25 20.42 20.42 0 0 1 14.09-5.83 18.68 18.68 0 0 1 4.59.57l2.18.55.47 2.23a19.57 19.57 0 0 1 .41 4 20.47 20.47 0 0 1-3.87 11.9 19.75 19.75 0 0 1 12.33 10.73l.92 2.09-1.45 1.53-.24.27A145.72 145.72 0 0 1 376.53 222l.43 2.31-4.79 3.32z" transform="translate(-67.75 -77.7)" style="fill:#fff"/><path d="M352.22 126.5A166.65 166.65 0 1 0 401 244.34a166.64 166.64 0 0 0-48.78-117.84zM234.38 403.71A159.38 159.38 0 1 1 347.06 357a159.37 159.37 0 0 1-112.68 46.71z" transform="translate(-67.75 -77.7)" style="fill:#fe4c00"/><path d="M107.12 243.07A124.52 124.52 0 0 0 133 319.19a20.19 20.19 0 0 1 1.46-5.11l4-9.37-14.71-14.64a17.37 17.37 0 0 1-3.33-20 17.37 17.37 0 0 1 24.5-7.24l9.17 5.48 13.34-31.08a38.91 38.91 0 0 1 25.84-68c1.1 0 2.18.06 3.31.16l21.73-50.59a125.1 125.1 0 0 0-111.19 124.27zm141.13 81.54a16.13 16.13 0 0 0 22.09-5.61c.22-.37.42-.75.61-1.14a16.27 16.27 0 0 0-.35-14.73 15.19 15.19 0 0 0-2.42-3.32l-28.44 19.72z" transform="translate(-67.75 -77.7)" style="fill:#fff"/><path d="M138.16 274.09a4.25 4.25 0 0 0-4.42 0 4.16 4.16 0 0 0-1.6 1.75 4.23 4.23 0 0 0 .82 4.89l11 11 4.84-11.26zm40.93-87.5a25.55 25.55 0 0 0-9.7 11.67 25.16 25.16 0 0 0-1.64 5.83l1.1-.45 2.75 6.75-3.9 1.61a25.83 25.83 0 0 0 2.92 8.75 25 25 0 0 0 2.35 3.51l17.91-41.7a25.9 25.9 0 0 0-11.79 4.03zm106.58 124.25a29.17 29.17 0 0 1-44.15 25l-13.6-8.13-37.32 25.9a27.35 27.35 0 0 1-8.67 4 125.13 125.13 0 0 0 175.44-114.54c0-1.71-.05-3.4-.12-5.1L279 292.27a28.7 28.7 0 0 1 3.11 4.59 29.4 29.4 0 0 1 3.56 13.98zm8.75-17.38 1.29 8.21-3.61.57-3.6.56-1.27-8.21z" transform="translate(-67.75 -77.7)" style="fill:#fff"/><path d="M357.23 238c.06 1.69.11 3.38.11 5.11a125.14 125.14 0 0 1-175.41 114.52 27.56 27.56 0 0 1-25.19-5.73l-14.06-12.08-2.86-2.46a20.19 20.19 0 0 1-7-15.31 19.32 19.32 0 0 1 .21-2.85 125.1 125.1 0 0 1 85.29-200.42l3.65-8.4a133.13 133.13 0 1 0 143.5 132.71c0-3.53-.14-7-.41-10.46z" transform="translate(-67.75 -77.7)" style="fill:#ffd617;opacity:.3700000047683716;isolation:isolate"/><path d="M239.58 123.56a35.72 35.72 0 0 1 7.29-3.64 21.08 21.08 0 0 1-.24-9.48q-6.66-.68-13.36-.73zm44.07 2.21a30.47 30.47 0 0 1 7.56 9.11l.41.19a30.91 30.91 0 0 1 9.86-1.61 35.2 35.2 0 0 1 12.06 2.19 137.73 137.73 0 0 0-27.35-15.26 20.56 20.56 0 0 1-2.54 5.38zM368 216.94a138.15 138.15 0 0 0-26-54.08 21 21 0 0 1-4.07 1.59 32.93 32.93 0 0 1 .45 5.25 29.94 29.94 0 0 1-.32 4.33 115.67 115.67 0 0 1 17.39 38.22z" transform="translate(-67.75 -77.7)" style="fill:#fff"/><path d="m376.91 224.33-.43-2.31a145.77 145.77 0 0 0-28.73-63.66c.07-.09.16-.18.24-.27l1.46-1.74-.93-2.08a19.74 19.74 0 0 0-12.32-10.7 20.52 20.52 0 0 0 3.87-11.9 19.5 19.5 0 0 0-.41-4l-.47-2.23-2.18-.56a19.16 19.16 0 0 0-4.59-.56 20.42 20.42 0 0 0-14.09 5.83 145.41 145.41 0 0 0-31.28-17.25v-.79l-2.07-1a19.21 19.21 0 0 0-7.63-1.75q-4.8-1.53-9.66-2.72a20 20 0 0 0-6.9-9.82l-1.79-1.3-2 1a19.42 19.42 0 0 0-7.45 6.8 146.79 146.79 0 0 0-16.77-1c-1.74 0-3.48 0-5.23.1l-2.31.08-3.29 7.76-3.64 8.4-21.81 50.73a38.28 38.28 0 0 1 7.59 1.46l23.64-55.61 14.84 32.54a71.37 71.37 0 0 1 4.61 45.74l6.62 3.64c.07-.25.14-.5.2-.73a18 18 0 0 0 6.08 1.08 18.85 18.85 0 0 0 7.68-1.7l.17-.09a20.48 20.48 0 0 0 1.68 3.3 17.7 17.7 0 0 0 7.58 6.73c-1.65.49-3.31 1-4.94 1.6l8.84 4.87a97.89 97.89 0 0 1 60.43 2.68l23.55 8.81-91.49 63.5a29.66 29.66 0 0 1 5.45 5.11l78.2-54.32 7.72-5.37 7.15-5zm-99.06-26.85a10.64 10.64 0 0 1-2-2.4 16 16 0 0 1-2-5 28.32 28.32 0 0 1-.66-6.56 62.81 62.81 0 0 1 4-20.36 66.78 66.78 0 0 1 4-9.08 36 36 0 0 1 4.29-6.45 19.28 19.28 0 0 1 7.13-5.1 22.85 22.85 0 0 1 8.9-1.75 28 28 0 0 1 10.49 2.11c-.08.7-.12 1.41-.13 2.12a19.57 19.57 0 0 0 .41 4l.47 2.23.25.06-.12.16.92 2.08a20.06 20.06 0 0 0 16.84 11.59 23.85 23.85 0 0 1 .45 4.61 21.86 21.86 0 0 1-1.19 7.26 19.17 19.17 0 0 1-3.65 6.25 37.85 37.85 0 0 1-6.72 5.79 73.93 73.93 0 0 1-15.37 8.08 47.65 47.65 0 0 1-16.16 3.43 20.26 20.26 0 0 1-5.84-.78 11.45 11.45 0 0 1-4.31-2.29zm-21.5-20a78.78 78.78 0 0 0-7.11-32.69l-6.57-14.44c.69-.5 1.4-1 2.13-1.39a28.42 28.42 0 0 1 5.15-2.33 19.45 19.45 0 0 0 4.22 4.37l1.81 1.38.24-.12v.2l2.06 1a19 19 0 0 0 8.06 1.76 20.64 20.64 0 0 0 12.25-4.1 9.77 9.77 0 0 1 .86.73 23 23 0 0 1 5.42 6.72 26.14 26.14 0 0 0-4.91 4.37 43.26 43.26 0 0 0-5.22 7.79 78.09 78.09 0 0 0-6.24 15.63c-.38 1.34-.72 2.7-1 4.06-.4 1.79-.73 3.59-1 5.38a57 57 0 0 0-.6 7.83 41.91 41.91 0 0 0 .29 4.88 12.22 12.22 0 0 1-6.05 1.76 11.53 11.53 0 0 1-4.66-1 78.92 78.92 0 0 0 .89-11.69zm1.83-73a13.66 13.66 0 0 1 2.75 12.46 20.35 20.35 0 0 0-3.45 5.88c-.24.23-.48.45-.73.65a13.38 13.38 0 0 1-3.24-8.82 13.18 13.18 0 0 1 4.67-10.21zm74.25 27.18h.38a13.33 13.33 0 0 1-3.36 8.75 13.72 13.72 0 0 1-2.85 2.47 20.83 20.83 0 0 0-6.43 2.14h-1a13.4 13.4 0 0 1 3.36-8.75 13.21 13.21 0 0 1 9.9-4.65zm0 26.25h-.72a13.17 13.17 0 0 1-10-5.21 13.32 13.32 0 0 1 8.23-2.78h.73a13.12 13.12 0 0 1 10 5.21 13.32 13.32 0 0 1-8.23 2.8zm-30.92-24.43a30.91 30.91 0 0 0-9.91 1.63l-.41-.19a30.35 30.35 0 0 0-7.57-9.11 20.07 20.07 0 0 0 2.55-5.37 138.56 138.56 0 0 1 27.35 15.27 34.87 34.87 0 0 0-12-2.21zm-21.95-16.51a13.6 13.6 0 0 1-13.19 10.93 12.43 12.43 0 0 1-2.65-.28 13.64 13.64 0 0 1 13.2-10.94 12.09 12.09 0 0 1 2.61.31zm-33.31-2.3a20.79 20.79 0 0 0 .67 5.26 36 36 0 0 0-7.29 3.65l-6.3-13.85a124.72 124.72 0 0 1 13.36.72 20.94 20.94 0 0 0-.47 4.24zm72.25 83.63a70.7 70.7 0 0 0 7.49-5 41 41 0 0 0 5.72-5.21l-2.75-2.4 2.75 2.4a27 27 0 0 0 3.48-5.11A108.48 108.48 0 0 1 347 209.09l-2.9-1.09a105 105 0 0 0-31.71-6.57c2.12-.99 4.17-2.05 6.11-3.17zm19.56-24.3a29.94 29.94 0 0 0 .32-4.33 32.93 32.93 0 0 0-.45-5.25 21 21 0 0 0 4.07-1.59 138.15 138.15 0 0 1 26 54.08l-12.52-4.69A115.67 115.67 0 0 0 338.06 174z" transform="translate(-67.75 -77.7)" style="fill:#fe4c00"/><path d="M347 209.09a108.45 108.45 0 0 0-11.82-26.15 26.54 26.54 0 0 1-3.49 5.11l-2.75-2.4 2.75 2.4a40.7 40.7 0 0 1-5.69 5.25 69.23 69.23 0 0 1-7.48 5c-1.94 1.12-4 2.18-6.1 3.2a105 105 0 0 1 31.69 6.5zm-106.19 15.82A105 105 0 0 1 257.2 214l-7.76-4.28a79.67 79.67 0 0 1-5 9.44zm36.42-19.22a17.64 17.64 0 0 1-7.58-6.73 20.48 20.48 0 0 1-1.68-3.3l-.18.09a18.8 18.8 0 0 1-7.67 1.7 18.33 18.33 0 0 1-6.09-1.07c-.05.25-.13.5-.19.72l18.45 10.16c1.63-.55 3.27-1.08 4.94-1.57z" transform="translate(-67.75 -77.7)" style="fill:#fe4c00"/><path d="M266.17 188.41a42.21 42.21 0 0 1-.29-4.89 56.83 56.83 0 0 1 .6-7.82 5.14 5.14 0 0 1-1.41-3.47 2 2 0 0 1 2.05-2h.35c.31-1.36.65-2.71 1-4.06a78 78 0 0 1 6.24-15.62 43.29 43.29 0 0 1 5.19-7.79 26.2 26.2 0 0 1 4.92-4.37 23.19 23.19 0 0 0-5.42-6.72c-.28-.24-.57-.47-.86-.73a20.64 20.64 0 0 1-12.25 4.1 19.22 19.22 0 0 1-8-1.76l-2.07-1v-.21l-.24.12-1.82-1.19a19.71 19.71 0 0 1-4.22-4.38 28.77 28.77 0 0 0-5.15 2.34 22.63 22.63 0 0 0-2.12 1.38l6.56 14.44a78.53 78.53 0 0 1 6.23 44.38 11.48 11.48 0 0 0 4.65 1 12.32 12.32 0 0 0 6.06-1.75zm1.46-45.17a2 2 0 0 1 2 2c0 1.11-1 3.59-2.09 3.57s-1.95-2.56-1.92-3.65a2 2 0 0 1 2-2zm-14.69 4.65c-1.11 0-1.94-2.55-1.92-3.64a2 2 0 1 1 4 .1c-.05 1.09-1 3.59-2.12 3.54zm5 10.85a2 2 0 0 1 2.05-2 2 2 0 0 1 2 2.06c0 1.1-1 3.58-2.1 3.55s-2-2.55-1.94-3.66zm-4.43-44.09a13.4 13.4 0 0 0 3.24 8.82c.25-.21.49-.43.73-.65a20.54 20.54 0 0 1 3.45-5.89 13.66 13.66 0 0 0-2.75-12.46 13.2 13.2 0 0 0-4.67 10.18zm15.11 4.92a13.36 13.36 0 0 0-4.93 8 12.44 12.44 0 0 0 2.65.29 13.62 13.62 0 0 0 13.19-10.94 12.34 12.34 0 0 0-2.64-.29 13.42 13.42 0 0 0-8.27 2.94z" transform="translate(-67.75 -77.7)" style="fill:#fff"/><path d="M253.05 142.28a2 2 0 0 0-2.06 1.95c0 1.11.81 3.65 1.92 3.65s2.07-2.45 2.09-3.56a2 2 0 0 0-1.95-2.04zm14.42 6.58c1.1 0 2.06-2.46 2.09-3.57a2 2 0 0 0-4-.09c-.04 1.1.8 3.63 1.91 3.66zm-5.55 10.02a2 2 0 0 0-4-.1c0 1.11.81 3.65 1.91 3.65s2.06-2.43 2.09-3.55zm3.15 13.35a5.39 5.39 0 0 0 1.41 3.47q.39-2.7 1-5.39h-.35a2 2 0 0 0-2.05 2z" transform="translate(-67.75 -77.7)" style="fill:#ffd617"/><path d="M304.12 197.08a73.43 73.43 0 0 0 15.37-8.08 37.5 37.5 0 0 0 6.72-5.79 19 19 0 0 0 3.65-6.25 21.61 21.61 0 0 0 1.21-7.26 24.65 24.65 0 0 0-.44-4.61 20.08 20.08 0 0 1-16.85-11.59l-.92-2.08.13-.16-.26-.06-.46-2.23a19.14 19.14 0 0 1-.29-6.08 28.07 28.07 0 0 0-10.51-2.14 22.87 22.87 0 0 0-8.91 1.75 19.44 19.44 0 0 0-7.13 5.1 37.09 37.09 0 0 0-4.29 6.45 69.35 69.35 0 0 0-4 9.08 62.66 62.66 0 0 0-4 20.36 28.87 28.87 0 0 0 .66 6.56 15.75 15.75 0 0 0 2 5 10.35 10.35 0 0 0 2 2.4 11.45 11.45 0 0 0 4.26 2.29 20.21 20.21 0 0 0 5.84.78 47.64 47.64 0 0 0 16.22-3.44zm-18.61-28.91c-1-.5-.64-3.14-.13-4.13a2 2 0 0 1 3.62 1.73l-.06.12c-.5 1.01-2.44 2.79-3.43 2.28zM293 150a2 2 0 0 1 .63 2.77c-.59.94-2.69 2.58-3.65 2s-.35-3.19.24-4.13A2 2 0 0 1 293 150zm3.33 39.92c-.73.81-3.1 2.05-3.92 1.31s.21-3.2 1-4a2 2 0 0 1 3 2.71zm3.47-14.87c-.73.82-3.1 2.06-3.92 1.3s.21-3.2 1-4a2 2 0 1 1 3 2.66zm4.34-15.46c-.73.82-3.1 2.06-3.92 1.31s.21-3.2 1-4a2 2 0 1 1 3 2.71zm6.51 26.41c-1 .41-3.69.51-4.1-.52s1.58-2.79 2.61-3.2a2 2 0 0 1 1.71 3.63l-.25.09zm3.82-16.08c-.73.82-3.1 2.06-3.92 1.3s.21-3.2 1-4a2 2 0 1 1 3 2.71zm7.62 11.81c-1.07.28-3.72 0-4-1s1.91-2.58 3-2.86a2 2 0 1 1 1 3.88zm-35.73-.46c-.73.82-3.1 2.06-3.92 1.31s.21-3.2 1-4a2 2 0 0 1 3 2.66zm32.8-36.27h1a20.72 20.72 0 0 1 6.44-2.19 14.09 14.09 0 0 0 2.83-2.45 13.38 13.38 0 0 0 3.36-8.75h-.38a13.24 13.24 0 0 0-9.89 4.64 13.41 13.41 0 0 0-3.36 8.75zm11.51 4.89h-.73a13.22 13.22 0 0 0-8.22 2.79 13.16 13.16 0 0 0 10 5.2h.73a13.29 13.29 0 0 0 8.22-2.78 13.15 13.15 0 0 0-10-5.21z" transform="translate(-67.75 -77.7)" style="fill:#fff"/><path d="M290.24 150.65c-.59.94-1.17 3.54-.24 4.13s3-1.05 3.65-2a2 2 0 0 0-3.39-2.14zm10.94 6.23c-.73.82-1.78 3.27-1 4s3.16-.49 3.92-1.3a2 2 0 0 0-3-2.72zm-12.24 9.01a2 2 0 0 0-3.5-2l-.06.12c-.51 1-.86 3.65.13 4.13s2.93-1.24 3.43-2.25zm22.57 1.28c-.73.82-1.77 3.28-1 4s3.17-.49 3.92-1.31a2 2 0 0 0-3-2.71zm-14.67 5.19c-.73.81-1.78 3.27-1 4s3.17-.48 3.92-1.3a2 2 0 1 0-2.91-2.76zm-13.43 6.17c-.73.81-1.78 3.27-1 4s3.17-.49 3.92-1.3a2 2 0 0 0-2.91-2.77zm9.96 8.7c-.73.82-1.78 3.27-1 4s3.17-.5 3.92-1.31a2 2 0 0 0-3-2.71zm27.7-9.39c-1.08.28-3.27 1.79-3 2.86s2.92 1.3 4 1a2 2 0 0 0-1-3.88zm-11.91 4.37c-1 .41-3 2.19-2.61 3.21s3.07.93 4.1.52a2 2 0 1 0-1.21-3.82 1.84 1.84 0 0 0-.25.09z" transform="translate(-67.75 -77.7)" style="fill:#ffd617"/><path d="M164 348.19a20.38 20.38 0 0 0 22.44-.54l34.6-24-30.42-18.23L178 325.63l7.75 7.71-9.27 9.31-5.6-5.59zm151-117.35-6.33 11.5L265 218.22a97.94 97.94 0 0 0-23.24 15.54l-14.53 13.07-5.46 8.75 11.86 7.19 1.46-9.55 7.21 1.12-1.94 12.52 31.35 19c.68.41 1.32.85 2 1.3l91.53-63.52-23.55-8.82a97.92 97.92 0 0 0-60.44-2.68l33.92 18.69zm-47-.36h7.29v12.59H268zm1.92 46.66-3.65-7.86 6.62-3.06 3.65 7.86-3.31 1.53zm-37.04 38.28 29-20.11-47.12-28.58-17.21 27.59zM224 296l-7 1.65-.83-3.55-.84-3.55 7-1.64z" transform="translate(-67.75 -77.7)" style="fill:#fff"/><path d="m227.92 327.74-6.92-4.07-34.6 24a20.36 20.36 0 0 1-22.44.54l6.92-11.1-5.3-5.28-7.21 11.52-14.58-14.15a10 10 0 0 1-2.25-11.13l-3.35-1.46 3.35 1.46 3.06-7.2-6.17-6.16-4 9.36a20.23 20.23 0 0 0-1.46 5.1 18.21 18.21 0 0 0-.2 2.85 20.21 20.21 0 0 0 7 15.32l2.87 2.46 14.06 12.08a27.82 27.82 0 0 0 33.85 1.74zm11.83-8.22 28.44-19.72a16.46 16.46 0 0 0-3.36-2.7l-2.92-1.79-29 20.11zm1.93-85.76a98.15 98.15 0 0 1 23.24-15.54L257.2 214a105.11 105.11 0 0 0-16.39 10.94l3.61-5.78a80.46 80.46 0 0 0 5-9.44l-6.42-3.56a71.28 71.28 0 0 1-4.8 9.11l-22.74 36.53 6.24 3.78 5.46-8.75z" transform="translate(-67.75 -77.7)" style="fill:#fe4c00"/><path d="M247.22 193.49a71.37 71.37 0 0 0-4.61-45.74l-14.84-32.54-23.67 55.61a38.28 38.28 0 0 1 7.83 3.25z" transform="translate(-67.75 -77.7)" style="fill:#fff"/><path style="fill:#fff" d="m123.56 212.88 17.21-27.63-16.17-9.81-8.23 3.94-1.58-3.3-1.57-3.29 3.93-1.87-11-6.67-12.96 30.49 30.37 18.14z"/><path d="M238.23 215.28a72 72 0 0 0 4.8-9.11l-28.11-15.49-3.34.8-3.55.84-1.46-6.26-.9-.49A25.47 25.47 0 0 0 199 183l-19.84 46.66c.24.16.47.33.72.48l35.65 21.62zm-27.35.37h7.64v7.29h-7.64z" transform="translate(-67.75 -77.7)" style="fill:#fff"/><path style="fill:#fff" d="M116.61 224.03 88 206.93l-5.62 13.23 22.61 22.52 11.62-18.65z"/><path d="m141.54 318.08-3.35-1.46 3.35 1.46a10 10 0 0 0 2.25 11.13l14.62 14.15 7.21-11.56-21-20.93z" transform="translate(-67.75 -77.7)" style="fill:#fff"/><path d="m160.94 272.44 13-30.49-.88-.54a37.46 37.46 0 0 1-5.62-4.16l-13.35 31.08z" transform="translate(-67.75 -77.7)" style="fill:#fe4c00"/><path style="fill:#fe4c00" d="m122.87 227.76-6.26-3.73-11.62 18.65 5.3 5.27 12.58-20.19zM81.08 202.8l-4.83 11.26 6.13 6.1L88 206.93l-6.92-4.13z"/><path d="M193.23 182.35c-.77 0-1.55.05-2.31.12L173 224.18a25.65 25.65 0 0 0 6.09 5.53L199 183.05a25.65 25.65 0 0 0-5.77-.7z" transform="translate(-67.75 -77.7)" style="fill:#fe4c00"/><path style="fill:#fe4c00" d="m123.56 212.88 6.25 3.74 17.2-27.59-6.24-3.78-17.21 27.63z"/><path d="M171.93 175.56a38.94 38.94 0 0 0 1.07 65.85l.88.54 11 6.67 5.52-2.64 3.14 6.56-1.21.59 16.17 9.8 6.23 3.79 47.12 28.57 2.91 1.8a15.63 15.63 0 0 1 3.36 2.7 14.87 14.87 0 0 1 2.42 3.32 16 16 0 0 1-22.34 21.48l-8.51-5.1-6.86-4.11-35.31-21.06-6.26-3.74-30.34-18.14-6.89-4.11-9.16-5.48a17.38 17.38 0 0 0-24.5 7.24 17.35 17.35 0 0 0 3.32 20l14.72 14.62 6.17 6.15 21 20.93 5.3 5.28 5.6 5.58 9.27-9.3-7.75-7.71-5.29-5.26-22.61-22.52-6.13-6.1-11-11a4.24 4.24 0 0 1-.81-4.89 4.14 4.14 0 0 1 1.59-1.75 4.33 4.33 0 0 1 2.24-.63 4.2 4.2 0 0 1 2.18.61l10.68 6.38 6.92 4.13 28.61 17.09 6.26 3.75L221 323.67l6.88 4.11 13.6 8.13A29.19 29.19 0 0 0 279 292.3a29.61 29.61 0 0 0-5.45-5.1c-.64-.45-1.28-.89-2-1.3l-31.35-19-.86 5.54-3.6-.56-3.61-.56 1.32-8.51-11.85-7.19-6.24-3.78-35.61-21.64c-.25-.15-.48-.32-.73-.48a25.65 25.65 0 0 1-6.09-5.53 25.08 25.08 0 0 1-2.35-3.52 25.83 25.83 0 0 1-2.92-8.75l-5.37 2.19-1.29-3.38-1.37-3.35 8.13-3.29a25.16 25.16 0 0 1 1.64-5.83 25.55 25.55 0 0 1 9.7-11.67 26 26 0 0 1 11.83-4.09c.76-.07 1.54-.12 2.31-.12a26 26 0 0 1 12.4 3.22l.9.49-1.28-5.4 7.08-1.69 2.79 11.67-.2.05L243 206.2l6.41 3.53 7.76 4.28 7.72 4.25 43.75 24.12 6.34-11.5-33.9-18.68-8.84-4.87-18.45-10.16-6.62-3.65-35.25-19.41a39 39 0 0 0-15.42-4.68c-1.11-.1-2.19-.17-3.31-.17a39.2 39.2 0 0 0-21.26 6.3z" transform="translate(-67.75 -77.7)" style="fill:#ffd617"/><path style="fill:#fe4c00" d="M200.22 152.78h7.29v12.59h-7.29zm-57.09-14.83h7.64v7.29h-7.64zm-2.85-23.33 3.55-.84 3.34-.8.21-.05-2.79-11.66-7.08 1.69 1.28 5.4 1.49 6.26zm27 60.91-1.48 9.55-1.31 8.51 3.6.55 3.61.57.85-5.54 1.94-12.53-7.21-1.11zm-54.06-2.74 1.57 3.29 1.58 3.3 8.23-3.94 1.21-.58-3.14-6.58-5.52 2.64-3.93 1.87zm95.53 23.59-3.63-7.87-6.62 3.07 3.64 7.86 3.3-1.53 3.31-1.53zM101.1 125.9l-1.1.45-8.16 3.33 1.37 3.37 1.38 3.38 5.36-2.19 3.91-1.59-2.76-6.75zm123.26 98.63 3.61-.56-1.29-8.21-7.21 1.13 1.29 8.21 3.6-.57zm-75.89-8.21.83 3.56 6.98-1.65-1.67-7.1-6.98 1.64.84 3.55z"/></svg>