<svg data-name="Layer 5" xmlns="http://www.w3.org/2000/svg" viewBox="0 0 319.85 319.85"><g data-name="Layer 1"><path d="M347.62 129.69a152.92 152.92 0 1 0 44.78 108.13 152.93 152.93 0 0 0-44.78-108.13zm-19.84 197.24a127.72 127.72 0 0 1-46.49 29.69 27.55 27.55 0 0 1-3.17 4.28l-1.39 1.54-2-.49a27.87 27.87 0 0 1-5-1.72 127.82 127.82 0 1 1 58.07-33.3z" transform="translate(-79.55 -77.89)" style="fill:#fff"/><path d="M352.56 124.74a159.91 159.91 0 1 0 46.84 113.08 159.91 159.91 0 0 0-46.84-113.08zm-113.08 266A152.92 152.92 0 1 1 347.62 346a152.92 152.92 0 0 1-108.14 44.74z" transform="translate(-79.55 -77.89)" style="fill:#fe4c00"/><path d="M157.87 146.76c-.38.3-.7.61-1.08.92-1.25 1.14-2.47 2.31-3.68 3.5a50.57 50.57 0 0 0-9.29 13.6 51.27 51.27 0 0 0-1.6 39.49 47.44 47.44 0 0 1 9.91-4.33 46.28 46.28 0 0 1 2.19-31.59 45.26 45.26 0 0 1 11.85-15.95l1.76-1.52a45.7 45.7 0 0 1 30-11.12 46.42 46.42 0 0 1 18.82 4 45.56 45.56 0 0 1 15.95 11.85l-5.29 4.58a38.6 38.6 0 0 0-13.5-10 39.28 39.28 0 0 0-16-3.38 38.72 38.72 0 0 0-25.39 9.41l-1.75 1.52a38.52 38.52 0 0 0-10 13.51 39.21 39.21 0 0 0-1.77 27.14 47.25 47.25 0 0 1 7.13-.54h1.65a32.81 32.81 0 0 1 1.92-21 32.34 32.34 0 0 1 8.4-11.35l1-.88a32.66 32.66 0 0 1 45.18 2.38l1.33-.8 1.8 1.07.53.34 5.56-6.23a40.14 40.14 0 0 1 7.44-6.51v-11.33a8.92 8.92 0 0 0-8.92-8.92h-6.41v-7H232a15.91 15.91 0 0 1 15.91 15.91v7.54a40.61 40.61 0 0 1 42.76 7l3.92 3.5a40.1 40.1 0 0 1 10.1 13.94 40.73 40.73 0 0 1 3.4 16.32c0 .7 0 1.4-.06 2.1l7-6.08a7.43 7.43 0 0 1 2.1-1.29 51.21 51.21 0 0 0-43.82-46.21l-8.52-1.21 1-6.93 8.52 1.21a58.18 58.18 0 0 1 49.89 53.75 7.5 7.5 0 0 1 1.68 1.4l7.43 8.53a7.7 7.7 0 0 1 1.24 8.23 7.58 7.58 0 0 1-2 2.67l-1.08.95a43.31 43.31 0 0 1 3.25 3 47.9 47.9 0 0 1 14.1 33.92v8.92a47.88 47.88 0 0 1-14.1 33.92 48.37 48.37 0 0 1-11.65 8.59c-.3.79-.62 1.57-1 2.35a45.47 45.47 0 0 1-11.85 15.95l-1.76 1.52a45.56 45.56 0 0 1-26.77 11 28 28 0 0 1 3.31 18.74 120.06 120.06 0 1 0-120.47-205.59zM132.18 212a48.69 48.69 0 0 1 4.1-3.64 58.06 58.06 0 0 1-3.64-30.36 119.56 119.56 0 0 0-15.24 58.55 122.37 122.37 0 0 0 .7 12.7v-3.4A47.92 47.92 0 0 1 132.18 212zm122.2 130.87 3.34-1-3.34 1a27.92 27.92 0 0 1-.87-13 58 58 0 0 1-14.12 1.75 59 59 0 0 1-34-10.84c-1.19-.84-2.34-1.73-3.5-2.65a41.22 41.22 0 0 1-12.71 2 40.57 40.57 0 0 1-20.74-5.69H168a7.69 7.69 0 0 1-5.81-2.64l-7.42-8.53a7.59 7.59 0 0 1-1.34-2.19 48.26 48.26 0 0 1-27.56-20.18 120.24 120.24 0 0 0 135.33 73.39 28 28 0 0 1-6.82-11.42z" transform="translate(-79.55 -77.89)" style="fill:#fff"/><path d="M327.78 146.27a127.7 127.7 0 1 0-58.07 214 28.4 28.4 0 0 1-7.52-5c-.34-.31-.66-.64-1-1A120.18 120.18 0 0 1 125.87 281a47.66 47.66 0 0 1-7.8-26.13v-5.53a122.36 122.36 0 0 1-.69-12.7 119.38 119.38 0 0 1 15.23-58.54 58 58 0 0 1 20.81-36.72l6.66-5.43 4.38 5.37A120 120 0 1 1 285 346.87a28.27 28.27 0 0 1-3.67 9.75 127.77 127.77 0 0 0 46.49-210.35z" transform="translate(-79.55 -77.89)" style="fill:#ffd617"/><path d="M153.11 151.18c1.2-1.19 2.43-2.36 3.68-3.49-1.29 1.11-2.52 2.31-3.68 3.49z" transform="translate(-79.55 -77.89)" style="fill:#ffd617"/><path d="M313.47 301.11a47.32 47.32 0 0 1-11.71 1.69c-.57.57-1.15 1.13-1.77 1.66l-1 .88-.62.52a60.25 60.25 0 0 1-4.55 4.9v.65a7.82 7.82 0 0 1-.67 3.13 7.58 7.58 0 0 1-2 2.66l-3.37 2.93a38.51 38.51 0 0 0 16.09-8.29l1.76-1.52a38.78 38.78 0 0 0 7.84-9.21zM179.72 197.87h4.4a17.57 17.57 0 0 1 2.8-23.5l4.57 5.3a10.32 10.32 0 0 0-2.71 3.66 10.59 10.59 0 0 0-.09 8.46l4.9-8.47a7.71 7.71 0 0 1 10.5-2.8l-.21-.12 6.46 3.73.78-.25a27.51 27.51 0 0 1 2.74-6.5 27.89 27.89 0 0 1 4.81-6.11 25.22 25.22 0 0 0-7.7-5.34 26 26 0 0 0-10.53-2.23 25.5 25.5 0 0 0-16.73 6.2l-1 .88a25.53 25.53 0 0 0-6.61 8.9 25.81 25.81 0 0 0-1.3 17.4L177 195zm10.97 108.47h-.63a28.77 28.77 0 0 1-8.4-1.25l-.06.06-5.88 5.15a33.68 33.68 0 0 0 20.35 2.17c-.8-.87-1.57-1.77-2.33-2.69l-3.55-.7zM233.38 172a28 28 0 0 1 3.46 4.42l3.08-3.45a28.44 28.44 0 0 1 9.92-7.2 29.12 29.12 0 0 1 11.6-2.41 28.74 28.74 0 0 1 19.17 7.28l2.69 2.4a28.7 28.7 0 0 1 7.17 9.92 29.13 29.13 0 0 1 2.41 11.61 27.41 27.41 0 0 1-.19 3.26h7.89a34 34 0 0 0-2.28-19.51 33.11 33.11 0 0 0-8.3-11.48l-3.92-3.5a33.3 33.3 0 0 0-22.26-8.46 33.66 33.66 0 0 0-13.52 2.8c-.78.34-1.55.7-2.3 1.12v.2h-.3a33.39 33.39 0 0 0-8.92 7.11z" transform="translate(-79.55 -77.89)" style="fill:#fff"/><path d="m253.45 174 1.4 4 .4.09a15.52 15.52 0 0 1 18.42 1.6l1.27 1.13a15.4 15.4 0 0 1 3.86 5.32 16 16 0 0 1 1.14 4.12 60.55 60.55 0 0 1 5.95 5.71v-1.36a22.24 22.24 0 0 0-1.82-8.81 21.64 21.64 0 0 0-5.44-7.5l-2.63-2.4a21.65 21.65 0 0 0-14.5-5.5 22.24 22.24 0 0 0-8.81 1.82 21.65 21.65 0 0 0-6.63 4.53c.34 0 .7 0 1 .06l-.18-.51zm72.7 39.65-2.1 1.81a7.7 7.7 0 0 1-10.86-.75l-7.43-8.53a7.57 7.57 0 0 1-.82-1.13 35.42 35.42 0 0 0-4.12-.21h-8.34a57.53 57.53 0 0 1 4.2 8.47h3.74a34.19 34.19 0 0 1 34.13 34.12v5.86a34.2 34.2 0 0 1-25.41 33 58.06 58.06 0 0 1-4 9.37 41.18 41.18 0 0 0 36.66-40.79v-8.93a40.91 40.91 0 0 0-12.06-29 41.43 41.43 0 0 0-3.59-3.29zm-172.01 80.41a7.13 7.13 0 0 1 1.4-1.6l5.86-5.11a34.15 34.15 0 0 1-33.1-34.06v-5.86a34.17 34.17 0 0 1 34.09-34.09h13.75a58 58 0 0 1 4.42-7.33c.27-.39.56-.77.84-1.15h-4.7l-8.76 8.27-4.81-5.08 3.37-3.18h-.41a41.16 41.16 0 0 0-41 41v8.93a41.23 41.23 0 0 0 29.06 39.23zm22.15-6.68 6 6.93a7.53 7.53 0 0 1 1 1.54h2c-.59-1.4-1.14-2.8-1.62-4.28l-1.4-4.19z" transform="translate(-79.55 -77.89)" style="fill:#fff"/><path d="M313 234.35a17.82 17.82 0 0 1 2.2 1.87 18.22 18.22 0 0 1 5.36 12.9v2.1a18.28 18.28 0 0 1-8.6 15.47v1.57a57.75 57.75 0 0 1-.86 9.91 27.27 27.27 0 0 0 16.46-24.88v-5.86a27 27 0 0 0-8-19.13v-.05 6.1zm-12.55-14.02h-1.29l2.33 7h17.1a27 27 0 0 0-18.14-7zm-130.8 58.49 1.45-9.35h-10.59a18.29 18.29 0 0 1-18.25-18.25v-2.1a18.29 18.29 0 0 1 17.61-18.24l4.2-3.63a7.59 7.59 0 0 1 5.05-1.89 7.77 7.77 0 0 1 2.4.37c.46-1.82 1-3.63 1.63-5.4h-10.78a27.19 27.19 0 0 0-27.09 27.1v5.86a27.18 27.18 0 0 0 27.09 27.09H180l-2.42-7.26-1.06 6.78z" transform="translate(-79.55 -77.89)" style="fill:#fff"/><path d="M309 249.9a57.77 57.77 0 0 1 2.1 8.31 11.22 11.22 0 0 0 2.46-7v-2.1a11.29 11.29 0 0 0-8.43-10.89zm-135.83 9.84-.47-1.4c-.3-.89-.56-1.78-.81-2.69a7.72 7.72 0 0 1-9.69-1.58l-7.43-8.53a7.74 7.74 0 0 1-1.88-4.66q-.16.13-.33.3a11.18 11.18 0 0 0-3.31 7.94v2.1a11.3 11.3 0 0 0 11.26 11.26h11.71l.44-2.8zm27.07-73.27a.68.68 0 0 0-.36.1.63.63 0 0 0-.26.25l-1.73 3q2.1-1.26 4.26-2.35l-1.4-.79-.2-.12a.85.85 0 0 0-.31-.09zM169.72 240a57.48 57.48 0 0 1 .4-6.81l-.49-.58a.63.63 0 0 0-.24-.16.59.59 0 0 0-.29-.07.69.69 0 0 0-.46.17L160.1 240a.53.53 0 0 0-.16.23.66.66 0 0 0-.07.3.71.71 0 0 0 .17.46l7.43 8.53a.81.81 0 0 0 .24.17 1.09 1.09 0 0 0 .3.07.71.71 0 0 0 .46-.17l1.81-1.59a57.54 57.54 0 0 1-.56-8zm141.38-39.38a.53.53 0 0 0-.17.23.66.66 0 0 0-.07.3.71.71 0 0 0 .17.46l7.42 8.54a.72.72 0 0 0 .23.17.66.66 0 0 0 .31.06.64.64 0 0 0 .45-.16l8.53-7.43a.61.61 0 0 0 .17-.24.59.59 0 0 0 .07-.29.66.66 0 0 0-.17-.45l-7.43-8.54a1 1 0 0 0-.23-.18 1 1 0 0 0-.3-.05.7.7 0 0 0-.46.16zM177 299.89a.66.66 0 0 0 .17-.23 1 1 0 0 0 .07-.3.66.66 0 0 0-.17-.45l-7.43-8.53a.69.69 0 0 0-.24-.18.71.71 0 0 0-.75.11l-8.54 7.43a.53.53 0 0 0-.16.23.63.63 0 0 0-.07.3.66.66 0 0 0 .17.45l7.43 8.53a.69.69 0 0 0 .24.18.77.77 0 0 0 .3.06.71.71 0 0 0 .46-.17z" transform="translate(-79.55 -77.89)" style="fill:#fff"/><path style="fill:#ffd617" d="m83.59 130.16 4.8 5.08 8.76-8.27 5.09-4.8-2.07-2.2-2.73-2.89-2.22 2.09-8.26 7.8-3.37 3.19z"/><path d="m255.57 322 .61-.21a28.67 28.67 0 0 1 3.64-5.48l-.92-3.07-4 1.34a45.79 45.79 0 0 1-14.45 2.34H240v.32l-7-.23v-.7a46.68 46.68 0 0 1-19.33-7.93 45.74 45.74 0 0 1-17.07-23l-9.93-29.85a45.52 45.52 0 0 1-2.35-14.45 46.38 46.38 0 0 1 6.53-23.66l-.77-.54 4-5.71.75.53a45.72 45.72 0 0 1 16.23-12.55 28.38 28.38 0 0 1-1.06-7.55 51.1 51.1 0 0 0-23.74 18.4 52 52 0 0 0-9.55 30 51.24 51.24 0 0 0 2.62 16.15l11.08 33.26a51.15 51.15 0 0 0 7.25 14l9.15 1.77-1.31 6.74c1.29 1.11 2.62 2.16 4 3.14a51.41 51.41 0 0 0 46.07 6.94zm41.6-50.81a46.37 46.37 0 0 1-8.34 22.66 45.82 45.82 0 0 1-23 17.06l-1.11-3.33 1.1 3.33-2.29.76.92 3.09a28.59 28.59 0 0 1 5.86 2.28 51.15 51.15 0 0 0 25.1-18.89 51.92 51.92 0 0 0 9.59-29.92 51.23 51.23 0 0 0-2.63-16.1l-11.07-33.24a51.17 51.17 0 0 0-19.09-25.7 52.46 52.46 0 0 0-14.58-7.2l1.53 4.38-6.61 2.29-3-8.51a52.64 52.64 0 0 0-7.31-.53h-2.2a27.92 27.92 0 0 1 1.12 7.65h.07a46.34 46.34 0 0 1 26.77 8.58 45.79 45.79 0 0 1 17.07 23l9.93 29.83a45.52 45.52 0 0 1 2.35 14.45c0 .91 0 1.81-.09 2.71l.4 1.18z" transform="translate(-79.55 -77.89)" style="fill:#fff"/><path d="M240.24 309.93h.19a38.6 38.6 0 0 0 12.24-2l11-3.65a38.71 38.71 0 0 0 19.48-14.47 39.42 39.42 0 0 0 6.69-16.19l-6.92 2.29-.19-.57a36.89 36.89 0 0 1-4.6 8.88A36 36 0 0 1 260 297.65l-1.11-3.32 1.11 3.32-8.4 2.8a35.47 35.47 0 0 1-11.09 1.84zm28.05-100.83a39.43 39.43 0 0 0-27-10.79h-.91a28.19 28.19 0 0 1-3 7.32c-.33.58-.7 1.14-1.07 1.7a34.58 34.58 0 0 1 5.47-.43 36.42 36.42 0 0 1 24.28 9.31zm-61.43 11.11-4.05 5.71-6.2-4.4a39.29 39.29 0 0 0-5.27 19.59c0 1 0 2 .12 3l6.08-2.68a36.43 36.43 0 0 1 6.4-16.4 36 36 0 0 1 15.53-12.47 28.55 28.55 0 0 1-5.6-6.88 38.84 38.84 0 0 0-13.23 10.17z" transform="translate(-79.55 -77.89)" style="fill:#fff"/><path d="m199.1 261.48-7.64-17.41a38.79 38.79 0 0 0 1.87 9.29l9.93 29.84a38.81 38.81 0 0 0 14.48 19.48 39.58 39.58 0 0 0 15.52 6.57l.25-7.4h1.26a36.59 36.59 0 0 1-15.55-6.29 36 36 0 0 1-13.41-18.06l-5.52-16.5zm89.27-6.6L278.43 225a38.82 38.82 0 0 0-4.76-9.64l-2.14 6.94a36 36 0 0 1 4.72 9.36l6.75 20.2a36.27 36.27 0 0 1 1.84 11.36 35.38 35.38 0 0 1-.33 4.82l5.88-2a38.85 38.85 0 0 0-2.02-11.16z" transform="translate(-79.55 -77.89)" style="fill:#fff"/><path d="M233.26 309.25a39.58 39.58 0 0 1-15.52-6.57 38.81 38.81 0 0 1-14.48-19.48l-9.93-29.84a38.79 38.79 0 0 1-1.87-9.29c-.08-1-.12-2-.12-2.95a39.29 39.29 0 0 1 5.27-19.59l-5.73-4.07a46.29 46.29 0 0 0-6.54 23.66 45.58 45.58 0 0 0 2.35 14.46l9.93 29.84a45.79 45.79 0 0 0 17.07 23 46.68 46.68 0 0 0 19.31 7.91z" transform="translate(-79.55 -77.89)" style="fill:#fe4c00"/><path d="m256.7 290.29 4.61-14.89 6.68 2.1-3.12 10.08a29.21 29.21 0 0 0 7.36-7.14l-8.58-25.94-.32.26c.11 1.14.17 2.28.17 3.43a35.68 35.68 0 0 1-32.68 35.59 29.25 29.25 0 0 0 9.41 1.56 28.54 28.54 0 0 0 9.16-1.49l8.4-2.79.6-.22z" transform="translate(-79.55 -77.89)" style="fill:#fff"/><path d="M258.77 219.33a29.48 29.48 0 0 0-17-5.42 15.35 15.35 0 0 0-1.66.06l1.81 5.45-14.78 4.9-.55-1.64h-3.44v-4.1a29 29 0 0 0-13.57 10.49 29.58 29.58 0 0 0-5.42 17 28.75 28.75 0 0 0 1.49 9.15l6.71 20.18a29.35 29.35 0 0 0 1.3 3.25 36.1 36.1 0 0 1 2.86-10.08 34.78 34.78 0 0 1 1.94-3.67l-4.2-13.23A17.19 17.19 0 0 1 225.47 230l.54-.16 14.45-4.11A20.89 20.89 0 0 1 266 239.26l1.12 3.42.47-.38 4.39 5.45-2.51 2 7.16 21.63a29.06 29.06 0 0 0-.31-17.34l-6.72-20.17a29 29 0 0 0-10.83-14.54z" transform="translate(-79.55 -77.89)" style="fill:#fff"/><path d="M223.74 258.15c.7-.7 1.45-1.43 2.25-2.1a36.08 36.08 0 0 1 3.86-2.87 11.28 11.28 0 0 1 7.44-6.74 10.84 10.84 0 0 1 3.1-.43 11.34 11.34 0 0 1 5.89 1.65c.93-.07 1.88-.12 2.79-.12a35.77 35.77 0 0 1 10.18 1.46l2-1.64-2-5.92a13.84 13.84 0 0 0-17-9l-14.47 4.11a10.07 10.07 0 0 0-5.38 3.71 10.12 10.12 0 0 0-1.54 9.19zm28.12-14.41L235.44 242l.7-6.95 16.43 1.65z" transform="translate(-79.55 -77.89)" style="fill:#fff"/><path style="fill:#fe4c00" d="M157.73 168.55h.01-.01z"/><path style="fill:#ffd617" d="M111.91 166.17h-.01l.01.01 7.64 17.41 1.18-.52 5.22-2.3-7.64-17.41-.32.14-6.08 2.67zm121.53-9.71h6.55v-7h-21.08v7h14.53zm-79.48 67.5-.25 7.4-.24 7.07-.02.68 6.99.24.02-.33.23-6.99.26-7.62.01-.21-5.74-.2-1.26-.04z"/><path transform="rotate(-84.11 161.05 244.524)" style="fill:#ffd617" d="M240.5 231.13h7v16.51h-7z"/><path style="fill:#ffd617" d="m93.62 181.85-.54-.09-.44 2.82-1.09 7-1.45 9.35 6.91 1.07 1.06-6.78 1.93-12.38-6.38-.99zm94.82 17.73-6.68-2.07-4.61 14.88 1.71.54 4.97 1.54 1.49-4.81 3.12-10.08zm5.67-62.08 1.76-5.69-6.68-2.07-.45 1.47-2.21 7.12-1.95 6.29 6.68 2.07.7-2.25 2.15-6.94zm-66.87 89.79-9.14-1.77-6.16-1.19-.8 4.12-.53 2.74 3.56.7 11.74 2.27.02-.14 1.31-6.73zm83.02-31.55 7.36-2.45.5-.16-.4-1.19-1.81-5.45-5.12 1.7-5.88 1.96-3.79 1.25 2.02 6.07.19.57 6.93-2.3zM173 114.76l6.61-2.3-1.53-4.38-2.78-7.97-1.4-4.01-6.6 2.31.17.51 2.56 7.33 2.97 8.51z"/><path d="M220.42 283.25a26.77 26.77 0 0 0 .13 2.69 28.66 28.66 0 0 0 35.86-25.65l-26.58 21.48-2.2-2.72-2.23-2.71 26.8-21.63a29.32 29.32 0 0 0-3.11-.18 28.62 28.62 0 0 0-18.58 6.84l-2.26-2.67 2.26 2.67a28.6 28.6 0 0 0-10.09 21.88zm-.51-102.36a21.15 21.15 0 0 0 3.43 25.67l.21-20.75 4.9.05-.2 20.36a21.14 21.14 0 0 0-.43-29.89 20.49 20.49 0 0 0-2.19-1.86 21.18 21.18 0 0 0-5.72 6.42zm47.01 169.2a21.51 21.51 0 0 0 7.36 4.41 21.11 21.11 0 0 0-2.7-28.06 21.81 21.81 0 0 0-4.59-3.22l5.93 19.87-2.34.7-2.35.7L262.4 325a21.07 21.07 0 0 0-1.32 15.83 21.06 21.06 0 0 0 5.84 9.26z" transform="translate(-79.55 -77.89)" style="fill:#fff"/><path d="M285 346.87a28.12 28.12 0 0 0-3.22-18.72 45.69 45.69 0 0 0 26.77-11l1.76-1.52a45.57 45.57 0 0 0 11.85-15.92c.35-.78.67-1.56 1-2.35a48.37 48.37 0 0 0 11.65-8.59 47.86 47.86 0 0 0 14.1-33.92v-9A47.94 47.94 0 0 0 334.74 212q-1.56-1.54-3.25-3l1.08-.95a7.68 7.68 0 0 0 .75-10.85l-7.43-8.54a8.07 8.07 0 0 0-1.68-1.4 58.2 58.2 0 0 0-49.89-53.75l-8.52-1.21-1 6.93 8.51 1.21a51.21 51.21 0 0 1 43.82 46.21 8 8 0 0 0-2.1 1.3l-7 6.07c0-.7.05-1.4.05-2.1a40.67 40.67 0 0 0-3.39-16.31 40.17 40.17 0 0 0-10.1-14l-3.92-3.5a40.63 40.63 0 0 0-42.76-7v-7.6A15.91 15.91 0 0 0 232 127.63h-6.41v7H232a8.91 8.91 0 0 1 8.91 8.92v11.34a40 40 0 0 0-7.43 6.51l-5.57 6.23-.53-.34-1.79-1.07-1.33.8a32.78 32.78 0 0 0-45.18-2.38l-1 .88a32.34 32.34 0 0 0-8.4 11.35 32.74 32.74 0 0 0-1.92 21h-1.66a47.35 47.35 0 0 0-7.13.54 39.3 39.3 0 0 1 1.75-27.2 38.31 38.31 0 0 1 10-13.56l1.75-1.52a38.7 38.7 0 0 1 25.38-9.42 39.29 39.29 0 0 1 16 3.39 38.7 38.7 0 0 1 13.5 10l5.29-4.57a45.26 45.26 0 0 0-16-11.85 46.23 46.23 0 0 0-18.82-4 45.75 45.75 0 0 0-30 11.12l-1.76 1.52a45.56 45.56 0 0 0-11.85 16 46.3 46.3 0 0 0-2.18 31.6 47.78 47.78 0 0 0-9.92 4.32A51.14 51.14 0 0 1 153 151.15a48.86 48.86 0 0 1 3.69-3.49c.35-.31.7-.63 1.07-.93l6.67-5.43-.05-.05-4.38-5.38-6.66 5.44a58.27 58.27 0 0 0-17.17 67 48 48 0 0 0-18.19 37.57v8.93a48.2 48.2 0 0 0 35.35 46.3 7.59 7.59 0 0 0 1.34 2.19l7.42 8.53a7.69 7.69 0 0 0 5.81 2.64h.51a40.63 40.63 0 0 0 20.75 5.69 41.22 41.22 0 0 0 12.71-2c1.13.92 2.28 1.81 3.5 2.65a59 59 0 0 0 33.92 10.84 58.22 58.22 0 0 0 14.09-1.75 27.92 27.92 0 0 0 .87 13l3.34-1-3.34 1a28 28 0 0 0 6.85 11.42c.32.32.64.65 1 1a28.3 28.3 0 0 0 12.6 6.68l2 .49 1.39-1.54a28.43 28.43 0 0 0 6.84-14zm-75.47-31.81a49.07 49.07 0 0 1-4-3.14v.13l-11.74-2.27c.74.93 1.52 1.83 2.32 2.69a33.7 33.7 0 0 1-20.35-2.17l5.9-5.13.06-.06a28.76 28.76 0 0 0 8.39 1.25h.64l.81-4.12 6.15 1.19a51 51 0 0 1-7.25-14.06l-11.07-33.25a51.25 51.25 0 0 1-2.68-16.12 52.05 52.05 0 0 1 9.55-29.92 51.22 51.22 0 0 1 23.79-18.42 28.33 28.33 0 0 0 1.07 7.55 45.76 45.76 0 0 0-16.24 12.55l5.74 4.06a38.5 38.5 0 0 1 13.23-10.16 28.27 28.27 0 0 0 5.59 6.87 36.34 36.34 0 0 0-21.93 28.88l.32-.14 7.65 17.41-5.23 2.29 5.51 16.58a36.05 36.05 0 0 0 13.43 18.08 36.58 36.58 0 0 0 15.56 6.29l5.73.2v.22a36 36 0 0 0 11.09-1.84l8.4-2.8-1.11-3.33 1.11 3.33A36 36 0 0 0 278 284.24a36.53 36.53 0 0 0 4.6-8.88l-2-6.06 3.79-1.26a35.38 35.38 0 0 0 .33-4.82 36 36 0 0 0-1.72-11.36l-6.71-20.17a35.68 35.68 0 0 0-4.73-9.36l-.7 2.25-6.68-2.1 1.95-6.3a36.46 36.46 0 0 0-24.28-9.3 34.58 34.58 0 0 0-5.47.43c.37-.56.74-1.12 1.07-1.7a28.19 28.19 0 0 0 3-7.32h.91a39.38 39.38 0 0 1 27 10.79l.45-1.47 6.69 2.1-1.76 5.68a38.37 38.37 0 0 1 4.78 9.64l9.92 29.85a38.81 38.81 0 0 1 2 11.2l5.12-1.7 1.81 5.45c.06-.9.09-1.81.09-2.72a45.79 45.79 0 0 0-2.46-14.45l-9.94-29.84a45.82 45.82 0 0 0-17.07-23 46.48 46.48 0 0 0-26.73-8.53h-.08a27.89 27.89 0 0 0-1.1-7.64h2.2a52.51 52.51 0 0 1 7.3.54l-2.58-7.38c-.33 0-.7 0-1-.06a21.65 21.65 0 0 1 6.63-4.53 22.24 22.24 0 0 1 8.81-1.82 21.68 21.68 0 0 1 14.56 5.5l2.68 2.4a21.64 21.64 0 0 1 5.44 7.5 22.25 22.25 0 0 1 1.83 8.81c0 .46 0 .92-.05 1.36a60.44 60.44 0 0 0-5.94-5.71 16 16 0 0 0-1.15-4.12 15.4 15.4 0 0 0-3.86-5.32l-1.24-1.13a15.46 15.46 0 0 0-16.47-2.61 16 16 0 0 0-1.92 1l-.39-.09 2.8 8a52.45 52.45 0 0 1 14.58 7.2 51.13 51.13 0 0 1 19.09 25.7l11 33.26a51 51 0 0 1 2.6 16.13 52 52 0 0 1-9.56 29.93 51.15 51.15 0 0 1-25.1 18.89 28 28 0 0 0-5.86-2.28l-.92-3.1 2.29-.81-1.1-3.33 1.11 3.33a45.91 45.91 0 0 0 23-17.08 46.44 46.44 0 0 0 8.34-22.67l-7.37 2.45a39.44 39.44 0 0 1-6.69 16.18 38.78 38.78 0 0 1-19.48 14.48l-10.95 3.67a38.56 38.56 0 0 1-12.24 2h-.18l-.24 7h.42a45.9 45.9 0 0 0 14.46-2.34l4-1.34.92 3.07a27.76 27.76 0 0 0-3.64 5.48l-.62.21a51.2 51.2 0 0 1-16.19 2.62 52 52 0 0 1-29.91-9.58zm-84.42-69.17a41.17 41.17 0 0 1 41-41h.41l8.26-7.8a25.84 25.84 0 0 1 1.29-17.39 25.37 25.37 0 0 1 6.62-8.9l1-.88a25.43 25.43 0 0 1 16.73-6.2 26 26 0 0 1 10.58 2.2 25.27 25.27 0 0 1 7.69 5.33 28.45 28.45 0 0 0-4.8 6.12 27.78 27.78 0 0 0-2.75 6.5l-.77.25-6.47-3.73.21.12a7.68 7.68 0 0 0-10.49 2.8l-4.9 8.46a10.56 10.56 0 0 1 2.8-12.12l-4.56-5.28a17.3 17.3 0 0 0-4.54 6.11 17.66 17.66 0 0 0 1.74 17.39h-4.38l2.06 2.19-5.09 4.8h4.7c-.28.38-.57.76-.84 1.15a59.16 59.16 0 0 0-4.42 7.33h-13.82a34.17 34.17 0 0 0-34.09 34.09v5.86a34.15 34.15 0 0 0 33.1 34.06l-5.87 5.11a7.08 7.08 0 0 0-1.39 1.6 41.23 41.23 0 0 1-29.07-39.24zM247.65 159h.3v-.15c.75-.41 1.52-.79 2.3-1.13a34 34 0 0 1 13.52-2.8 33.43 33.43 0 0 1 22.28 8.47l3.91 3.5a33.13 33.13 0 0 1 8.36 11.52 34 34 0 0 1 2.27 19.51h-7.88a29.54 29.54 0 0 0 .18-3.26 28.92 28.92 0 0 0-9.59-21.56l-2.69-2.39a28.91 28.91 0 0 0-30.77-4.87 28.41 28.41 0 0 0-9.92 7.19l-3.08 3.45a28.92 28.92 0 0 0-3.46-4.42l5.35-6a33.52 33.52 0 0 1 8.92-7.06zm72 34.22a.75.75 0 0 1 .45-.16.73.73 0 0 1 .3.06.81.81 0 0 1 .24.17l7.43 8.54a.62.62 0 0 1 .16.45.77.77 0 0 1-.06.3.81.81 0 0 1-.17.24l-8.53 7.43a.7.7 0 0 1-.46.16.66.66 0 0 1-.3-.07.63.63 0 0 1-.24-.16l-7.47-8.56a.73.73 0 0 1-.17-.46.6.6 0 0 1 .07-.3.48.48 0 0 1 .17-.23zm22.21 61.63a41.17 41.17 0 0 1-36.68 40.79 57.93 57.93 0 0 0 3.95-9.37 34.2 34.2 0 0 0 25.44-33v-5.86a34.19 34.19 0 0 0-34.1-34.09h-3.74a58.14 58.14 0 0 0-4.2-8.48h8.33a40.31 40.31 0 0 1 4.12.21 7.17 7.17 0 0 0 .82 1.14l7.43 8.53a7.7 7.7 0 0 0 10.84.75l2.1-1.81a40.29 40.29 0 0 1 3.67 3.24 40.86 40.86 0 0 1 12.05 29zm-43.38-27.47h3l-2.33-7h1.29a27 27 0 0 1 18.13 7h1v.95a27 27 0 0 1 8 19.13v5.86a27 27 0 0 1-8 19.13 27.36 27.36 0 0 1-8.47 5.76 57.75 57.75 0 0 0 .86-9.91v-1.58a18.26 18.26 0 0 0 8.57-15.47v-2.1a18.22 18.22 0 0 0-5.36-12.9 17.82 17.82 0 0 0-2.2-1.87h-14.51zm-28.88 6.52 6.72 20.17a29.06 29.06 0 0 1 .31 17.34l-7.15-21.63 2.51-2-4.41-5.41-.46.38-1.12-3.49a20.87 20.87 0 0 0-25.56-13.54L226 229.83a17.18 17.18 0 0 0-11.84 21.22c0 .18.11.37.17.55l4.19 13.23a35.54 35.54 0 0 0-4.79 13.75 29.35 29.35 0 0 1-1.3-3.25l-6.71-20.17a28.86 28.86 0 0 1-1.49-9.16 29.56 29.56 0 0 1 5.46-17 29 29 0 0 1 13.57-10.49v4.11h3.44l-1.66-5 14.79-4.9.39 1.19c.55 0 1.11-.06 1.66-.06a29.48 29.48 0 0 1 17 5.42 29 29 0 0 1 10.72 14.63zM221 249.47a10 10 0 0 1-.49-3.11 10.21 10.21 0 0 1 2-6.09 10.11 10.11 0 0 1 5.39-3.71l14.46-4.11a13.9 13.9 0 0 1 17 9l1.95 5.91-2 1.64a35.74 35.74 0 0 0-10.17-1.47c-.94 0-1.89 0-2.8.12a11.35 11.35 0 0 0-5.89-1.66 10.85 10.85 0 0 0-3.1.44 11.22 11.22 0 0 0-7.44 6.74A34.69 34.69 0 0 0 226 256q-1.19 1.05-2.25 2.1zm2 21.92a28.5 28.5 0 0 1 7.55-10l-2.27-2.67 2.27 2.67a28.59 28.59 0 0 1 18.57-6.84 29.67 29.67 0 0 1 3.12.18l-26.84 21.61 2.19 2.72 2.2 2.73 26.59-21.48a28.68 28.68 0 0 1-28.59 26.58 29.36 29.36 0 0 1-7.28-.93c-.08-.9-.13-1.8-.13-2.7a28.76 28.76 0 0 1 2.62-11.87zM257.81 291l-8.39 2.8a29.14 29.14 0 0 1-9.16 1.49 29.53 29.53 0 0 1-9.41-1.57 35.68 35.68 0 0 0 32.68-35.59 32.84 32.84 0 0 0-.18-3.43l.33-.26 8.57 25.94a29.17 29.17 0 0 1-7.35 7.14l-1.49 4.81-5-1.55-.61.22zm-80.19-17.91 2.42 7.27h-17.67a27.19 27.19 0 0 1-27.09-27.1v-5.86a27.19 27.19 0 0 1 27.09-27.1h10.76c-.63 1.77-1.18 3.58-1.64 5.4a7.75 7.75 0 0 0-2.39-.37 7.6 7.6 0 0 0-5.06 1.89l-4.19 3.63a18.29 18.29 0 0 0-17.62 18.24v2.1a18.29 18.29 0 0 0 18.25 18.25h10.62l1.09-7h-11.68a11.3 11.3 0 0 1-11.26-11.25v-2.1a11.18 11.18 0 0 1 3.31-8l.33-.3a7.71 7.71 0 0 0 1.88 4.66l7.43 8.53a7.69 7.69 0 0 0 9.69 1.57c.25.9.51 1.8.81 2.69l.47 1.4 6.38 1zm-9.62 34.4a.8.8 0 0 1-.3-.06.58.58 0 0 1-.23-.18l-7.43-8.53a.58.58 0 0 1-.17-.45.77.77 0 0 1 .06-.3.55.55 0 0 1 .17-.23l8.53-7.43a.71.71 0 0 1 .75-.11.69.69 0 0 1 .24.18l7.43 8.53a.66.66 0 0 1 .17.45.77.77 0 0 1-.06.3.84.84 0 0 1-.18.23l-8.53 7.43a.66.66 0 0 1-.45.17zm15.76-15.92c.48 1.47 1 2.89 1.62 4.28h-2a7.53 7.53 0 0 0-1-1.54l-6-6.93h6.06zm-13.5-43.63-1.82 1.58a.71.71 0 0 1-.46.17.8.8 0 0 1-.3-.06.69.69 0 0 1-.24-.18l-7.44-8.51a.71.71 0 0 1-.17-.46.66.66 0 0 1 .07-.3.53.53 0 0 1 .16-.23l8.54-7.41a.69.69 0 0 1 .46-.17.73.73 0 0 1 .29.07.56.56 0 0 1 .24.17l.49.57a57.65 57.65 0 0 0 .16 14.79zm61.07-67.07a21.11 21.11 0 0 1-3.1 25.34l.2-20.36h-4.9l-.21 20.74a21.15 21.15 0 0 1 2.29-32.06 21.16 21.16 0 0 1 5.72 6.41zm-29.2 6.59c-1.46.72-2.88 1.51-4.26 2.35l1.73-3a.69.69 0 0 1 .26-.25.67.67 0 0 1 .36-.09.63.63 0 0 1 .33.09l.21.11zm108.1 53.7a11.21 11.21 0 0 1 3.31 8v2.1a11.18 11.18 0 0 1-2.47 7 56.68 56.68 0 0 0-2.1-8.3l-3.88-11.67a11.24 11.24 0 0 1 5.14 2.93zM304 311.82a38.4 38.4 0 0 1-16.09 8.29l3.31-2.91a7.77 7.77 0 0 0 2-2.67 7.88 7.88 0 0 0 .66-3.13v-.66a58.39 58.39 0 0 0 4.55-4.89l.63-.52 1-.88c.61-.53 1.2-1.09 1.77-1.66a47.77 47.77 0 0 0 11.7-1.68 38.81 38.81 0 0 1-7.78 9.21zm-43.83 22.69a21.18 21.18 0 0 1 2.3-9.56l5.81 19.54 2.35-.7 2.34-.7-5.97-19.88a21.14 21.14 0 0 1 7.29 31.31 21.51 21.51 0 0 1-7.36-4.41 21 21 0 0 1-5.86-9.31 21 21 0 0 1-.95-6.25z" transform="translate(-79.55 -77.89)" style="fill:#fe4c00"/><path style="fill:#ffd617" d="m162.4 141.53-1.81-5.46-.39-1.18-14.79 4.91 1.66 5.01.55 1.63 14.78-4.91zm-51.85-2.51.78.55 5.73 4.06 6.2 4.4 4.05-5.72-6.24-4.41-5.73-4.06-.75-.53-4.04 5.71z"/></g></svg>