<svg data-name="Layer 3" xmlns="http://www.w3.org/2000/svg" viewBox="0 0 231.39 330.63"><path style="fill:#fff" d="M3.56 3.56h224.26v287.65H3.56z"/><path style="fill:#fe4c00" d="M227.83 291.22v-3.57H7.13V7.13h217.13v284.09h3.57v-3.57 3.57h3.56V0H0v294.78h231.39v-3.56h-3.56z"/><path style="fill:#fff" d="M3.56 291.22h224.26v15.74H3.56z"/><path style="fill:#fe4c00" d="M227.83 291.22v-3.57H0v22.87h231.39v-22.87h-3.56v3.57h-3.57v12.17H7.13v-8.61h220.7v-3.56h-3.57 3.57z"/><path d="M147 84v93.77a23.87 23.87 0 0 0 7.26 17.11 24.86 24.86 0 0 0 17.45 7.06 17.82 17.82 0 0 1 12.46 5 16.72 16.72 0 0 1 5.12 12v148.3h7.13V219a23.82 23.82 0 0 0-7.27-17.11 24.87 24.87 0 0 0-17.44-7.07 17.79 17.79 0 0 1-12.43-5.06 16.8 16.8 0 0 1-5.12-12V84z" transform="translate(-124.17 -78.18)" style="fill:#ffd617"/><path d="M168.17 84v77.53A23.44 23.44 0 0 0 191.62 185 16.32 16.32 0 0 1 208 201.27v166h7.13v-166a23.43 23.43 0 0 0-23.43-23.45 16.33 16.33 0 0 1-16.32-16.34V84zM239 367.27V232.9a14.91 14.91 0 0 1 29.81 0v134.37H276V232.9a22 22 0 1 0-44.07 0v134.37zm58.12 0v-15a17.18 17.18 0 0 1 17.18-17.18 24.28 24.28 0 0 0 24.3-24.28V84h-7.13v226.77A17.16 17.16 0 0 1 314.33 328 24.3 24.3 0 0 0 290 352.26v15zm-167.26-94.55a11.78 11.78 0 0 1 11.78 11.78v82.77h7.13V284.5a18.91 18.91 0 0 0-18.91-18.91zm0-106.07a4.09 4.09 0 0 1 4.11 4.09v56.16a4.11 4.11 0 0 1-4.11 4.1v7.13a11.23 11.23 0 0 0 11.24-11.23v-56.15a11.23 11.23 0 0 0-11.24-11.23z" transform="translate(-124.17 -78.18)" style="fill:#ffd617"/><path style="fill:#fff" d="M24.48 306.95H63.7v20.12H24.48z"/><path style="fill:#fe4c00" d="M63.7 327.07v-3.57H28.05v-12.98h32.09v16.55h3.56v-3.57 3.57h3.57v-23.68H20.92v27.24h46.35v-3.56H63.7z"/><path style="fill:#fff" d="M162.15 306.95h39.22v20.12h-39.22z"/><path style="fill:#fe4c00" d="M201.37 327.07v-3.57h-35.66v-12.98h32.1v16.55h3.56v-3.57 3.57h3.57v-23.68h-46.36v27.24h46.36v-3.56h-3.57zm26.46-35.85v-3.57H7.13V7.13h217.13v284.09h3.57v-3.57 3.57h3.56V0H0v294.78h231.39v-3.56h-3.56z"/><rect x="26.79" y="45.57" width="158.77" height="50.31" rx="24.25" style="fill:#fff"/><path d="M285.5 174.05v-3.56H175.22a20.68 20.68 0 0 1-20.68-20.68V148a20.68 20.68 0 0 1 20.68-20.68H285.5A20.68 20.68 0 0 1 306.18 148v1.81a20.68 20.68 0 0 1-20.68 20.68v7.13a27.81 27.81 0 0 0 27.81-27.81V148a27.81 27.81 0 0 0-27.81-27.81H175.22A27.81 27.81 0 0 0 147.41 148v1.81a27.81 27.81 0 0 0 27.81 27.81H285.5z" transform="translate(-124.17 -78.18)" style="fill:#fe4c00"/><path d="M138.21 131.45a25.16 25.16 0 0 0 25.16 25.16 5.16 5.16 0 0 0 5.15-5.16 5.16 5.16 0 0 1 5.15-5.15h112.14a5.15 5.15 0 0 1 5.15 5.14 5.16 5.16 0 0 0 5.16 5.16 25.16 25.16 0 0 0 25.15-25.16 36.07 36.07 0 0 0-36.07-36.06H174.28a36.07 36.07 0 0 0-36.07 36.07z" transform="translate(-124.17 -78.18)" style="fill:#fff"/><path d="M138.21 131.45h-3.56a28.71 28.71 0 0 0 28.7 28.72 8.71 8.71 0 0 0 8.71-8.71 1.58 1.58 0 0 1 .47-1.12 1.52 1.52 0 0 1 1.12-.46h112.16a1.59 1.59 0 0 1 1.59 1.57 8.7 8.7 0 0 0 8.7 8.72 28.73 28.73 0 0 0 28.72-28.72 39.63 39.63 0 0 0-39.62-39.63H174.28a39.63 39.63 0 0 0-39.63 39.63h7.13A32.51 32.51 0 0 1 174.28 99H285.2a32.5 32.5 0 0 1 32.51 32.49A21.59 21.59 0 0 1 296.12 153a1.57 1.57 0 0 1-1.59-1.57 8.71 8.71 0 0 0-8.72-8.71H173.67a8.73 8.73 0 0 0-8.72 8.71 1.6 1.6 0 0 1-.46 1.13 1.53 1.53 0 0 1-1.12.46 21.59 21.59 0 0 1-21.6-21.58h-3.56z" transform="translate(-124.17 -78.18)" style="fill:#fe4c00"/><path d="M158.84 155.54a20.67 20.67 0 0 1 4.63-13.34 15.56 15.56 0 0 1 4.9-3.93 13 13 0 0 1 5.87-1.43H282.5a13 13 0 0 1 5.87 1.43 16.5 16.5 0 0 1 6.81 6.69 21.3 21.3 0 0 1 2.72 10.58v1.07h4.28v-1.07a25 25 0 0 0-5.64-16.1 19.9 19.9 0 0 0-6.25-5 17.32 17.32 0 0 0-7.79-1.86H174.28a17.39 17.39 0 0 0-7.85 1.85 20.83 20.83 0 0 0-8.61 8.41 25.61 25.61 0 0 0-3.27 12.69z" transform="translate(-124.17 -78.18)" style="fill:#fe4c00"/><path style="fill:#ffd617" d="m52.09 77.47 6.37 3.19 2.24-4.46-6.37-3.19m5.81 16.5 5.92-1.37-1.12-4.86-5.92 1.36m21.99-3.87 5.46 2.04 1.75-4.67-5.46-2.05"/><path style="fill:none" d="m94.17 89.12 4.55-2.04"/><path style="fill:#fe4c00" d="m95.63 92.37 4.55-2.04-2.92-6.5-4.55 2.04"/><path style="fill:none" d="m112.37 80.47 6.38-2.04"/><path style="fill:#fe4c00" d="m113.46 83.87 6.38-2.05-2.18-6.79-6.38 2.05"/><path style="fill:none" d="m155.62 88.1 8.84 2.16"/><path style="fill:#fe4c00" d="m155.02 90.52 8.84 2.16 1.19-4.84-8.84-2.17M85.09 17.2h38.99v78.67H85.09z"/><path style="fill:#fe4c00" d="M124.09 95.88v-3.57H88.65V20.77h31.87v75.11h3.57v-3.57 3.57h3.56V13.64H81.52v85.8h46.13v-3.56h-3.56z"/><path d="m330.5 164.09-101.32-.5-.05 49.41c1.21 13.68 22.66 33.6 50.62 33.65s50.73-18.25 50.75-33.51c.02-.54 0-49.05 0-49.05z" transform="translate(-124.17 -78.18)" style="fill:#fff"/><path d="M330.5 164.09v-3.56L225.61 160l-.05 53.16v.15c.39 4.28 2.25 8.56 5.11 12.74a55.4 55.4 0 0 0 19.4 16.68 63.43 63.43 0 0 0 29.66 7.49h.14a67.57 67.57 0 0 0 20.78-3.22 59.48 59.48 0 0 0 23.69-14 37.08 37.08 0 0 0 7-9.46 23.16 23.16 0 0 0 2.68-10.36v-52.64h-3.57v3.57h-3.56v49a14.54 14.54 0 0 1-.85 4.66 26 26 0 0 1-5.54 8.83 49.17 49.17 0 0 1-16.88 11.57 60.32 60.32 0 0 1-23.77 4.87h-.09a56 56 0 0 1-18.36-3.16 54.29 54.29 0 0 1-20.55-12.79 35.64 35.64 0 0 1-5.87-7.68 17.74 17.74 0 0 1-2.3-6.77l-3.57.31h3.57v-45.81l97.75.48v-3.57z" transform="translate(-124.17 -78.18)" style="fill:#fe4c00"/><path d="M330.58 163.77c-.05 20.49-22.78 37.08-50.78 37s-50.62-16.72-50.62-37.21 22.78-37.08 50.77-37 50.67 16.72 50.63 37.21z" transform="translate(-124.17 -78.18)" style="fill:#fff"/><path d="M330.58 163.77H327a25.16 25.16 0 0 1-3.52 12.63c-3.42 5.91-9.27 11.14-16.83 14.86a60.53 60.53 0 0 1-26.71 6h-.15c-13.28 0-25.24-4-33.69-10.23a35.73 35.73 0 0 1-9.87-10.69 25.14 25.14 0 0 1-3.5-12.67 25.13 25.13 0 0 1 3.57-12.69c3.42-5.9 9.26-11.14 16.84-14.86a60.37 60.37 0 0 1 26.65-5.94h.14c13.28 0 25.24 4 33.7 10.23a35.58 35.58 0 0 1 9.86 10.69 25.18 25.18 0 0 1 3.5 12.66h7.13a32.4 32.4 0 0 0-4.42-16.21c-4.28-7.39-11.25-13.47-19.84-17.74A67.67 67.67 0 0 0 280 123h-.18c-14.67 0-28 4.32-37.87 11.51a42.55 42.55 0 0 0-11.83 12.84 32.2 32.2 0 0 0-4.49 16.2v.07a32.33 32.33 0 0 0 4.45 16.21c4.28 7.39 11.24 13.47 19.83 17.74a67.79 67.79 0 0 0 29.91 6.76h.18c14.67 0 28-4.32 37.88-11.51A42.4 42.4 0 0 0 329.66 180a32.29 32.29 0 0 0 4.48-16.2z" transform="translate(-124.17 -78.18)" style="fill:#fe4c00"/><rect x="132.96" y="65.5" width="43.82" height="33.36" rx="16.08" style="fill:#ffd617"/><path d="M284.87 177v-3.56h-11.66A12.52 12.52 0 0 1 260.7 161v-1.2a12.51 12.51 0 0 1 12.51-12.51h11.66a12.52 12.52 0 0 1 12.52 12.51v1.2a12.54 12.54 0 0 1-12.52 12.52v7.13A19.66 19.66 0 0 0 304.52 161v-1.2a19.64 19.64 0 0 0-19.65-19.64h-11.66a19.64 19.64 0 0 0-19.64 19.64v1.2a19.64 19.64 0 0 0 19.64 19.65h11.66z" transform="translate(-124.17 -78.18)" style="fill:#fe4c00"/><rect x="147.39" y="75.96" width="28.88" height="21.41" rx="10.32" style="fill:#ffd617"/><path d="M290.13 175.55V172h-8.24a6.78 6.78 0 0 1-6.76-6.76v-.77a6.76 6.76 0 0 1 6.76-6.76h8.24a6.76 6.76 0 0 1 6.76 6.75v.77a6.78 6.78 0 0 1-6.76 6.76v7.13A13.92 13.92 0 0 0 304 165.23v-.77a13.89 13.89 0 0 0-13.89-13.88h-8.26A13.9 13.9 0 0 0 268 164.46v.77a13.92 13.92 0 0 0 13.89 13.89h8.24z" transform="translate(-124.17 -78.18)" style="fill:#fe4c00"/><path d="M281.94 150.58a21.34 21.34 0 0 0-3.38.39 29.35 29.35 0 0 0-11.65 4.81 24.66 24.66 0 0 0-6 6.07 27.18 27.18 0 0 0-4.08 9.34l6.93 1.65a19.31 19.31 0 0 1 4.34-8.6 18 18 0 0 1 4.54-3.65 22.27 22.27 0 0 1 6.65-2.49c.7-.15 1.42-.27 2.13-.35l.57-.05h.12l-.17-7.12z" transform="translate(-124.17 -78.18)" style="fill:#fe4c00"/><path style="fill:#ffd617" d="m120.5 72.47-2.99 3.98 4 3 2.98-3.99m7.98-12.99 4.98 1 .98-4.9-4.98-.99m-25.13 31.5 3.48 1.99 2.48-4.34-3.49-1.98"/><path style="fill:none" d="m127.48 92.39-3.98 3.48"/><path style="fill:#ffd617" d="M125.83 90.51 121.85 94l3.29 3.75 3.98-3.48"/><path style="fill:none" d="m185.24 97.37-3.99 3.48"/><path style="fill:#ffd617" d="m183.59 95.49-3.98 3.49 3.29 3.75 3.98-3.48"/><path style="fill:none" d="m142.92 108.82 3.98 1.99"/><path style="fill:#ffd617" d="m141.8 111.05 3.98 1.99 2.23-4.46-3.98-1.99"/><path style="fill:none" d="m181.25 64 5.48 5.49"/><path style="fill:#ffd617" d="m179.49 65.77 5.48 5.48 3.53-3.53-5.48-5.48"/><path style="fill:none" d="m195.2 77.95-2.99 2.99"/><path style="fill:#ffd617" d="m193.43 76.18-2.99 2.99 3.53 3.53 2.99-2.99"/><rect x="40.56" y="173.38" width="158.77" height="50.31" rx="24.25" style="fill:#fff"/><path d="M299.25 301.87v-3.57H189a20.67 20.67 0 0 1-20.67-20.67v-1.79A20.68 20.68 0 0 1 189 255.16h110.25a20.67 20.67 0 0 1 20.67 20.68v1.8a20.67 20.67 0 0 1-20.67 20.68v7.13a27.81 27.81 0 0 0 27.8-27.81v-1.8a27.81 27.81 0 0 0-27.8-27.84H189a27.81 27.81 0 0 0-27.8 27.81v1.8a27.81 27.81 0 0 0 27.8 27.84h110.25z" transform="translate(-124.17 -78.18)" style="fill:#fe4c00"/><path d="M152 259.26a25.16 25.16 0 0 0 25.15 25.13 5.15 5.15 0 0 0 5.15-5.15 5.17 5.17 0 0 1 5.15-5.16h112.13a5.16 5.16 0 0 1 5.15 5.16 5.15 5.15 0 0 0 5.16 5.15A25.15 25.15 0 0 0 335 259.24a36.06 36.06 0 0 0-36-36.07H188a36.07 36.07 0 0 0-36 36.06z" transform="translate(-124.17 -78.18)" style="fill:#fff"/><path d="M152 259.26h-3.56A28.72 28.72 0 0 0 177.13 288a8.73 8.73 0 0 0 8.72-8.72 1.56 1.56 0 0 1 .46-1.13 1.57 1.57 0 0 1 1.12-.46h112.15a1.56 1.56 0 0 1 1.12.46 1.61 1.61 0 0 1 .47 1.13 8.73 8.73 0 0 0 8.72 8.72 28.72 28.72 0 0 0 28.71-28.73 39.62 39.62 0 0 0-39.6-39.66H188a39.62 39.62 0 0 0-39.62 39.62h7.13A32.49 32.49 0 0 1 188 226.74h111a32.49 32.49 0 0 1 32.49 32.49 21.58 21.58 0 0 1-21.58 21.6 1.6 1.6 0 0 1-1.59-1.59 8.72 8.72 0 0 0-8.71-8.72H187.44a8.71 8.71 0 0 0-8.71 8.71 1.58 1.58 0 0 1-.47 1.12 1.61 1.61 0 0 1-1.13.47 21.59 21.59 0 0 1-21.59-21.59z" transform="translate(-124.17 -78.18)" style="fill:#fe4c00"/><path d="M173.32 283.52A14.69 14.69 0 0 1 188 268.84h108.27A14.69 14.69 0 0 1 311 283.52v.87h5.71v-.89a20.41 20.41 0 0 0-20.4-20.4H188a20.41 20.41 0 0 0-20.39 20.4z" transform="translate(-124.17 -78.18)" style="fill:#fe4c00"/><path d="M180.81 222.82a13.4 13.4 0 0 0-.07 1.55 22.18 22.18 0 0 0 1.71 8.35 26.85 26.85 0 0 0 8.79 11.18 17.74 17.74 0 0 1 4.23 4.7 24.94 24.94 0 0 1 3.16 8.29 34.9 34.9 0 0 1 .71 6.84v1.98l.9.08-.9-.08.9.08-.9-.09 5.7.56c0-.08.1-1 .1-2.54a39.22 39.22 0 0 0-1.62-11.29 29.17 29.17 0 0 0-3.08-6.86 23.54 23.54 0 0 0-5.6-6.21 21.21 21.21 0 0 1-7-8.8 16.89 16.89 0 0 1-1.28-6.2v-.8l-1.49-.18 1.48.2-1.49-.17 1.49.2-5.66-.76zm61.42 42.84a42.77 42.77 0 0 0-3.67-12.25 29.73 29.73 0 0 0-6.65-9.21 22.17 22.17 0 0 0-11.9-5.61 24.41 24.41 0 0 1-9.63-3.49 26.08 26.08 0 0 1-9.67-11.55c-.17-.4-.3-.71-.37-.92l-.08-.23-1.59.5 1.6-.49-1.6.49 1.61-.49-5.46 1.59a30.4 30.4 0 0 0 5 9.12 29.57 29.57 0 0 0 19.33 11.08 16.67 16.67 0 0 1 5 1.51 18.1 18.1 0 0 1 6.28 5.24 31.46 31.46 0 0 1 5 10.16c.46 1.53.71 2.85.92 3.78.09.46.14.82.18 1.06v.33l1.07-.13-1.07.12 1.07-.13-1.07.12 5.67-.64zm-12.87-41.73a24.33 24.33 0 0 0 4.13 7.85 28.09 28.09 0 0 0 6.42 6.08 30.81 30.81 0 0 0 10.43 4.52 24.73 24.73 0 0 1 8.67 3.87 25.93 25.93 0 0 1 9.94 14.5 18.4 18.4 0 0 1 .61 4.42v.67l5.7.32v-1a25.44 25.44 0 0 0-1.38-7.87 32.16 32.16 0 0 0-7.49-12.23 30.29 30.29 0 0 0-14.73-8.23 25 25 0 0 1-8.52-3.67 22.25 22.25 0 0 1-6.66-7.13 19 19 0 0 1-1.29-2.64c-.13-.31-.22-.56-.27-.71v-.16l-1.11.31 1.12-.3-1.11.32 1.12-.3-5.56 1.45z" transform="translate(-124.17 -78.18)" style="fill:#fe4c00"/><path d="M236.62 223.83a8.36 8.36 0 0 0 1.1 2.48 20 20 0 0 0 8.09 6.88c4.52 2.33 11.1 4.4 20.84 5.37a26.93 26.93 0 0 1 13.81 5.19 29.86 29.86 0 0 1 6.55 6.91 41.12 41.12 0 0 1 5.19 10.76c.49 1.51.8 2.78 1 3.65.1.44.17.78.2 1s0 .19.05.24v.06l1.17-.18-1.17.17 1.17-.18-1.17.18 5.64-.83a47.43 47.43 0 0 0-5.55-15.2 36.78 36.78 0 0 0-9.66-11.15 32.59 32.59 0 0 0-16.67-6.34 63.56 63.56 0 0 1-14.33-2.84c-5.27-1.81-8-3.94-9.34-5.44a7.66 7.66 0 0 1-1.23-1.71c-.06-.12-.11-.24-.16-.36l-1.47.43 1.5-.34v-.09l-1.47.43 1.5-.34-5.56 1.26zm-79.08 11.65a38 38 0 0 0-1.09 9.32 34.36 34.36 0 0 0 .71 7.37A25.39 25.39 0 0 0 163 263.8a27.74 27.74 0 0 0 14.25 8.12l1.43-5.52a24.52 24.52 0 0 1-8.55-3.87 18.24 18.24 0 0 1-6.38-8.42 26.61 26.61 0 0 1-1.57-9.27 35.72 35.72 0 0 1 .47-5.66c.12-.71.24-1.26.32-1.62 0-.19.08-.33.1-.41v-.1l-.82-.23.82.23-.82-.23.82.23-5.5-1.52z" transform="translate(-124.17 -78.18)" style="fill:#fe4c00"/><path style="fill:#ffd617" d="m65.86 205.29 6.37 3.19 2.24-4.48-6.37-3.18"/><path style="fill:#fe4c00" d="m73.92 217.32 5.91-1.36-1.12-4.87-5.92 1.36"/><path style="fill:#ffd617" d="m94.78 208.57 5.46 2.05 1.75-4.67-5.46-2.04"/><path style="fill:none" d="m107.94 216.94 4.55-2.05"/><path style="fill:#ffd617" d="m112.27 217.49 4.54-2.05-2.04-4.55-4.56 2.05"/><path style="fill:none" d="m126.15 208.29 6.36-2.05"/><path style="fill:#ffd617" d="m137.31 211.68 6.37-2.04-1.53-4.75-6.37 2.05"/><path style="fill:none" d="m169.38 215.91 8.84 2.16"/><path style="fill:#ffd617" d="m168.2 213.95 8.84 2.17 1.18-4.85-8.84-2.17"/><path d="M296.15 222.79a28.49 28.49 0 0 0-.22 3.7 30.11 30.11 0 0 0 1.71 10.26 20.49 20.49 0 0 0 3.13 5.66 18 18 0 0 0 5.51 4.68 7.44 7.44 0 0 1 2.14 1.76 9.91 9.91 0 0 1 1.95 3.87 19.16 19.16 0 0 1 .61 5.06 36.35 36.35 0 0 1-1.24 9 32.23 32.23 0 0 1-1.05 3.29c-.13.35-.28.69-.44 1a2.68 2.68 0 0 1-.14.29v.06l.43.28-.41-.3.43.29-.42-.3 4.64 3.31a6.94 6.94 0 0 0 .68-1.18 29.47 29.47 0 0 0 1.09-2.74 43.42 43.42 0 0 0 2.23-13.08 22.75 22.75 0 0 0-1.54-8.71 15.12 15.12 0 0 0-2.38-3.92 13.34 13.34 0 0 0-3.75-3.06 12.35 12.35 0 0 1-3.8-3.21 16.45 16.45 0 0 1-2.92-6.32 26.45 26.45 0 0 1-.71-6.08c0-.9 0-1.64.08-2.13a3.07 3.07 0 0 1 .06-.57v-.14l-1.73-.24 1.73.25-1.73-.25 1.73.25-5.65-.82z" transform="translate(-124.17 -78.18)" style="fill:#fe4c00"/><path d="M229.8 309c0 10.4-14.19 38-35.29 38h-23c-18.68-.4-34.18-30.22-34.18-38 0-10.41 20.67-18.84 46.25-18.84s46.22 8.4 46.22 18.84z" transform="translate(-124.17 -78.18)" style="fill:#fff"/><path d="M229.8 309h-3.56a16.5 16.5 0 0 1-.55 3.77 43.5 43.5 0 0 1-3.78 9.59 49.42 49.42 0 0 1-11.41 14.6 29.51 29.51 0 0 1-7.57 4.75 21.55 21.55 0 0 1-8.41 1.75h-23.05V347l.08-3.56a16.41 16.41 0 0 1-5.61-1.18 30.41 30.41 0 0 1-9.63-6.57A63.45 63.45 0 0 1 145 320.28a52.33 52.33 0 0 1-3.15-7.1 23.74 23.74 0 0 1-.78-2.65 7.43 7.43 0 0 1-.22-1.56 4.7 4.7 0 0 1 .56-2.2 9.17 9.17 0 0 1 1.64-2.23 22.44 22.44 0 0 1 5.9-4.12 58.45 58.45 0 0 1 14.86-4.87 101.69 101.69 0 0 1 19.69-1.89 104.6 104.6 0 0 1 17.5 1.43 74.32 74.32 0 0 1 10.89 2.69 34.68 34.68 0 0 1 11.1 5.7 11 11 0 0 1 2.58 2.95 5 5 0 0 1 .71 2.5h7.13a11.9 11.9 0 0 0-1.33-5.36 16.24 16.24 0 0 0-2.9-4 29 29 0 0 0-7.76-5.5 64.92 64.92 0 0 0-16.71-5.51 108.53 108.53 0 0 0-21.12-2 110.38 110.38 0 0 0-18.6 1.54A79 79 0 0 0 153 291a41.37 41.37 0 0 0-13.44 7 18.38 18.38 0 0 0-4.18 4.87 12.16 12.16 0 0 0-1.65 6 13.28 13.28 0 0 0 .24 2.35 31.09 31.09 0 0 0 1.42 4.92 70.34 70.34 0 0 0 17.78 26.21 36.84 36.84 0 0 0 8.45 5.71 24.22 24.22 0 0 0 9.81 2.43h23.12a28.38 28.38 0 0 0 8.67-1.38 36 36 0 0 0 12.7-7.48 57.53 57.53 0 0 0 12.77-16.9 52.45 52.45 0 0 0 3.45-8.49 31.58 31.58 0 0 0 .93-3.84 20.45 20.45 0 0 0 .34-3.5z" transform="translate(-124.17 -78.18)" style="fill:#fe4c00"/><path d="M229.8 309c0 10.4-14.19 38-35.29 38h-23c-18.68-.4-34.18-30.22-34.18-38 0-10.41 20.67-18.84 46.25-18.84s46.22 8.4 46.22 18.84z" transform="translate(-124.17 -78.18)" style="fill:#fff"/><path d="M229.8 309h-3.56a16.5 16.5 0 0 1-.55 3.77 43.5 43.5 0 0 1-3.78 9.59 49.42 49.42 0 0 1-11.41 14.6 29.51 29.51 0 0 1-7.57 4.75 21.55 21.55 0 0 1-8.41 1.75h-23.05V347l.08-3.56a16.41 16.41 0 0 1-5.61-1.18 30.41 30.41 0 0 1-9.63-6.57A63.45 63.45 0 0 1 145 320.28a52.33 52.33 0 0 1-3.15-7.1 23.74 23.74 0 0 1-.78-2.65 7.43 7.43 0 0 1-.22-1.56 4.7 4.7 0 0 1 .56-2.2 9.17 9.17 0 0 1 1.64-2.23 22.44 22.44 0 0 1 5.9-4.12 58.45 58.45 0 0 1 14.86-4.87 101.69 101.69 0 0 1 19.69-1.89 104.6 104.6 0 0 1 17.5 1.43 74.32 74.32 0 0 1 10.89 2.69 34.68 34.68 0 0 1 11.1 5.7 11 11 0 0 1 2.58 2.95 5 5 0 0 1 .71 2.5h7.13a11.9 11.9 0 0 0-1.33-5.36 16.24 16.24 0 0 0-2.9-4 29 29 0 0 0-7.76-5.5 64.92 64.92 0 0 0-16.71-5.51 108.53 108.53 0 0 0-21.12-2 110.38 110.38 0 0 0-18.6 1.54A79 79 0 0 0 153 291a41.37 41.37 0 0 0-13.44 7 18.38 18.38 0 0 0-4.18 4.87 12.16 12.16 0 0 0-1.65 6 13.28 13.28 0 0 0 .24 2.35 31.09 31.09 0 0 0 1.42 4.92 70.34 70.34 0 0 0 17.78 26.21 36.84 36.84 0 0 0 8.45 5.71 24.22 24.22 0 0 0 9.81 2.43h23.12a28.38 28.38 0 0 0 8.67-1.38 36 36 0 0 0 12.7-7.48 57.53 57.53 0 0 0 12.77-16.9 52.45 52.45 0 0 0 3.45-8.49 31.58 31.58 0 0 0 .93-3.84 20.45 20.45 0 0 0 .34-3.5z" transform="translate(-124.17 -78.18)" style="fill:#fe4c00"/><path d="M183.5 327.81c21.48 0 39.54-6 44.75-14.05-5.21-8.08-23.27-14-44.75-14s-39.53 6-44.74 14c5.24 8.09 23.24 14.05 44.74 14.05z" transform="translate(-124.17 -78.18)" style="fill:#fe4c00"/><path d="M183.5 327.81v3.57a99.44 99.44 0 0 0 29.56-4.16 50.35 50.35 0 0 0 10.88-4.81 22.36 22.36 0 0 0 7.3-6.72l1.24-1.93-1.24-1.92a22.36 22.36 0 0 0-7.3-6.72 57.27 57.27 0 0 0-17.44-6.57 106.44 106.44 0 0 0-23-2.4 99 99 0 0 0-29.5 4.17 49.91 49.91 0 0 0-10.89 4.8 22.4 22.4 0 0 0-7.28 6.72l-1.25 1.92 1.25 1.93a22.36 22.36 0 0 0 7.3 6.72c4.61 2.85 10.56 5 17.44 6.57a107.07 107.07 0 0 0 23 2.4v-7.13a91.54 91.54 0 0 1-27.4-3.83 43.19 43.19 0 0 1-9.32-4.09 15.8 15.8 0 0 1-5-4.49l-3 1.92 3 1.93a15.69 15.69 0 0 1 5-4.49 52.07 52.07 0 0 1 15.27-5.71 99.15 99.15 0 0 1 21.45-2.23 92.44 92.44 0 0 1 27.39 3.83 43.44 43.44 0 0 1 9.32 4.08 15.84 15.84 0 0 1 5 4.5l3-1.93-3-1.92a15.8 15.8 0 0 1-5 4.49A51.59 51.59 0 0 1 205 322a99.06 99.06 0 0 1-21.44 2.23z" transform="translate(-124.17 -78.18)" style="fill:#fe4c00"/><path style="fill:#fe4c00" d="M74.07 272.47v-3.57H49.42v-.18h-3.57v3.57h24.66v.18h3.56v-3.57 3.57h3.57v-7.31H42.29v10.87h35.35v-3.56h-3.57z"/></svg>