<svg data-name="Layer 6" xmlns="http://www.w3.org/2000/svg" viewBox="0 0 355.64 326.77"><circle cx="179.42" cy="167.21" r="158.37" style="fill:#fff"/><path d="M345.47 86a11 11 0 0 0-4.64 2.23l-15.29 12.64a164 164 0 0 1 63 72.49l13.32-11a10.92 10.92 0 0 0 3.08-4.13 13.9 13.9 0 0 0 1.1-5.51 19.82 19.82 0 0 0-4.72-12.5L362.46 93a20.52 20.52 0 0 0-8.35-6.17 14.94 14.94 0 0 0-8.64-.83zM86.58 297.61l-13 10.73a10 10 0 0 0-2.86 3.91 13.49 13.49 0 0 0-1 5.36 20.48 20.48 0 0 0 4.9 12.48l38.88 47.2a21.36 21.36 0 0 0 8.35 6.27 14.78 14.78 0 0 0 8.41 1 10 10 0 0 0 4.39-2.07l11-9.09a164 164 0 0 1-59.07-75.79z" transform="translate(-60.09 -76.06)" style="fill:none"/><path d="M254.21 84.93a155.32 155.32 0 1 0 104.92 55.85 155.31 155.31 0 0 0-104.92-55.85zm73.72 266.21a136.67 136.67 0 0 1-216.47-149 133.15 133.15 0 0 1 215.15-63.13 136.8 136.8 0 0 1 1.32 212.09z" transform="translate(-60.09 -76.06)" style="fill:#fff"/><path d="M326.61 139.05a133.14 133.14 0 1 1-219.89 87.64 133 133 0 0 1 4.72-24.53 136.69 136.69 0 1 0 235.1-43.43 138.34 138.34 0 0 0-19.93-19.68z" transform="translate(-60.09 -76.06)" style="fill:#ffd617"/><path d="M136.49 324.15A133.13 133.13 0 0 0 342 154.87a133.15 133.15 0 0 0-230.56 47.28 134.54 134.54 0 0 0-4.72 24.53 132.79 132.79 0 0 0 29.77 97.47zm23.21-181.22a125.12 125.12 0 1 1-45 84.54 125.12 125.12 0 0 1 45-84.54z" transform="translate(-60.09 -76.06)" style="fill:#fe4c00"/><path d="M352.9 76.51a23.43 23.43 0 0 0-9.51.08 20.51 20.51 0 0 0-8.67 4.2l-18.07 14.86A163.38 163.38 0 0 0 83.24 287.89l-15.8 13a19.82 19.82 0 0 0-5.62 7.62 24.22 24.22 0 0 0-1.21 14 30.92 30.92 0 0 0 6.57 13.7l38.87 47.2a30.07 30.07 0 0 0 16.77 10.47 23.05 23.05 0 0 0 9.36.08 19.7 19.7 0 0 0 8.55-4.06l13.38-11a163.38 163.38 0 0 0 238.3-196.25L408 169.78a20.62 20.62 0 0 0 5.78-7.71 24.52 24.52 0 0 0 1.49-14.13 30.23 30.23 0 0 0-6.5-13.8l-38.85-47.21a29.48 29.48 0 0 0-17.02-10.42zM338 359.4a155.29 155.29 0 1 1 55.85-104.93A155.3 155.3 0 0 1 338 359.4zm-203.39 23.07a9.92 9.92 0 0 1-4.38 2.07 14.78 14.78 0 0 1-8.41-1 21.36 21.36 0 0 1-8.35-6.27l-38.86-47.2a20.48 20.48 0 0 1-4.88-12.48 13.49 13.49 0 0 1 1-5.36 10 10 0 0 1 2.87-3.91l13-10.73a164.12 164.12 0 0 0 59.07 75.77zM401.35 140.2a19.82 19.82 0 0 1 4.72 12.5 14 14 0 0 1-1.1 5.52 10.88 10.88 0 0 1-3.08 4.12l-13.32 11a164 164 0 0 0-63-72.49l15.29-12.64a11 11 0 0 1 4.64-2.23 14.94 14.94 0 0 1 8.64.88 20.56 20.56 0 0 1 8.34 6.14z" transform="translate(-60.09 -76.06)" style="fill:#fe4c00"/><path d="M258.41 270.08a3 3 0 0 0-.67-1.82 2.17 2.17 0 0 0-.41-.39l-3.18 8.52 3.6-4.46a2.91 2.91 0 0 0 .66-1.85zm-16.19 13.43c.21.06.42.14.63.22l7.43-19.86a2.81 2.81 0 0 0 .14-1.49 2.91 2.91 0 0 0-2.23-2.33 2.86 2.86 0 0 0-2.5.59 2.92 2.92 0 0 0-.7.83 3 3 0 0 0-.34 1.08zm.1 10.49a3.88 3.88 0 0 0-1.92-2.61l-2.87 5.36c.79.31 1.61.67 2.45 1.07.49.24 1 .51 1.48.79l.8-2.69a3.91 3.91 0 0 0 .06-1.92z" transform="translate(-60.09 -76.06)" style="fill:#fff"/><path d="M214.08 302s-10.68 11.89-22.43 7.58c0 0-7 5.66-2.3 8.73s23-5 25.28-9.78-.55-6.53-.55-6.53zm1.55-10.68s-14.52 6.83-21.47-1.62 2.15-29.78 8.85-31.22 9.76 1.27 9.76 1.27zm.03 20.48s-4 17.24-16.72 20.71l12.75 8.5 8.18-14.63.07-14.06zm7.34.94s6.91 16 3 23.05 12-13.06 12-13.06l-12.41-12.14zm3.81-7.82s11 4.65 13.11 9.36 3.28-12.88 3.28-12.88l-10.32-4.5z" transform="translate(-60.09 -76.06)" style="fill:#ffd617"/><path d="M190.61 332.42a31.29 31.29 0 0 0 18.59 10.91 29.39 29.39 0 0 0 33.41-20.57l7.31-24.53a12 12 0 0 0 .44-4.46L264 277a10.92 10.92 0 0 0-6.05-17.52 10.93 10.93 0 0 0-13-7.23 11.12 11.12 0 0 0-4.34 2.18 11 11 0 0 0-3.9 7.16l-3 25.28-11.68 21.82-.1.26-.1.14-.14.06h-.16a3.25 3.25 0 0 1-2.23-2.82L215.13 255l-7.46-1.6a10 10 0 0 0-4.94.23 12.6 12.6 0 0 0-4.29 2.36 21.41 21.41 0 0 0-4.44 5.21 46 46 0 0 0-4.89 11.69 91 91 0 0 0-2.9 15.95l-2.49 19.71a31.26 31.26 0 0 0 6.9 23.86zm54.39-71a3 3 0 0 1 .7-.84 2.88 2.88 0 0 1 2.51-.59 2.93 2.93 0 0 1 2.23 2.33 2.8 2.8 0 0 1-.14 1.49l-7.44 19.86-.63-.22 2.43-20.93a3.05 3.05 0 0 1 .34-1.11zm-11.27 42.48.9.35a23.15 23.15 0 0 1 2.89 1.37 8.08 8.08 0 0 1 1.49 1.1l-2.44 8.18-.19-.25a27.75 27.75 0 0 0-5.69-5.13zm-38.79 20.83.82-.13a33 33 0 0 0 15.45-7.14 37.53 37.53 0 0 0 3.55-3.36 11 11 0 0 0 2 1.55 26.76 26.76 0 0 1-.22 6.26 22 22 0 0 1-3.47 8.92 21.22 21.22 0 0 1-3.81 4.33 23.22 23.22 0 0 1-12.44-7.8 24.14 24.14 0 0 1-1.86-2.64zm24.87 10.4a28.33 28.33 0 0 0 1.84-3.21 30.33 30.33 0 0 0 2.77-8.71 33.62 33.62 0 0 0 .39-6.65 6.94 6.94 0 0 0 1.13-.55 20.09 20.09 0 0 1 4.25 3.77 10.7 10.7 0 0 1 1.89 3.16 7.74 7.74 0 0 1 .52 2.73 21.36 21.36 0 0 1-12.6 9.41zm34.34-58.72 3.18-8.52a2.54 2.54 0 0 1 .41.39 3 3 0 0 1 .67 1.82 2.86 2.86 0 0 1-.66 1.86zm-62.5 33.17.64-5.05a25.19 25.19 0 0 0 8.38 1.87 22.71 22.71 0 0 0 8-1.07 24.28 24.28 0 0 0 2.49-1l.12 1.42a31 31 0 0 1-5.2 5.53 24.91 24.91 0 0 1-11.71 5.43 21.18 21.18 0 0 1-2.51.28 23.58 23.58 0 0 1-.23-7.45zm16-48.05 2.77 34a16.14 16.14 0 0 1-6.05 2.56 15 15 0 0 1-5 .09 18.62 18.62 0 0 1-5.81-1.9 1.3 1.3 0 0 1-.26-.14l.81-6.42v-.06a74.3 74.3 0 0 1 3.89-18.37 32.32 32.32 0 0 1 2.78-5.85 13.59 13.59 0 0 1 2.73-3.31 4.61 4.61 0 0 1 1.49-.89 2 2 0 0 1 1-.06l.82-3.91-.82 3.91z" transform="translate(-60.09 -76.06)" style="fill:#fe4c00"/><path style="fill:#fe4c00" d="m137.46 205.85 2.79.27 2.79.27.39-4.02-5.58-.54-.39 4.02z"/><path d="M267.27 169.75s10.68-11.89 22.43-7.57c0 0 7-5.66 2.3-8.74s-23 5-25.28 9.79.55 6.52.55 6.52zm-1.55 10.66s14.53-6.83 21.47 1.62-2.14 29.78-8.85 31.22-9.76-1.25-9.76-1.25zm-.03-20.41s4-17.24 16.72-20.72l-12.75-8.49-8.18 14.63-.07 14.05zm-7.28-1s-6.92-16-3-23.05S243.35 149 243.35 149l12.41 12.14zm-3.87 7.84s-11-4.66-13.11-9.36-3.28 12.89-3.28 12.89l10.33 4.46z" transform="translate(-60.09 -76.06)" style="fill:#ffd617"/><path d="M290.74 139.32a31.35 31.35 0 0 0-18.58-10.91A29.39 29.39 0 0 0 238.75 149l-7.31 24.53a12.18 12.18 0 0 0-.44 4.46l-13.61 16.77a10.91 10.91 0 0 0 1.61 15.3 12.7 12.7 0 0 0 1.19.84 10.67 10.67 0 0 0 3.26 1.33 10.92 10.92 0 0 0 21.22-2.12l3-25.28L259.3 163l.1-.26.1-.13.15-.07h.15a3.2 3.2 0 0 1 1.49 1 3.37 3.37 0 0 1 .74 1.81l4.18 51.38 7.5 1.58a10 10 0 0 0 5-.23 12.76 12.76 0 0 0 4.28-2.37 21.37 21.37 0 0 0 4.46-5.25 46.12 46.12 0 0 0 4.92-11.7 88.88 88.88 0 0 0 2.9-15.94l2.4-19.65a31.4 31.4 0 0 0-6.88-23.86zm-54.39 71a3 3 0 0 1-.7.84 2.86 2.86 0 0 1-2.5.59 2.8 2.8 0 0 1-1.59-1 2.85 2.85 0 0 1-.63-1.35 3 3 0 0 1 .14-1.53l7.44-19.87a5.83 5.83 0 0 0 .63.22l-2.48 21a3 3 0 0 1-.31 1.07zm11.28-42.45-.91-.35a20.63 20.63 0 0 1-2.89-1.37 8.08 8.08 0 0 1-1.49-1.1l2.44-8.18.19.25a27.27 27.27 0 0 0 5.7 5.13zM286.41 147l-.81.13a33 33 0 0 0-15.49 7.14 36.25 36.25 0 0 0-3.54 3.36 11.44 11.44 0 0 0-2-1.55 26.76 26.76 0 0 1 .23-6.26 22.17 22.17 0 0 1 3.46-8.92 21.26 21.26 0 0 1 3.81-4.33 23.24 23.24 0 0 1 12.45 7.8 24.59 24.59 0 0 1 1.89 2.63zm-24.86-10.4a26.19 26.19 0 0 0-1.85 3.21 30.39 30.39 0 0 0-2.77 8.72 33.42 33.42 0 0 0-.38 6.63 9.07 9.07 0 0 0-1.13.55 19.83 19.83 0 0 1-4.26-3.76 11.15 11.15 0 0 1-1.89-3.16 7.73 7.73 0 0 1-.51-2.73 21.34 21.34 0 0 1 12.63-9.41zm-34.34 58.72-3.21 8.55a2.78 2.78 0 0 1-1.08-2.21 3 3 0 0 1 .66-1.87zm62.49-33.14-.64 5.05a25.14 25.14 0 0 0-8.38-1.87 22.75 22.75 0 0 0-8 1.09 20.36 20.36 0 0 0-2.49 1l-.12-1.42a31.43 31.43 0 0 1 5.21-5.54 24.9 24.9 0 0 1 11.72-5.44 20.3 20.3 0 0 1 2.47-.29 23.46 23.46 0 0 1 .23 7.43zm-16.05 48-2.79-34.05a16 16 0 0 1 6-2.56 15 15 0 0 1 5-.09 18.76 18.76 0 0 1 5.82 1.9l.26.14-.77 6.42v.06a74.82 74.82 0 0 1-3.87 18.42 32.32 32.32 0 0 1-2.78 5.85 13.58 13.58 0 0 1-2.74 3.3 4.6 4.6 0 0 1-1.48.9 1.88 1.88 0 0 1-1 .05l-.83 3.91.83-3.91z" transform="translate(-60.09 -76.06)" style="fill:#fe4c00"/><path style="fill:#fe4c00" d="m223.72 113.76-2.79-.26-2.8-.28-.38 4.02 5.57.54.4-4.02z"/><path d="M206.18 222.19a14.28 14.28 0 0 0-7.26-10.05L167 194.84a19.62 19.62 0 0 0-11.54-2.28 19.81 19.81 0 0 0-13.14 32.33 19.61 19.61 0 0 0 11.39 6.81l35.64 7.06a14.3 14.3 0 0 0 16.79-11.27 14.1 14.1 0 0 0 .04-5.3zm-5.08 2.05a10.64 10.64 0 0 1-.62 3.49 11 11 0 0 1-3.42 4.77 15 15 0 0 1-4.78 2.57 21.46 21.46 0 0 1-5.56 1 31.72 31.72 0 0 1-12.43-2 34.3 34.3 0 0 1-7.35-3.72 25.94 25.94 0 0 1-5.58-5 18.23 18.23 0 0 1-2.73-4.46 12.65 12.65 0 0 1-1-5 10.4 10.4 0 0 1 .63-3.49 11 11 0 0 1 3.42-4.77 14.71 14.71 0 0 1 4.77-2.57 21.46 21.46 0 0 1 5.56-1 31.67 31.67 0 0 1 12.4 1.94 33.62 33.62 0 0 1 7.35 3.72 26 26 0 0 1 5.59 5 17.9 17.9 0 0 1 2.72 4.46 12.34 12.34 0 0 1 1.05 5z" transform="translate(-60.09 -76.06)" style="fill:#fff"/><path d="M187.79 246.59a22.3 22.3 0 0 0 25.32-14.31l-3.77-1.36 3.77 1.36a22.29 22.29 0 0 0-10.35-27.18l-31.92-17.3a27.8 27.8 0 1 0-18.66 51.7zm17.79-17a14.3 14.3 0 0 1-16.23 9.2l-35.62-7.08a19.59 19.59 0 0 1-11.39-6.8 19.85 19.85 0 0 1 13.14-32.34 19.62 19.62 0 0 1 11.52 2.26l31.92 17.29a14.3 14.3 0 0 1 6.64 17.43z" transform="translate(-60.09 -76.06)" style="fill:#fe4c00"/><path d="M193.12 224.13A3.73 3.73 0 0 0 193 223a8.67 8.67 0 0 0-1.76-3.13 18 18 0 0 0-3.87-3.42 25.76 25.76 0 0 0-5.6-2.81 25.32 25.32 0 0 0-7.14-1.49 15.23 15.23 0 0 0-5.61.63 7 7 0 0 0-2.23 1.14 3 3 0 0 0-1 1.31 2.91 2.91 0 0 0-.16.88 4.57 4.57 0 0 0 .17 1.15 8.93 8.93 0 0 0 1.76 3.12 18.6 18.6 0 0 0 3.87 3.43 26.06 26.06 0 0 0 5.57 2.79 25.59 25.59 0 0 0 7.13 1.48 15.42 15.42 0 0 0 5.61-.62 6.76 6.76 0 0 0 2.23-1.15 2.9 2.9 0 0 0 1-1.3 2.42 2.42 0 0 0 .15-.88z" transform="translate(-60.09 -76.06)" style="fill:#ffd617"/><path d="M191.79 209.77a33.26 33.26 0 0 0-7.36-3.72 31.57 31.57 0 0 0-12.43-1.92 22.33 22.33 0 0 0-5.56 1 14.73 14.73 0 0 0-4.77 2.58 11 11 0 0 0-3.42 4.77 10.34 10.34 0 0 0-.63 3.48 12.62 12.62 0 0 0 1 5 17.87 17.87 0 0 0 2.73 4.46 25.68 25.68 0 0 0 5.58 5 33.41 33.41 0 0 0 7.35 3.72 31.73 31.73 0 0 0 12.43 2 22.33 22.33 0 0 0 5.56-1 14.78 14.78 0 0 0 4.78-2.58 11 11 0 0 0 3.42-4.77 10.64 10.64 0 0 0 .62-3.49 12.52 12.52 0 0 0-1-5 17.9 17.9 0 0 0-2.72-4.46 26.52 26.52 0 0 0-5.58-5.07zm-2 17.68a15.45 15.45 0 0 1-5.61.63 25.6 25.6 0 0 1-7.13-1.49 26.06 26.06 0 0 1-5.61-2.81 18.32 18.32 0 0 1-3.87-3.43 8.93 8.93 0 0 1-1.76-3.12 4.44 4.44 0 0 1-.17-1.15 2.91 2.91 0 0 1 .16-.88 3 3 0 0 1 1-1.31 6.93 6.93 0 0 1 2.23-1.14 15.45 15.45 0 0 1 5.61-.63 25.32 25.32 0 0 1 7.14 1.49 26.22 26.22 0 0 1 5.6 2.81 17.81 17.81 0 0 1 3.87 3.43A8.59 8.59 0 0 1 193 223a4 4 0 0 1 .17 1.14 2.5 2.5 0 0 1-.16.89 3 3 0 0 1-1 1.3 7 7 0 0 1-2.24 1.16z" transform="translate(-60.09 -76.06)" style="fill:#fe4c00"/><path d="M277.47 252.56a14.25 14.25 0 0 0 7.27 10.05l31.91 17.3a19.6 19.6 0 0 0 11.55 2.29 20.15 20.15 0 0 0 10.5-4.42 19.79 19.79 0 0 0 2.65-27.87 19.65 19.65 0 0 0-11.4-6.8L294.33 236a14.29 14.29 0 0 0-16.23 9.17l-3.76-1.37 3.76 1.37a14.28 14.28 0 0 0-.63 7.39zm5.09-2a10.46 10.46 0 0 1 .63-3.5 11.13 11.13 0 0 1 3.41-4.77 14.73 14.73 0 0 1 4.78-2.56 21.06 21.06 0 0 1 5.56-1 31.68 31.68 0 0 1 12.42 2 33 33 0 0 1 7.35 3.72 25.76 25.76 0 0 1 5.59 5 17.54 17.54 0 0 1 2.72 4.46 12.49 12.49 0 0 1 1 5 10.65 10.65 0 0 1-.63 3.49 11 11 0 0 1-3.42 4.77 14.62 14.62 0 0 1-4.77 2.57 21.9 21.9 0 0 1-5.56 1 31.83 31.83 0 0 1-12.42-2l1.36-3.77-1.36 3.77a33.66 33.66 0 0 1-7.36-3.71 25.94 25.94 0 0 1-5.58-5 17.87 17.87 0 0 1-2.73-4.46 12.66 12.66 0 0 1-.99-5.05z" transform="translate(-60.09 -76.06)" style="fill:#fff"/><path d="M295.89 228.16a22.3 22.3 0 0 0-25.32 14.31 22.3 22.3 0 0 0 10.35 27.18L312.84 287a27.81 27.81 0 0 0 31-3 27.79 27.79 0 0 0-12.27-48.69zm-17.79 17a14.3 14.3 0 0 1 16.23-9.16l35.67 7.1a19.66 19.66 0 0 1 11.4 6.81 19.81 19.81 0 0 1-13.15 32.3 19.75 19.75 0 0 1-11.55-2.29l-31.91-17.3a14.29 14.29 0 0 1-6.64-17.42l-3.76-1.37z" transform="translate(-60.09 -76.06)" style="fill:#fe4c00"/><path d="M309.1 262.63a15.44 15.44 0 0 0 5.61-.62 7.25 7.25 0 0 0 2.23-1.14 3.1 3.1 0 0 0 1-1.32 2.92 2.92 0 0 0 .16-.89 4.43 4.43 0 0 0-.17-1.14 8.93 8.93 0 0 0-1.76-3.12 18.07 18.07 0 0 0-3.87-3.43 26.06 26.06 0 0 0-5.61-2.81 25.18 25.18 0 0 0-7.13-1.49 15.44 15.44 0 0 0-5.61.62 6.76 6.76 0 0 0-2.23 1.15 3.07 3.07 0 0 0-1 1.31 3 3 0 0 0-.16.89 4 4 0 0 0 .17 1.14 9 9 0 0 0 1.76 3.13 18 18 0 0 0 3.87 3.42 25.32 25.32 0 0 0 5.6 2.81 24.91 24.91 0 0 0 7.14 1.49z" transform="translate(-60.09 -76.06)" style="fill:#ffd617"/><path d="M286.31 260a26.16 26.16 0 0 0 5.58 5 34.14 34.14 0 0 0 7.36 3.72l1.36-3.77-1.36 3.77a31.83 31.83 0 0 0 12.42 1.95 21.06 21.06 0 0 0 5.56-1 14.78 14.78 0 0 0 4.77-2.56 11 11 0 0 0 3.42-4.77 10.76 10.76 0 0 0 .63-3.5 12.65 12.65 0 0 0-1-5 18 18 0 0 0-2.73-4.46 25.76 25.76 0 0 0-5.59-5 33.4 33.4 0 0 0-7.35-3.72 31.86 31.86 0 0 0-12.42-2 21.47 21.47 0 0 0-5.56 1 14.73 14.73 0 0 0-4.78 2.56 11.1 11.1 0 0 0-3.41 4.78 10.4 10.4 0 0 0-.63 3.49 12.65 12.65 0 0 0 1 5 18.17 18.17 0 0 0 2.73 4.51zm10.05-1.68a18 18 0 0 1-3.87-3.42 9 9 0 0 1-1.76-3.13 4 4 0 0 1-.17-1.14 2.87 2.87 0 0 1 1.11-2.21 6.76 6.76 0 0 1 2.23-1.15 15.42 15.42 0 0 1 5.61-.62 24.91 24.91 0 0 1 7.13 1.49 25.61 25.61 0 0 1 5.61 2.81 17.81 17.81 0 0 1 3.87 3.43 8.93 8.93 0 0 1 1.76 3.12 4 4 0 0 1 .16 1.14 2.73 2.73 0 0 1-.15.89 3 3 0 0 1-1 1.31 7.05 7.05 0 0 1-2.23 1.15 15.36 15.36 0 0 1-5.6.62 25.23 25.23 0 0 1-7.14-1.48 25.84 25.84 0 0 1-5.56-2.81z" transform="translate(-60.09 -76.06)" style="fill:#fe4c00"/><path d="M177.08 260.32a4.19 4.19 0 1 0 5.9.57 4.19 4.19 0 0 0-5.9-.57z" transform="translate(-60.09 -76.06)" style="fill:#fff"/><path d="M172.8 269.24a9 9 0 1 0 1.25-12.66 9 9 0 0 0-1.25 12.66zm9.6-2.47a4.19 4.19 0 1 1 .56-5.9 4.19 4.19 0 0 1-.56 5.9z" transform="translate(-60.09 -76.06)" style="fill:#fe4c00"/><path d="M312.35 222.75a5 5 0 1 0-7.08-.69 5 5 0 0 0 7.08.69z" transform="translate(-60.09 -76.06)" style="fill:#ffd617"/><path d="M316.74 212.61a9.83 9.83 0 1 0-1.33 13.85 9.83 9.83 0 0 0 1.33-13.85zM306 215a5 5 0 1 1-.69 7.08A5 5 0 0 1 306 215z" transform="translate(-60.09 -76.06)" style="fill:#fe4c00"/><path d="M279.12 326.16a4.19 4.19 0 1 0 5.9.58 4.2 4.2 0 0 0-5.9-.58z" transform="translate(-60.09 -76.06)" style="fill:#fff"/><path d="M276.06 322.45a9 9 0 1 0 12.67 1.27 9 9 0 0 0-12.67-1.27zm8.39 10.19a4.19 4.19 0 1 1 .56-5.91 4.2 4.2 0 0 1-.56 5.91z" transform="translate(-60.09 -76.06)" style="fill:#fe4c00"/><path style="fill:#fe4c00" d="m132.67 89.86.39-3.99-7.09-.68-.76 7.97 7.07.68.39-3.98zM87.53 211.77l3.97.38 1.15-11.8-7.97-.77-1.15 11.81 4 .38zm187.54-91.47 2.27-3.29-10.05-6.93-4.55 6.6 10.05 6.92 2.28-3.3zm-55.43 109.14 8.6-2.75-1.21-3.81-1.22-3.81-8.6 2.74 2.43 7.63z"/></svg>