<svg id="Layer_1" data-name="Layer 1" xmlns="http://www.w3.org/2000/svg" viewBox="0 0 1024 1024"><title>Web_icons_OUTLINE</title><path d="M995.84,165.63A915.85,915.85,0,0,0,754.31,133.5c-80.21,0-161,10.18-242.31,29.71-81.17-19.53-161.93-29.71-242-29.71a914.09,914.09,0,0,0-241.3,32.13A37.58,37.58,0,0,0,1,201.82V854a37.5,37.5,0,0,0,46.53,36.4A927.65,927.65,0,0,1,271.89,863c76.75,0,153.88,9.36,231.55,27.56a37.07,37.07,0,0,0,6.59.92h.15c.6,0,1.21,0,1.81,0s1.28,0,1.92,0h0a37.05,37.05,0,0,0,6.6-.92c77.76-18.2,155-27.56,231.81-27.56A929.75,929.75,0,0,1,977,890.4,37.5,37.5,0,0,0,1023.5,854V201.82A37.58,37.58,0,0,0,995.84,165.63ZM76,807.21V231A839.84,839.84,0,0,1,270,208.5q100.94,0,204.55,23V807.66A1071,1071,0,0,0,271.89,788,1002.21,1002.21,0,0,0,76,807.21Zm473.5.46V231.54q103.79-22.86,204.81-23A841.41,841.41,0,0,1,948.5,231V807.22A1004.74,1004.74,0,0,0,752.36,788,1072.82,1072.82,0,0,0,549.5,807.67Z"/></svg>