<?xml version="1.0" encoding="UTF-8" standalone="no"?><svg xmlns="http://www.w3.org/2000/svg" id="Layer_1" data-name="Layer 1" viewBox="0 0 111.95009 99.626625" version="1.1"><defs id="defs4"><style id="style2">.cls-1{fill:gray;}</style></defs><title id="title6">Admin_Icons</title><path class="cls-1" d="m 110.22004,6.2103024 a 64.79,64.79 0 0 0 -54.249996,-0.51 64.76,64.76 0 0 0 -54.2399996,0.51 3,3 0 0 0 -1.730000008303,2.73 V 96.610302 a 3,3 0 0 0 4.300000008303,2.72 59.19,59.19 0 0 1 50.3899996,0 l 0.55,0.11 0.73,0.14 0.72,-0.13 0.56,-0.12 a 59.21,59.21 0 0 1 50.399996,0 3,3 0 0 0 4.3,-2.72 V 8.9403024 a 3,3 0 0 0 -1.73,-2.73 z M 6.0300444,92.150302 v -81.18 a 58.18,58.18 0 0 1 46.9199996,0 v 81.17 a 63.73,63.73 0 0 0 -46.9199996,0 z m 52.9499996,0 v -81.18 a 58.22,58.22 0 0 1 46.939996,0 v 81.17 a 63.85,63.85 0 0 0 -46.939996,0 z" id="path8"/></svg>