<?xml version="1.0" encoding="UTF-8" standalone="no"?>
<svg
   xmlns:dc="http://purl.org/dc/elements/1.1/"
   xmlns:cc="http://creativecommons.org/ns#"
   xmlns:rdf="http://www.w3.org/1999/02/22-rdf-syntax-ns#"
   xmlns:svg="http://www.w3.org/2000/svg"
   xmlns="http://www.w3.org/2000/svg"
   xmlns:sodipodi="http://sodipodi.sourceforge.net/DTD/sodipodi-0.dtd"
   xmlns:inkscape="http://www.inkscape.org/namespaces/inkscape"
   id="Layer_1"
   data-name="Layer 1"
   viewBox="0 0 111.95009 99.626625"
   version="1.1"
   sodipodi:docname="book-icon.svg"
   inkscape:version="1.0.2 (e86c870879, 2021-01-15)">
  <metadata
     id="metadata13">
    <rdf:RDF>
      <cc:Work
         rdf:about="">
        <dc:format>image/svg+xml</dc:format>
        <dc:type
           rdf:resource="http://purl.org/dc/dcmitype/StillImage" />
      </cc:Work>
    </rdf:RDF>
  </metadata>
  <sodipodi:namedview
     pagecolor="#ffffff"
     bordercolor="#666666"
     borderopacity="1"
     objecttolerance="10"
     gridtolerance="10"
     guidetolerance="10"
     inkscape:pageopacity="0"
     inkscape:pageshadow="2"
     inkscape:window-width="1920"
     inkscape:window-height="1013"
     id="namedview11"
     showgrid="false"
     inkscape:zoom="2.8533333"
     inkscape:cx="65.880044"
     inkscape:cy="46.820302"
     inkscape:window-x="0"
     inkscape:window-y="33"
     inkscape:window-maximized="1"
     inkscape:current-layer="Layer_1" />
  <defs
     id="defs4">
    <style
       id="style2">.cls-1{fill:gray;}</style>
  </defs>
  <title
     id="title6">Admin_Icons</title>
  <path
     class="cls-1"
     d="m 110.22004,6.2103024 a 64.79,64.79 0 0 0 -54.249996,-0.51 64.76,64.76 0 0 0 -54.2399996,0.51 3,3 0 0 0 -1.730000008303,2.73 V 96.610302 a 3,3 0 0 0 4.300000008303,2.72 59.19,59.19 0 0 1 50.3899996,0 l 0.55,0.11 0.73,0.14 0.72,-0.13 0.56,-0.12 a 59.21,59.21 0 0 1 50.399996,0 3,3 0 0 0 4.3,-2.72 V 8.9403024 a 3,3 0 0 0 -1.73,-2.73 z M 6.0300444,92.150302 v -81.18 a 58.18,58.18 0 0 1 46.9199996,0 v 81.17 a 63.73,63.73 0 0 0 -46.9199996,0 z m 52.9499996,0 v -81.18 a 58.22,58.22 0 0 1 46.939996,0 v 81.17 a 63.85,63.85 0 0 0 -46.939996,0 z"
     id="path8" />
</svg>
