<svg id="Layer_1" data-name="Layer 1" xmlns="http://www.w3.org/2000/svg" viewBox="0 0 1024 1024"><title>Web_icons_OUTLINE</title><path d="M891.52,7.48A37.77,37.77,0,0,0,865-3.5H168A37.49,37.49,0,0,0,130.5,34V988.5a37.5,37.5,0,0,0,58.26,31.23L515.49,802.49l328.84,217.3A37.5,37.5,0,0,0,902.5,988.5V34A37.77,37.77,0,0,0,891.52,7.48ZM494.66,726.27,205.5,918.53V71.5h622V918.77L536.1,726.21A37.56,37.56,0,0,0,494.66,726.27Z"/><path d="M690.59,367h-150V217a37.5,37.5,0,0,0-75,0V367h-150a37.5,37.5,0,1,0,0,75h150V592a37.5,37.5,0,0,0,75,0V442h150a37.5,37.5,0,1,0,0-75Z"/></svg>