<?xml version="1.0" encoding="UTF-8" standalone="no"?><svg xmlns="http://www.w3.org/2000/svg" id="Layer_1" data-name="Layer 1" viewBox="0 0 215.61 214.53" version="1.1"><defs id="defs4"><style id="style2">.cls-1{fill:none;stroke-linecap:round;stroke-linejoin:round;stroke-width:19px;}</style></defs><title id="title6">Admin_Icons</title><rect class="cls-1" x="9.5" y="33.389999" width="196.61" height="171.64" rx="22.77" id="rect8"/><path class="cls-1" d="m 30.93,33.39 h 153.7 a 21.48,21.48 0 0 1 21.48,21.48 V 75.2 H 9.5000003 V 54.87 A 21.48,21.48 0 0 1 30.93,33.39 Z" id="path10"/><line class="cls-1" x1="49.529999" y1="9.5" x2="49.529999" y2="52.849998" id="line12"/><line class="cls-1" x1="167.98001" y1="9.5" x2="167.98001" y2="52.849998" id="line14"/><rect class="cls-2" x="143.14999" y="145.04999" width="36.630001" height="36.630001" rx="6.4499998" id="rect16"/><rect class="cls-2" x="88.910004" y="145.04999" width="36.630001" height="36.630001" rx="6.4499998" id="rect18"/><rect class="cls-2" x="33.660004" y="145.04999" width="36.630001" height="36.630001" rx="6.4499998" id="rect20"/><rect class="cls-2" x="143.14999" y="96.200005" width="36.630001" height="36.630001" rx="6.4499998" id="rect22"/><rect class="cls-2" x="88.910004" y="96.200005" width="36.630001" height="36.630001" rx="6.4499998" id="rect24"/><rect class="cls-2" x="33.660004" y="96.200005" width="36.630001" height="36.630001" rx="6.4499998" id="rect26"/></svg>