<svg id="Layer_1" data-name="Layer 1" xmlns="http://www.w3.org/2000/svg" viewBox="0 0 1024 1024"><title>Web_icons_OUTLINE</title><path d="M950,201a37.79,37.79,0,0,0-26.52-11H807V101.5a37.5,37.5,0,0,0-75,0V190H294V101.5a37.5,37.5,0,0,0-75,0V190H105a37.49,37.49,0,0,0-37.5,37.5V918A37.49,37.49,0,0,0,105,955.5H923.5A37.49,37.49,0,0,0,961,918V227.5A37.77,37.77,0,0,0,950,201ZM142.5,265H219v53.5a37.5,37.5,0,0,0,75,0V265H732v53.5a37.5,37.5,0,0,0,75,0V265h79V880.5H142.5Z"/><rect x="218" y="445" width="116" height="116" rx="29.49"/><rect x="454.92" y="445" width="116" height="116" rx="29.49"/><rect x="692.75" y="445" width="116" height="116" rx="29.49"/><rect x="218" y="652" width="116" height="116" rx="29.49"/><rect x="454.92" y="652" width="116" height="116" rx="29.49"/><rect x="692.75" y="652" width="116" height="116" rx="29.49"/></svg>