<svg xmlns="http://www.w3.org/2000/svg" data-name="Layer 1" width="81.18" height="68.39"><path d="M68.48 0H12.69A12.69 12.69 0 0 0 0 12.7v27.26a12.69 12.69 0 0 0 12.69 12.69h4.3l-5.37 10.74a3.47 3.47 0 0 0-.37 1.55 3.48 3.48 0 0 0 3.46 3.45 3.57 3.57 0 0 0 1.92-.58l22.76-15.16h29.09a12.7 12.7 0 0 0 12.7-12.69V12.7A12.69 12.69 0 0 0 68.48 0zm7.12 40a7.13 7.13 0 0 1-7.12 7.07H37.7L20.19 58.73l5.83-11.66H12.69a7.13 7.13 0 0 1-7.11-7.11V12.7a7.13 7.13 0 0 1 7.11-7.12h55.79a7.14 7.14 0 0 1 7.12 7.12z" style="fill:#ff4900"/></svg>