<?xml version="1.0" encoding="UTF-8" standalone="no"?><svg xmlns="http://www.w3.org/2000/svg" id="Layer_1" data-name="Layer 1" viewBox="0 0 101.44001 101.42001" version="1.1"><defs id="defs4"><style id="style2">.cls-1{fill:#fff;}.cls-2{fill:#ff4900;}.cls-3{fill:#fc4d00;}</style></defs><title id="title6">check</title><path class="cls-1" d="m 99.13,50.71 a 48.4,48.4 0 1 1 -48.4,-48.4 48.4,48.4 0 0 1 48.4,48.4 z" id="path8"/><path class="cls-2" d="M 99.13,50.71 H 96.8 A 46.09,46.09 0 1 1 83.3,18.12 45.9,45.9 0 0 1 96.8,50.71 h 4.62 a 50.71,50.71 0 1 0 -50.71,50.71 50.71,50.71 0 0 0 50.73,-50.71 z" id="path10"/><path class="cls-3" d="m 22.02,60.84 17.66,14.75 a 4.25,4.25 0 0 0 6.1,-0.71 L 79.05,30.53 A 4.2320001,4.2320001 0 0 0 72.28,25.45 L 41.68,66.23 27.44,54.34 a 4.2316191,4.2316191 0 1 0 -5.42,6.5 z" id="path12"/></svg>