<svg xmlns="http://www.w3.org/2000/svg" data-name="Layer 1" viewBox="0 0 101.44 101.42"><path d="M99.13 50.71a48.4 48.4 0 1 1-48.4-48.4 48.4 48.4 0 0 1 48.4 48.4z" style="fill:#fff"/><path d="M99.13 50.71H96.8a46.09 46.09 0 1 1-13.5-32.59 45.9 45.9 0 0 1 13.5 32.59h4.62a50.71 50.71 0 1 0-50.71 50.71 50.71 50.71 0 0 0 50.73-50.71z" style="fill:#ff4900"/><path d="m22.02 60.84 17.66 14.75a4.25 4.25 0 0 0 6.1-.71l33.27-44.35a4.232 4.232 0 0 0-6.77-5.08l-30.6 40.78-14.24-11.89a4.232 4.232 0 1 0-5.42 6.5z" style="fill:#fc4d00"/></svg>