<svg id="Layer_1" data-name="Layer 1" xmlns="http://www.w3.org/2000/svg" viewBox="0 0 1024 1024"><title>Web_icons_OUTLINE</title><path d="M981.5,581.5H1019v-137a37.55,37.55,0,0,0-32.3-37.14L874.14,391.61l-5.2,37.14,36.56-8.34a396.49,396.49,0,0,0-48.1-118.34l-32,19.52,29.94,22.59,67.92-90a37.57,37.57,0,0,0-3.42-49.11L823,108.18a37.57,37.57,0,0,0-49.11-3.42l-89.46,67.5L707,202.19l19.78-31.85A396.82,396.82,0,0,0,607.55,121L599,157.47l37.14-5.2-15.53-111A37.55,37.55,0,0,0,583.5,9h-137a37.55,37.55,0,0,0-37.14,32.3L393.73,153l37.14,5.19L422,121.76a397.12,397.12,0,0,0-117.59,49.71l20,31.75L347,173.29l-90.82-68.53a37.57,37.57,0,0,0-49.11,3.42l-96.87,96.87a37.57,37.57,0,0,0-3.42,49.11l69.59,92.23,29.94-22.59-32.16-19.29A396.82,396.82,0,0,0,127.6,419.93l36.55,8.39L159,391.18,43.3,407.36A37.55,37.55,0,0,0,11,444.5v137a37.55,37.55,0,0,0,32.3,37.14l117.4,16.43,5.2-37.14-36.37,9.14a396.83,396.83,0,0,0,47.2,111.7l31.91-19.7-29.93-22.58-71.95,95.35A37.57,37.57,0,0,0,110.18,821l96.87,96.87a37.57,37.57,0,0,0,49.11,3.42l95.92-72.37-22.59-29.94L310.07,851A396.94,396.94,0,0,0,420.9,897l9-36.41-37.13,5.19,16.64,119A37.55,37.55,0,0,0,446.5,1017h137a37.55,37.55,0,0,0,37.14-32.3l16.54-118.21L600,861.29l8.63,36.49a396.72,396.72,0,0,0,112.42-45.67l-19.25-32.18-22.59,29.94,94.59,71.37A37.57,37.57,0,0,0,823,917.82L919.82,821a37.57,37.57,0,0,0,3.42-49.11l-70.3-93.17L823,701.25l31.78,19.92a397.18,397.18,0,0,0,48.81-114.58l-36.38-9.1,5.2,37.14,114.29-16A37.55,37.55,0,0,0,1019,581.5H981.5l-5.2-37.14L862,560.35a37.52,37.52,0,0,0-31.18,28,321.84,321.84,0,0,1-39.6,93,37.58,37.58,0,0,0,1.84,42.5L843.72,791,793,841.72,724.42,790a37.48,37.48,0,0,0-41.84-2.25,321.76,321.76,0,0,1-91.17,37,37.39,37.39,0,0,0-28.51,31.3l-12,85.9H479.12L467,855.35a37.62,37.62,0,0,0-28.18-31.22,321.61,321.61,0,0,1-89.89-37.28,37.39,37.39,0,0,0-42,2.15L237,841.72,186.28,791l52.3-69.32a37.41,37.41,0,0,0,2-42.28,321.83,321.83,0,0,1-38.29-90.6,37.48,37.48,0,0,0-31.17-28L86,548.88V477.12l83.35-11.67A37.55,37.55,0,0,0,200.7,436.7a322.21,322.21,0,0,1,37.74-93.61,37.5,37.5,0,0,0-2.22-41.87L186.28,235,237,184.28l64.78,48.88A37.41,37.41,0,0,0,344.35,235a322.12,322.12,0,0,1,95.37-40.33A37.46,37.46,0,0,0,468,163.4L479.12,84h71.76l11,78.66A37.49,37.49,0,0,0,590.5,194a321.85,321.85,0,0,1,96.68,40.06,37.48,37.48,0,0,0,42.37-1.92L793,184.28,843.72,235l-48.27,64a37.46,37.46,0,0,0-2.09,42.1,321.75,321.75,0,0,1,39,96,37.41,37.41,0,0,0,31.37,28.8L944,477.12V581.5h37.5l-5.2-37.14ZM514,650V612.5A99.8,99.8,0,1,1,543.9,608,100.15,100.15,0,0,1,514,612.5v75a174.92,174.92,0,1,0-52.17-7.9A174.9,174.9,0,0,0,514,687.5Z"/><path d="M612.15,366.49a175.32,175.32,0,1,0,63.54,77.19A174.92,174.92,0,0,0,612.15,366.49Zm-5.53,184.62a101.07,101.07,0,0,1-36.46,44.25,100.74,100.74,0,0,1-95.27,9.26,101.07,101.07,0,0,1-44.25-36.46,100.74,100.74,0,0,1-9.26-95.27,101.07,101.07,0,0,1,36.46-44.25,100.74,100.74,0,0,1,95.27-9.26,101.07,101.07,0,0,1,44.25,36.46,100.74,100.74,0,0,1,9.26,95.27Z"/><path d="M986.7,407.36l-87.88-12.3a397.19,397.19,0,0,0-28.7-70.5l53.12-70.4a37.57,37.57,0,0,0-3.42-49.11L823,108.18a37.57,37.57,0,0,0-49.11-3.42l-69.67,52.57a397.62,397.62,0,0,0-71.44-29.61L620.64,41.3A37.55,37.55,0,0,0,583.5,9h-137a37.55,37.55,0,0,0-37.14,32.3l-12.23,87.39a397.68,397.68,0,0,0-70.05,29.58l-70.92-53.51a37.57,37.57,0,0,0-49.11,3.42l-96.87,96.87a37.57,37.57,0,0,0-3.42,49.11l54.9,72.76a397.24,397.24,0,0,0-27.35,67.71l-91,12.73A37.55,37.55,0,0,0,11,444.5v137a37.55,37.55,0,0,0,32.3,37.14l93.29,13.05a397,397,0,0,0,27.24,64.52l-57.07,75.63A37.57,37.57,0,0,0,110.18,821l96.87,96.87a37.57,37.57,0,0,0,49.11,3.42l76.37-57.62A396.34,396.34,0,0,0,396.11,890l13.25,94.72A37.55,37.55,0,0,0,446.5,1017h137a37.55,37.55,0,0,0,37.14-32.3L633.75,891a397.62,397.62,0,0,0,64.94-26.42l75.15,56.7A37.57,37.57,0,0,0,823,917.82L919.82,821a37.57,37.57,0,0,0,3.42-49.11l-55.31-73.3a396.79,396.79,0,0,0,28.62-67.29l90.15-12.61A37.55,37.55,0,0,0,1019,581.5v-137A37.55,37.55,0,0,0,986.7,407.36ZM793,841.72,724.42,790a37.48,37.48,0,0,0-41.84-2.25,321.88,321.88,0,0,1-91.17,37,37.39,37.39,0,0,0-28.51,31.29l-12,85.91H479.12L467,855.35a37.61,37.61,0,0,0-28.18-31.22,321.61,321.61,0,0,1-89.89-37.28,37.39,37.39,0,0,0-42,2.15L237,841.72,186.28,791l52.3-69.32a37.41,37.41,0,0,0,2-42.28,321.83,321.83,0,0,1-38.29-90.6,37.48,37.48,0,0,0-31.17-28L86,548.88V477.12l83.35-11.67A37.56,37.56,0,0,0,200.7,436.7a322.21,322.21,0,0,1,37.74-93.61,37.5,37.5,0,0,0-2.22-41.87L186.28,235,237,184.28l64.78,48.88A37.4,37.4,0,0,0,344.35,235a322.12,322.12,0,0,1,95.37-40.33A37.46,37.46,0,0,0,468,163.4L479.12,84h71.76l11,78.66A37.49,37.49,0,0,0,590.5,194a321.74,321.74,0,0,1,96.68,40.06,37.48,37.48,0,0,0,42.37-1.92L793,184.28,843.72,235l-48.27,64a37.46,37.46,0,0,0-2.09,42.1,321.75,321.75,0,0,1,39,96,37.41,37.41,0,0,0,31.37,28.8L944,477.12v71.76l-82,11.47a37.52,37.52,0,0,0-31.18,28,321.66,321.66,0,0,1-39.6,92.94,37.6,37.6,0,0,0,1.84,42.51L843.72,791Z"/></svg>