<svg id="Layer_1" data-name="Layer 1" xmlns="http://www.w3.org/2000/svg" viewBox="0 0 1024 1024"><title>Web_icons_OUTLINE</title><path d="M941,886,567.19,511.75l41.29-41.29a159.23,159.23,0,0,0,25.72,13.59A153.87,153.87,0,0,0,693.26,496a143.45,143.45,0,0,0,52.85-10,136.49,136.49,0,0,0,46.37-30.44l152-152a37.5,37.5,0,0,0-53-53l-152,152a61.31,61.31,0,0,1-21,13.75A68.41,68.41,0,0,1,693.26,421a78.74,78.74,0,0,1-29.44-5.84L866.47,212.47a37.5,37.5,0,1,0-53-53L613.25,359.62A77.28,77.28,0,0,1,610,337.74a68.41,68.41,0,0,1,4.69-25.23,61.34,61.34,0,0,1,13.74-20.95l152-152a37.5,37.5,0,1,0-53-53l-152,152A136.49,136.49,0,0,0,545,284.89a143.24,143.24,0,0,0-10,52.85A153.87,153.87,0,0,0,547,396.8a160,160,0,0,0,9.7,19.43l-42.46,42.46L149,93.06a37.5,37.5,0,0,0-62.61,16.29,280.19,280.19,0,0,0-5.88,27.54A398.37,398.37,0,0,0,75,202.42a337.51,337.51,0,0,0,8.76,77.82,279,279,0,0,0,13.49,41.94,250.71,250.71,0,0,0,21.93,41.62,219.11,219.11,0,0,0,26.54,32.91c4.5,4.62,11.8,12.08,21.27,21.73,33.15,33.76,92.76,94.28,148.87,151.14,14.93,15.12,29.59,30,43.46,44L86.39,886.48a37.5,37.5,0,0,0,53,53L412,666.91c4.07,4.12,7.92,8,11.46,11.57C432,687,438.86,694,443.67,698.77a37.52,37.52,0,0,0,53,0l75.68-75.69L888,939A37.5,37.5,0,0,0,941,886Zm-421.66-316-49.09,49.09C434.28,582.83,375.23,523,321,468c-27.82-28.22-54.37-55.18-75.9-77.07C234.33,380,224.82,370.32,217,362.39s-13.82-14.1-17.63-18a145.66,145.66,0,0,1-17.53-21.68,176,176,0,0,1-15.35-29.18,212.8,212.8,0,0,1-13-46.15,274.72,274.72,0,0,1-3.59-45c0-.75,0-1.48,0-2.22L519.39,570Z"/></svg>