<svg id="Layer_1" data-name="Layer 1" xmlns="http://www.w3.org/2000/svg" viewBox="0 0 1024 1024"><title>Web_icons_OUTLINE</title><path d="M1023.1,801.62V203.5A37.48,37.48,0,0,0,987.29,166h-.12c-.52,0-1,0-1.57,0H41.1A37.51,37.51,0,0,0,3.6,203.5V813a37.51,37.51,0,0,0,37.5,37.5H985.6l.85,0a37.48,37.48,0,0,0,36.65-48.86ZM78.6,287.11,332.94,496.23,78.6,728.36ZM948.1,726.34,693,493.37,948.1,283ZM511.46,545.92,140.61,241h740.5Zm-120-1.56,96.21,79.11a37.59,37.59,0,0,0,47.68,0l99.23-81.86L890.71,775.5H138.21Z"/></svg>