<?xml version="1.0" encoding="UTF-8" standalone="no"?><svg xmlns="http://www.w3.org/2000/svg" id="Layer_1" data-name="Layer 1" viewBox="0 0 236.71001 164.98" version="1.1"><title id="title6">Admin_Icons</title><path class="cls-1" d="M 210.12,164.98 H 26.59 A 26.6,26.6 0 0 1 0,138.39 V 26.6 A 26.6,26.6 0 0 1 26.59,0 h 183.53 a 26.6,26.6 0 0 1 26.59,26.6 v 111.79 a 26.6,26.6 0 0 1 -26.59,26.59 z" id="path8"/><path class="cls-2" fill="#ffffff" d="m 133.87,83.06 29,-31.24 A 11.49,11.49 0 0 0 146.03,36.19 l -27.83,30 -27.83,-30 A 11.498846,11.498846 0 0 0 73.5,51.82 l 29,31.24 -29,31.25 a 11.49,11.49 0 0 0 16.84,15.63 l 27.83,-30 27.83,30 a 11.49,11.49 0 0 0 16.84,-15.63 z" id="path10"/></svg>