<?xml version="1.0" encoding="UTF-8" standalone="no"?>
<svg
   xmlns:dc="http://purl.org/dc/elements/1.1/"
   xmlns:cc="http://creativecommons.org/ns#"
   xmlns:rdf="http://www.w3.org/1999/02/22-rdf-syntax-ns#"
   xmlns:svg="http://www.w3.org/2000/svg"
   xmlns="http://www.w3.org/2000/svg"
   xmlns:sodipodi="http://sodipodi.sourceforge.net/DTD/sodipodi-0.dtd"
   xmlns:inkscape="http://www.inkscape.org/namespaces/inkscape"
   id="Layer_1"
   data-name="Layer 1"
   viewBox="0 0 236.71001 164.98"
   version="1.1"
   sodipodi:docname="exit-filled-icon.svg"
   inkscape:version="1.0.2 (e86c870879, 2021-01-15)">
  <metadata
     id="metadata15">
    <rdf:RDF>
      <cc:Work
         rdf:about="">
        <dc:format>image/svg+xml</dc:format>
        <dc:type
           rdf:resource="http://purl.org/dc/dcmitype/StillImage" />
      </cc:Work>
    </rdf:RDF>
  </metadata>
  <sodipodi:namedview
     pagecolor="#ffffff"
     bordercolor="#666666"
     borderopacity="1"
     objecttolerance="10"
     gridtolerance="10"
     guidetolerance="10"
     inkscape:pageopacity="0"
     inkscape:pageshadow="2"
     inkscape:window-width="1920"
     inkscape:window-height="1013"
     id="namedview13"
     showgrid="false"
     inkscape:zoom="2.8533333"
     inkscape:cx="120.5"
     inkscape:cy="77.48"
     inkscape:window-x="0"
     inkscape:window-y="33"
     inkscape:window-maximized="1"
     inkscape:current-layer="Layer_1" />
  <defs
     id="defs4">
  </defs>
  <title
     id="title6">Admin_Icons</title>
  <path
     class="cls-1"
     d="M 210.12,164.98 H 26.59 A 26.6,26.6 0 0 1 0,138.39 V 26.6 A 26.6,26.6 0 0 1 26.59,0 h 183.53 a 26.6,26.6 0 0 1 26.59,26.6 v 111.79 a 26.6,26.6 0 0 1 -26.59,26.59 z"
     id="path8" />
  <path
     class="cls-2"
     d="m 133.87,83.06 29,-31.24 A 11.49,11.49 0 0 0 146.03,36.19 l -27.83,30 -27.83,-30 A 11.498846,11.498846 0 0 0 73.5,51.82 l 29,31.24 -29,31.25 a 11.49,11.49 0 0 0 16.84,15.63 l 27.83,-30 27.83,30 a 11.49,11.49 0 0 0 16.84,-15.63 z"
     id="path10" />
</svg>
