<svg id="Layer_1" data-name="Layer 1" xmlns="http://www.w3.org/2000/svg" viewBox="0 0 1024 1024"><title>Web_icons_OUTLINE</title><path d="M509.68,441.8a5,5,0,0,0-9.88,0L467.24,684a39.62,39.62,0,0,0,0,10.09,37.84,37.84,0,1,0,75-10.09Z"/><path d="M975,658.21H941a37.27,37.27,0,0,0,.31-4.75A431.77,431.77,0,0,0,924.17,532.7a37.65,37.65,0,0,0-4.54-14.64q-5.5-16.66-12.29-32.71A431.85,431.85,0,0,0,77.57,653.46a39.2,39.2,0,0,0,.31,4.75H47a37.5,37.5,0,0,0,0,75H356.85a37.5,37.5,0,0,0,0-75H152.26a37.27,37.27,0,0,0,.31-4.75,360.08,360.08,0,0,1,6-65.25L219.4,607.7a37.5,37.5,0,1,0,22.87-71.42l-62.39-20,.72-1.74a357.19,357.19,0,0,1,61.23-97.19l52.53,52.53a37.5,37.5,0,1,0,53-53L297.13,366.6c4.2-3.11,8.47-6.15,12.81-9.08a353.94,353.94,0,0,1,162-59v64.61a37.5,37.5,0,0,0,75,0V298.55a354.64,354.64,0,0,1,164.42,60.63l-57.68,57.69a37.5,37.5,0,1,0,53,53l61.82-61.82a356.8,356.8,0,0,1,68.93,104.61l-61.17,19.59a37.5,37.5,0,1,0,22.87,71.42l60.45-19.35a358.81,358.81,0,0,1,6.68,69.11,37.27,37.27,0,0,0,.32,4.75H665.14a37.5,37.5,0,0,0,0,75H975a37.5,37.5,0,0,0,0-75Z"/></svg>