<svg id="Layer_1" data-name="Layer 1" xmlns="http://www.w3.org/2000/svg" viewBox="0 0 1024 1024"><title>Web_icons_OUTLINE</title><path d="M47,317.32H973.22a37.5,37.5,0,0,0,0-75H47a37.5,37.5,0,0,0,0,75"/><path d="M47,551.46H973.22a37.5,37.5,0,0,0,0-75H47a37.5,37.5,0,1,0,0,75"/><path d="M47,806.37H973.22a37.5,37.5,0,0,0,0-75H47a37.5,37.5,0,0,0,0,75"/><path d="M47,317.32H973.22a37.5,37.5,0,0,0,0-75H47a37.5,37.5,0,0,0,0,75"/><path d="M47,551.46H973.22a37.5,37.5,0,0,0,0-75H47a37.5,37.5,0,1,0,0,75"/><path d="M47,806.37H973.22a37.5,37.5,0,0,0,0-75H47a37.5,37.5,0,0,0,0,75"/></svg>