<?xml version="1.0" encoding="UTF-8" standalone="no"?><svg xmlns="http://www.w3.org/2000/svg" id="Layer_1" data-name="Layer 1" viewBox="0 0 206.26031 174.53691" version="1.1"><defs id="defs4"><style id="style2">.cls-1{}</style></defs><title id="title6">WebIcons</title><path class="cls-1" d="m 60.010281,19 a 41.33,41.33 0 0 1 16.83,3.56 40.5,40.5 0 0 1 12.66,8.82 l 13.609999,14 13.62,-14 a 40.5,40.5 0 0 1 12.66,-8.82 41.49,41.49 0 0 1 31,-1.06 40.68,40.68 0 0 1 10,5.37 l 1.49,1.09 1.24,1.08 a 40.33,40.33 0 0 1 10.52,14.23 41.49,41.49 0 0 1 1.06,31 40.52,40.52 0 0 1 -7.36,12.57 l -69.28,66.68 a 7.27,7.27 0 0 1 -2.33,1.5 7.19,7.19 0 0 1 -5.32,0 7.4,7.4 0 0 1 -2.339999,-1.51 l -69.23,-66.67 a 40.71,40.71 0 0 1 -7.36,-12.57 41.49,41.49 0 0 1 1.06,-31 40.84,40.84 0 0 1 23.3,-21.77 41.09,41.09 0 0 1 14.16,-2.5 M 146.24028,2.6877439e-7 A 60.55,60.55 0 0 0 121.71028,5.2000003 59.71,59.71 0 0 0 103.13028,18.13 59.71,59.71 0 0 0 84.550281,5.2000003 a 60.49,60.49 0 0 0 -45.21,-1.55 59.89,59.89 0 0 0 -34.15,31.9199997 60.49,60.49 0 0 0 -1.54,45.21 59.61,59.61 0 0 0 11,18.72 l 0.37,0.44 69.94,67.26 a 26.18,26.18 0 0 0 36.349999,0 l 69.88,-67.26 0.38,-0.44 a 60,60 0 0 0 14.69,-39.39 60.55,60.55 0 0 0 -5.19,-24.54 59.55,59.55 0 0 0 -15.43,-20.87 l -3.64,-3.17 h -0.35 a 59.57,59.57 0 0 0 -14.73,-7.8799997 60.32,60.32 0 0 0 -20.67,-3.65000003122561 z" id="path8"/></svg>