<svg id="Layer_1" data-name="Layer 1" xmlns="http://www.w3.org/2000/svg" viewBox="0 0 1024 1024"><title>Web_icons_OUTLINE</title><path d="M304.43,202.44A212.09,212.09,0,0,1,391,220.72a208.4,208.4,0,0,1,65.16,45.37l53.75,55.2,53.74-55.2a208.52,208.52,0,0,1,65.17-45.38,213.62,213.62,0,0,1,159.33-5.45,209,209,0,0,1,51.65,27.64l7.65,5.6,6.4,5.56A207.85,207.85,0,0,1,908,327.31a213.49,213.49,0,0,1,5.45,159.33A208.86,208.86,0,0,1,875,551.88l-330.6,318.2a49.81,49.81,0,0,1-69.14,0L144.72,551.88a208.63,208.63,0,0,1-38.4-65.25,213.56,213.56,0,0,1,5.46-159.33,210.26,210.26,0,0,1,119.86-112,211.59,211.59,0,0,1,72.79-12.82m410.88-75a288.33,288.33,0,0,0-116.92,24.71,284.08,284.08,0,0,0-88.51,61.63,284.47,284.47,0,0,0-88.52-61.63,288.54,288.54,0,0,0-215.43-7.34A285.24,285.24,0,0,0,43.21,296.91a288.54,288.54,0,0,0-7.34,215.43A284.34,284.34,0,0,0,88.5,601.53l1.8,2.07,333,320.5a124.84,124.84,0,0,0,173.19,0l333-320.5,1.8-2.06a285.41,285.41,0,0,0,70-187.71,288.7,288.7,0,0,0-24.71-116.92A284.49,284.49,0,0,0,903,197.45l-17.38-15.11H884a284.17,284.17,0,0,0-70.19-37.53A287.23,287.23,0,0,0,715.31,127.44Z"/><path d="M304.43,202.44A212.09,212.09,0,0,1,391,220.72a208.4,208.4,0,0,1,65.16,45.37l53.75,55.2,53.74-55.2a208.52,208.52,0,0,1,65.17-45.38,213.62,213.62,0,0,1,159.33-5.45,209,209,0,0,1,51.65,27.64l7.65,5.6,6.4,5.56A207.85,207.85,0,0,1,908,327.31a213.49,213.49,0,0,1,5.45,159.33A208.86,208.86,0,0,1,875,551.88l-330.6,318.2a49.81,49.81,0,0,1-69.14,0L144.72,551.88a208.63,208.63,0,0,1-38.4-65.25,213.56,213.56,0,0,1,5.46-159.33,210.26,210.26,0,0,1,119.86-112,211.59,211.59,0,0,1,72.79-12.82m410.88-75a288.33,288.33,0,0,0-116.92,24.71,284.08,284.08,0,0,0-88.51,61.63,284.47,284.47,0,0,0-88.52-61.63,288.54,288.54,0,0,0-215.43-7.34A285.24,285.24,0,0,0,43.21,296.91a288.54,288.54,0,0,0-7.34,215.43A284.34,284.34,0,0,0,88.5,601.53l1.8,2.07,333,320.5a124.84,124.84,0,0,0,173.19,0l333-320.5,1.8-2.06a285.41,285.41,0,0,0,70-187.71,288.7,288.7,0,0,0-24.71-116.92A284.49,284.49,0,0,0,903,197.45l-17.38-15.11H884a284.17,284.17,0,0,0-70.19-37.53A287.23,287.23,0,0,0,715.31,127.44Z"/></svg>