<?xml version="1.0" encoding="UTF-8" standalone="no"?><svg xmlns="http://www.w3.org/2000/svg" id="Layer_1" data-name="Layer 1" fill="#fe4c00" viewBox="0 0 206.23557 174.51555" version="1.1"><title id="title2">WebIcons</title><path class="cls-1" d="m 103.13028,165.03028 a 16.57,16.57 0 0 1 -11.579999,-4.66 l -69.59,-66.999997 -0.1,-0.11 a 50.62,50.62 0 0 1 74.46,-68.5 l 6.809999,7 6.81,-7 a 49.72,49.72 0 0 1 15.62,-10.88 51,51 0 0 1 38.1,-1.32 50.15,50.15 0 0 1 12.4,6.64 l 1.81,1.36 1.54,1.33 a 50.65,50.65 0 0 1 5,71.41 l -0.1,0.11 -69.58,66.999997 a 16.64,16.64 0 0 1 -11.58,4.67 z" id="path4"/><path class="cls-1" d="m 60.060281,19.010283 a 41.28,41.28 0 0 1 16.79,3.55 40.47,40.47 0 0 1 12.66,8.81 l 13.619999,14 13.61,-14 a 40.4,40.4 0 0 1 12.67,-8.81 41.56,41.56 0 0 1 31,-1.07 40.65,40.65 0 0 1 10,5.38 l 1.5,1.09 1.24,1.07 a 40.46,40.46 0 0 1 10.52,14.24 41.49,41.49 0 0 1 1.06,31 40.83,40.83 0 0 1 -7.36,12.57 l -69.25,66.719997 a 7.18,7.18 0 0 1 -5,2 7.09,7.09 0 0 1 -4.999999,-2 l -69.26,-66.709997 a 40.86,40.86 0 0 1 -7.37,-12.57 41.56,41.56 0 0 1 1.07,-31 40.91,40.91 0 0 1 23.29,-21.78 41.27,41.27 0 0 1 14.21,-2.49 M 146.29028,0.01028301 a 60.47,60.47 0 0 0 -24.53,5.18999999 59.54,59.54 0 0 0 -18.58,12.93 59.54,59.54 0 0 0 -18.579999,-12.93 60.49,60.49 0 0 0 -45.26,-1.54 59.8,59.8 0 0 0 -34.15,31.9 60.49,60.49 0 0 0 -1.54,45.21 59.77,59.77 0 0 0 11,18.72 l 0.38,0.43 69.88,67.269997 a 26.21,26.21 0 0 0 36.349999,0 l 69.88,-67.259997 0.38,-0.44 a 59.61,59.61 0 0 0 11.05,-18.72 60.21,60.21 0 0 0 -17,-66.09 l -3.58,-3.12 h -0.34 a 59.53,59.53 0 0 0 -14.73,-7.87 60.14,60.14 0 0 0 -20.68,-3.64999999 z" id="path6"/></svg>