<svg xmlns="http://www.w3.org/2000/svg" id="Layer_1" data-name="Layer 1" viewBox="0 0 75 75" version="1.1"><defs id="defs4"><style id="style2">.cls-1{fill:#ff4900}</style></defs><path class="cls-1" d="M40.13 51.64h-8.45v7.18h8.45zm-.06-4.71a10.46 10.46 0 0 1 .55-3.75 6.89 6.89 0 0 1 2.3-2.72 19 19 0 0 0 5.36-5.2 11.63 11.63 0 0 0 2.17-6.75 11.25 11.25 0 0 0-3.66-8.86q-3.68-3.27-10.1-3.27a15.23 15.23 0 0 0-9.7 2.93q-3.72 2.94-3.64 8.45l.06.18h8.16a4.68 4.68 0 0 1 1.51-3.71A5.39 5.39 0 0 1 36.66 23a5.17 5.17 0 0 1 4 1.5 5.81 5.81 0 0 1 1.39 4.14 7.93 7.93 0 0 1-1.22 4.31 15.32 15.32 0 0 1-3.28 3.55 19.48 19.48 0 0 0-4.64 4.5c-.78 1.24-1.18 3.21-1.2 5.89z" id="path8"/><path class="cls-1" d="M72.17 37.5h-2.83A31.82 31.82 0 1 1 60.02 15a31.78 31.78 0 0 1 9.32 22.5H75A37.5 37.5 0 1 0 37.5 75 37.5 37.5 0 0 0 75 37.5z" id="path10"/></svg>