<svg id="Layer_1" data-name="Layer 1" xmlns="http://www.w3.org/2000/svg" viewBox="0 0 1024 1024"><title>Web_icons_OUTLINE</title><path d="M981.83,316.08A513.11,513.11,0,1,0,1022,515,512.74,512.74,0,0,0,981.83,316.08ZM912.75,684.7A438,438,0,1,1,947,515,437.8,437.8,0,0,1,912.75,684.7Z"/><path d="M693.41,393a177.42,177.42,0,0,0-14.3-68.66A179.79,179.79,0,0,0,568.88,223.94a177.52,177.52,0,0,0-52.41-8.43h-1.8a178.85,178.85,0,0,0-172.1,130.29,37.5,37.5,0,1,0,72.2,20.3,103.07,103.07,0,0,1,14.08-30.17,104.32,104.32,0,0,1,36.58-33,102.68,102.68,0,0,1,23.38-9.16,103.92,103.92,0,0,1,25.86-3.24h1.06a102.37,102.37,0,0,1,39.66,8.37,105.13,105.13,0,0,1,45.24,37.5,103.68,103.68,0,0,1,13,26.81,102.3,102.3,0,0,1,4.77,30.3c0,.26,0,.51,0,.76A103.61,103.61,0,0,1,514.67,498c-3,0-6-.13-8.9-.37-2.09-.18-4.18-.27-6.25-.27a73.63,73.63,0,0,0-28.95,5.93,74.59,74.59,0,0,0-45.17,68.59v77.28a37.5,37.5,0,0,0,75,0V572.43c4.71.37,9.47.57,14.27.57A178.63,178.63,0,0,0,693.42,394.25c0-.42,0-.85,0-1.27Z"/><circle cx="470.63" cy="786.97" r="45.03"/></svg>