<svg id="Layer_1" data-name="Layer 1" xmlns="http://www.w3.org/2000/svg" viewBox="0 0 1024 1024"><title>Web_icons_OUTLINE</title><path d="M1002.3,506.93,872.87,388.64c0-.42,0-.84,0-1.26V156.69a37.49,37.49,0,0,0-37.5-37.5H678a37.49,37.49,0,0,0-37.5,37.5v19.6l-102-93.24a37.41,37.41,0,0,0-50.59,0L24.09,506.93a37.5,37.5,0,1,0,50.6,55.36L513.2,161.54,951.7,562.29a37.5,37.5,0,0,0,50.6-55.36ZM715.51,194.19H797.9V320.13l-82.39-75.3Z"/><path d="M925.8,872.77H862.51V531.67a37.5,37.5,0,0,0-75,0v341.1H648.31V602.23a37.49,37.49,0,0,0-37.5-37.5H415.31a37.49,37.49,0,0,0-37.5,37.5V872.77h-133V531.67a37.5,37.5,0,0,0-75,0v341.1H103.56a37.5,37.5,0,1,0,0,75H925.8a37.5,37.5,0,0,0,0-75Zm-473-233h120.5v233H452.81Z"/></svg>