<svg id="Layer_1" data-name="Layer 1" xmlns="http://www.w3.org/2000/svg" viewBox="0 0 1024 1024"><title>Web_icons_OUTLINE</title><path d="M570.06,98a280.94,280.94,0,0,0-9.47,28.92,252.09,252.09,0,0,0-8.72,64.83v.08a242.64,242.64,0,0,0,17.85,90.76,275.17,275.17,0,0,0,35.22,62.07h0a155.91,155.91,0,0,0,47.35,41.78l.32.18a330.91,330.91,0,0,1,123.4,122c28.26,48.85,43.21,103.49,43.23,158,0,41.24-8.44,80.43-25.11,116.5a264.28,264.28,0,0,1-47.59,70.34,286.23,286.23,0,0,1-65.77,51.7c-48.7,28-105.18,42.78-163.3,42.81a328.82,328.82,0,0,1-87.42-11.73,306.79,306.79,0,0,1-81.67-35.85c-44.91-28.21-82-68.55-107.39-116.67A331.71,331.71,0,0,1,233.86,490a214.06,214.06,0,0,0,17.23,66.81c11.71,26.59,29.29,50.12,49.51,66.27A128.39,128.39,0,0,0,347,647.19l.23.06a114.67,114.67,0,0,0,30.23,4h.18a120.92,120.92,0,0,0,30.68-4l.16,0a145.65,145.65,0,0,0,31.37-12.43l1.1-.6a95.73,95.73,0,0,0,23.62-18c.51-.54,1-1.09,1.52-1.65A85,85,0,0,0,481,591.55c.15-.33.29-.66.43-1a98.66,98.66,0,0,0,5.74-18.45A128,128,0,0,0,489.71,546c.07-21.42-4.76-43.69-8.84-58.63a496,496,0,0,0-20.75-59.3A263.15,263.15,0,0,1,440,326.92,259.56,259.56,0,0,1,457,234a252.33,252.33,0,0,1,50.29-81.35A388.83,388.83,0,0,1,570.06,98M261.28,442h0M602.18,1a61.1,61.1,0,0,0-26.82,6.2c-2,1-18.18,9-41.16,24.45a467.69,467.69,0,0,0-82.05,70.22A328.32,328.32,0,0,0,387,207.3a335.6,335.6,0,0,0-22,119.62,339.47,339.47,0,0,0,25.83,129.82c7.28,17.57,13.51,34.86,17.69,50.35s6.24,29.13,6.2,38.75a53.56,53.56,0,0,1-1,10.87,24.28,24.28,0,0,1-1.35,4.49,11.23,11.23,0,0,1-2.12,3.35,21.12,21.12,0,0,1-5.64,4.06h0a69.77,69.77,0,0,1-15.13,6.08,46.92,46.92,0,0,1-11.92,1.6,40.35,40.35,0,0,1-10.76-1.44,53.69,53.69,0,0,1-19.42-10.36c-10.1-8.06-20.37-21.29-27.7-38A141,141,0,0,1,308,470a139.33,139.33,0,0,1,2.23-24.88,61.24,61.24,0,0,0-110.76-45.58,407,407,0,0,0-24.78,419.13c30.49,57.88,75.74,108.72,133.84,145.22a381.93,381.93,0,0,0,101.62,44.63A403.63,403.63,0,0,0,517.47,1023c70.33,0,140-17.89,200.72-52.81a361.1,361.1,0,0,0,83-65.3,339.33,339.33,0,0,0,61.06-90.28,352.06,352.06,0,0,0,32-148c0-67.83-18.52-135.41-53.3-195.54a405.56,405.56,0,0,0-151.81-150h0a80,80,0,0,1-24.32-21.63,199.09,199.09,0,0,1-25.51-44.87,167,167,0,0,1-12.43-62.81A175.08,175.08,0,0,1,633,146.31c4.42-16.48,11.51-34.45,22.52-54.07A61.26,61.26,0,0,0,602.18,1Z"/><path d="M570.06,98a280.94,280.94,0,0,0-9.47,28.92,252.09,252.09,0,0,0-8.72,64.83v.08a242.64,242.64,0,0,0,17.85,90.76,275.17,275.17,0,0,0,35.22,62.07h0a155.91,155.91,0,0,0,47.35,41.78l.32.18a330.91,330.91,0,0,1,123.4,122c28.26,48.85,43.21,103.49,43.23,158,0,41.24-8.44,80.43-25.11,116.5a264.28,264.28,0,0,1-47.59,70.34,286.23,286.23,0,0,1-65.77,51.7c-48.7,28-105.18,42.78-163.3,42.81a328.82,328.82,0,0,1-87.42-11.73,306.79,306.79,0,0,1-81.67-35.85c-44.91-28.21-82-68.55-107.39-116.67A331.71,331.71,0,0,1,233.86,490a214.06,214.06,0,0,0,17.23,66.81c11.71,26.59,29.29,50.12,49.51,66.27A128.39,128.39,0,0,0,347,647.19l.23.06a114.67,114.67,0,0,0,30.23,4h.18a120.92,120.92,0,0,0,30.68-4l.16,0a145.65,145.65,0,0,0,31.37-12.43l1.1-.6a95.73,95.73,0,0,0,23.62-18c.51-.54,1-1.09,1.52-1.65A85,85,0,0,0,481,591.55c.15-.33.29-.66.43-1a98.66,98.66,0,0,0,5.74-18.45A128,128,0,0,0,489.71,546c.07-21.42-4.76-43.69-8.84-58.63a496,496,0,0,0-20.75-59.3A263.15,263.15,0,0,1,440,326.92,259.56,259.56,0,0,1,457,234a252.33,252.33,0,0,1,50.29-81.35A388.83,388.83,0,0,1,570.06,98M261.28,442h0M602.18,1a61.1,61.1,0,0,0-26.82,6.2c-2,1-18.18,9-41.16,24.45a467.69,467.69,0,0,0-82.05,70.22A328.32,328.32,0,0,0,387,207.3a335.6,335.6,0,0,0-22,119.62,339.47,339.47,0,0,0,25.83,129.82c7.28,17.57,13.51,34.86,17.69,50.35s6.24,29.13,6.2,38.75a53.56,53.56,0,0,1-1,10.87,24.28,24.28,0,0,1-1.35,4.49,11.23,11.23,0,0,1-2.12,3.35,21.12,21.12,0,0,1-5.64,4.06h0a69.77,69.77,0,0,1-15.13,6.08,46.92,46.92,0,0,1-11.92,1.6,40.35,40.35,0,0,1-10.76-1.44,53.69,53.69,0,0,1-19.42-10.36c-10.1-8.06-20.37-21.29-27.7-38A141,141,0,0,1,308,470a139.33,139.33,0,0,1,2.23-24.88,61.24,61.24,0,0,0-110.76-45.58,407,407,0,0,0-24.78,419.13c30.49,57.88,75.74,108.72,133.84,145.22a381.93,381.93,0,0,0,101.62,44.63A403.63,403.63,0,0,0,517.47,1023c70.33,0,140-17.89,200.72-52.81a361.1,361.1,0,0,0,83-65.3,339.33,339.33,0,0,0,61.06-90.28,352.06,352.06,0,0,0,32-148c0-67.83-18.52-135.41-53.3-195.54a405.56,405.56,0,0,0-151.81-150h0a80,80,0,0,1-24.32-21.63,199.09,199.09,0,0,1-25.51-44.87,167,167,0,0,1-12.43-62.81A175.08,175.08,0,0,1,633,146.31c4.42-16.48,11.51-34.45,22.52-54.07A61.26,61.26,0,0,0,602.18,1Z"/></svg>