<?xml version="1.0" encoding="UTF-8" standalone="no"?><svg xmlns="http://www.w3.org/2000/svg" id="Layer_1" data-name="Layer 1" viewBox="0 0 175.25267 233.63583" version="1.1"><defs id="defs4"><style id="style2">.cls-1{fill:#fe4c00;}</style></defs><title id="title6">WebIcons</title><path class="cls-1" d="m 97.38214,27.240001 -0.3,1.07 a 59.33,59.33 0 0 0 -2.05,15.32 57.33,57.33 0 0 0 4.21,21.44 65.1,65.1 0 0 0 8.28,14.6 37.35,37.35 0 0 0 11.41,10.06 h 0.08 a 73.81,73.81 0 0 1 27.51,27.199999 70.58,70.58 0 0 1 9.63,35.19 61,61 0 0 1 -5.57,25.85 58.41,58.41 0 0 1 -10.55,15.59 63.54,63.54 0 0 1 -14.59,11.48 74.22,74.22 0 0 1 -55.91,6.93 67.34,67.34 0 0 1 -42.08,-33.94 74.15,74.15 0 0 1 -5.27,-55.86 q 0.56,-1.83 1.2,-3.63 a 50,50 0 0 0 3,9.21 42.2,42.2 0 0 0 11.85,15.85 31.24,31.24 0 0 0 11.29,5.86 h 0.06 a 28.5,28.5 0 0 0 7.44,1 29.78,29.78 0 0 0 7.52,-1 35,35 0 0 0 7.57,-3 h 0.09 a 23.72,23.72 0 0 0 6,-4.55 l 0.39,-0.42 a 21.76,21.76 0 0 0 3.71,-5.76 l 0.1,-0.25 a 24.23,24.23 0 0 0 1.53,-4.55 30.79,30.79 0 0 0 0.63,-6.37 54.55,54.55 0 0 0 -2.08,-13.88 114.73,114.73 0 0 0 -4.86,-13.749999 58.39,58.39 0 0 1 -4.46,-22.42 57.58,57.58 0 0 1 3.77,-20.58 55.83,55.83 0 0 1 11.13,-18 83.88,83.88 0 0 1 9.32,-8.69 m -65.4,74.619999 v 0 M 108.38214,1.2375884e-6 a 14.05,14.05 0 0 0 -6.13,1.4099999624116 85.29,85.29 0 0 0 -9.41,5.59 106.86,106.86 0 0 0 -18.75,16.0599998 74.92,74.92 0 0 0 -14.91,24.1 76.58,76.58 0 0 0 -5,27.34 77.74,77.74 0 0 0 5.9,29.679999 97.15,97.15 0 0 1 4.05,11.51 35.5,35.5 0 0 1 1.41,8.86 12.21,12.21 0 0 1 -0.22,2.49 5.27,5.27 0 0 1 -0.31,1 2.54,2.54 0 0 1 -0.48,0.77 4.9,4.9 0 0 1 -1.29,0.93 v 0 a 16.39,16.39 0 0 1 -3.46,1.39 10.86,10.86 0 0 1 -2.73,0.36 9.11,9.11 0 0 1 -2.45,-0.33 12.13,12.13 0 0 1 -4.44,-2.36 23.28,23.28 0 0 1 -6.34,-8.68 32.26,32.26 0 0 1 -2.68,-12.92 31.08,31.08 0 0 1 0.51,-5.68 14,14 0 0 0 -25.32,-10.429999 93,93 0 0 0 -5.69,95.839999 86.26,86.26 0 0 0 53.83,43.4 93.14,93.14 0 0 0 70.46,-8.77 82.44,82.44 0 0 0 19,-14.93 77.27,77.27 0 0 0 14,-20.64 80.44,80.44 0 0 0 7.32,-33.82 89.48,89.48 0 0 0 -12.32,-44.7 92.74,92.74 0 0 0 -34.7,-34.289999 v 0 a 18.28,18.28 0 0 1 -5.56,-4.94 45.18,45.18 0 0 1 -5.83,-10.26 38.13,38.13 0 0 1 -2.84,-14.36 39.74,39.74 0 0 1 1.41,-10.4 53.28,53.28 0 0 1 5.15,-12.36 14,14 0 0 0 -12.21,-20.8599997624116 z" id="path8"/></svg>