<svg version="1.1" id="Layer_1" xmlns="http://www.w3.org/2000/svg" x="0" y="0" viewBox="0 0 88 113" style="enable-background:new 0 0 88 113" xml:space="preserve"><style>.st2{fill:#ffd505}</style><ellipse cx="43.83" cy="106.63" rx="34.75" ry="6.55" style="fill:#e6e6e6"/><path d="M88 44.21c0-6.09-1.24-11.91-3.47-17.19a44.264 44.264 0 0 0-16-19.43C61.49 2.83 52.98.05 43.84.05c-6.09 0-11.91 1.24-17.19 3.47a44.264 44.264 0 0 0-19.43 16 43.938 43.938 0 0 0-7.54 24.7c0 5.24.96 10.26 2.64 14.93l-.06-.01s7.62 28.55 39.88 46.54c.54.3 1.08.64 1.62.96.54-.32 1.08-.66 1.62-.96C77.32 87.8 85.42 59.14 85.42 59.14h-.03C87.06 54.47 88 49.45 88 44.21z" style="fill:#fe4c00"/><path class="st2" d="M61.99 36.51a19.832 19.832 0 0 1-7.03 10.46c-3.37 2.6-7.57 4.15-12.16 4.15s-8.79-1.55-12.16-4.15c-3.36-2.6-5.87-6.26-7.03-10.47a2.16 2.16 0 0 0-2.66-1.51 2.16 2.16 0 0 0-1.51 2.66c1.41 5.13 4.46 9.58 8.55 12.74 4.09 3.16 9.24 5.05 14.8 5.05 5.57 0 10.71-1.89 14.8-5.05s7.14-7.61 8.55-12.74c.32-1.15-.36-2.34-1.51-2.66-1.14-.31-2.33.37-2.64 1.52zm-24.5-12.82a10 10 0 0 0-3.5-5.22 9.925 9.925 0 0 0-6.06-2.07c-2.27 0-4.39.77-6.06 2.07a9.921 9.921 0 0 0-3.5 5.22 2.164 2.164 0 0 0 4.17 1.15 5.556 5.556 0 0 1 1.98-2.94c.95-.73 2.12-1.16 3.42-1.17 1.29 0 2.47.43 3.42 1.17.95.73 1.65 1.76 1.98 2.94A2.16 2.16 0 0 0 36 26.35a2.168 2.168 0 0 0 1.49-2.66zm28.46 0a10 10 0 0 0-3.5-5.22 9.925 9.925 0 0 0-6.06-2.07c-2.27 0-4.39.77-6.06 2.07a9.921 9.921 0 0 0-3.5 5.22A2.164 2.164 0 0 0 51 24.84a5.556 5.556 0 0 1 1.98-2.94c.95-.73 2.12-1.16 3.42-1.17 1.29 0 2.47.43 3.42 1.17.95.73 1.65 1.76 1.98 2.94a2.16 2.16 0 0 0 2.66 1.51 2.168 2.168 0 0 0 1.49-2.66z"/><path class="st2" d="M49.83 51.17c7.03-3.12 9.95-8 10.98-10.25-.11.09-.23.17-.53.47-.37.37-1 .15-1.06-.37-1.02-9.18-10.43-7.37-12.32 1.04l-.02.07c-1.4 3.83-2.37 9.01-6.93 8.99-.27 0-.53-.02-.8-.03 1.82 1.38 5.17 2.53 10.68.08z"/></svg>