<?xml version="1.0" encoding="UTF-8" standalone="no"?><svg xmlns="http://www.w3.org/2000/svg" id="Layer_1" data-name="Layer 1" viewBox="0 0 166.39999 201.03" version="1.1"><defs id="defs4"><style id="style2">.cls-1{fill:#fe4c00;}</style></defs><title id="title6">WebIcons</title><path class="cls-1" d="m 83.2,19 a 64.27,64.27 0 0 1 64.2,64.2 c 0,18.79 -10,41.64 -28.21,64.33 -14.72,18.37 -29.46,29.82 -36,33.58 -6.59,-3.7 -21.31,-15 -35.94,-33.13 C 29.06,125.42 19.04,102.41 19.04,83.2 A 64.27,64.27 0 0 1 83.2,19 m 0,-19 A 83.2,83.2 0 0 0 0,83.2 c 0,58.14 67.58,117.83 83.2,117.83 15.62,0 83.2,-60.82 83.2,-117.83 A 83.2,83.2 0 0 0 83.2,0 Z" id="path8"/><path class="cls-1" d="M 82.69,42.74 A 18.73,18.73 0 1 0 101.41,61.47 18.73,18.73 0 0 0 82.69,42.74 Z" id="path10"/></svg>