<svg id="Layer_1" data-name="Layer 1" xmlns="http://www.w3.org/2000/svg" viewBox="0 0 1024 1024"><title>Web_icons_OUTLINE</title><path d="M888,455.48a37.77,37.77,0,0,0-26.52-11H821V307.13A304.42,304.42,0,0,0,796.44,187,311.32,311.32,0,0,0,602,12.82,313.13,313.13,0,0,0,251.34,134.65,304.55,304.55,0,0,0,198,307.13V444.5H167.5A37.49,37.49,0,0,0,130,482V987.5a37.49,37.49,0,0,0,37.5,37.5h694A37.49,37.49,0,0,0,899,987.5V482A37.77,37.77,0,0,0,888,455.48ZM273,307.13a229.53,229.53,0,0,1,18.5-90.58A236.33,236.33,0,0,1,439,84.51,241,241,0,0,1,601.7,92.37a236.8,236.8,0,0,1,104,84.62A229.6,229.6,0,0,1,746,307.13V444.5H273ZM205,519.5H824V950H205Z"/><path d="M560.43,715.05a79.69,79.69,0,0,0,35.36-68c-.9-41.48-34-75.71-75.45-77.89a79.77,79.77,0,0,0-41.07,150.45L442.05,856a30.09,30.09,0,0,0,29,38h98.77a30.08,30.08,0,0,0,29-38Z"/></svg>