<svg id="Layer_1" data-name="Layer 1" xmlns="http://www.w3.org/2000/svg" viewBox="0 0 1024 1024"><title>Web_icons_OUTLINE</title><path d="M734.5,601.62a37.49,37.49,0,0,0,37.5-37.5V167a37.49,37.49,0,0,0-37.5-37.5H40A37.49,37.49,0,0,0,2.5,167V564.12A37.49,37.49,0,0,0,40,601.62h79L118,787.3a37.5,37.5,0,0,0,67.3,23L344.58,601.62ZM296.22,541.36,193.56,675.82l.59-111.5a37.49,37.49,0,0,0-37.5-37.7H77.5V204.5H697V526.62H326A37.62,37.62,0,0,0,296.22,541.36Z"/><path d="M585,263.31H174.15a37.5,37.5,0,0,0,0,75H585a37.5,37.5,0,0,0,0-75Z"/><path d="M463,389.91H174.15a37.5,37.5,0,0,0,0,75H463a37.5,37.5,0,0,0,0-75Z"/><path d="M1015,268a37.77,37.77,0,0,0-26.52-11h-153a37.5,37.5,0,0,0,0,75H951V676H824.5A37.49,37.49,0,0,0,787,713.5v56l-84.54-81.11a37.29,37.29,0,0,0-26-10.44H410v-2.5a37.5,37.5,0,0,0-75,0v40A37.49,37.49,0,0,0,372.5,753H661.42L798.54,884.56A37.5,37.5,0,0,0,862,857.5V751H988.5a37.49,37.49,0,0,0,37.5-37.5v-419A37.77,37.77,0,0,0,1015,268Z"/></svg>