<?xml version="1.0" encoding="UTF-8" standalone="no"?><svg xmlns="http://www.w3.org/2000/svg" id="Layer_1" data-name="Layer 1" viewBox="0 0 168.50999 150.8409" version="1.1"><defs id="defs4"><style id="style2">.cls-1{fill:#101d23;}.cls-2{fill:#fff;}</style></defs><title id="title6">Admin_Icons</title><path class="cls-1" d="m 149.73,6.6745004e-5 h -131 A 18.73,18.73 0 0 0 0,18.720067 v 79.94 a 18.74,18.74 0 0 0 18.76,18.730003 h 21.52 l -17.64,27.57 a 3.83,3.83 0 0 0 5.18,5.35 l 55.06,-32.92 h 66.85 a 18.74,18.74 0 0 0 18.78,-18.730003 v -79.94 A 18.73,18.73 0 0 0 149.73,6.6745004e-5 Z" id="path8"/><path class="cls-2" d="m 33.3,41.610067 h 107.39 a 3.69,3.69 0 0 0 0,-7.37 H 33.3 a 3.69,3.69 0 0 0 0,7.37" id="path10"/><path class="cls-2" d="m 33.3,62.450067 h 107.39 a 3.69,3.69 0 0 0 0,-7.37 H 33.3 a 3.69,3.69 0 0 0 0,7.37" id="path12"/><path class="cls-2" d="m 33.3,84.890067 h 79.71 a 3.69,3.69 0 1 0 0,-7.37 H 33.3 a 3.69,3.69 0 0 0 0,7.37" id="path14"/></svg>