<?xml version="1.0" encoding="UTF-8" standalone="no"?>
<svg
   xmlns:dc="http://purl.org/dc/elements/1.1/"
   xmlns:cc="http://creativecommons.org/ns#"
   xmlns:rdf="http://www.w3.org/1999/02/22-rdf-syntax-ns#"
   xmlns:svg="http://www.w3.org/2000/svg"
   xmlns="http://www.w3.org/2000/svg"
   xmlns:sodipodi="http://sodipodi.sourceforge.net/DTD/sodipodi-0.dtd"
   xmlns:inkscape="http://www.inkscape.org/namespaces/inkscape"
   id="Layer_1"
   data-name="Layer 1"
   viewBox="0 0 168.50999 150.8409"
   version="1.1"
   sodipodi:docname="message-icon.svg"
   inkscape:version="1.0.2 (e86c870879, 2021-01-15)">
  <metadata
     id="metadata19">
    <rdf:RDF>
      <cc:Work
         rdf:about="">
        <dc:format>image/svg+xml</dc:format>
        <dc:type
           rdf:resource="http://purl.org/dc/dcmitype/StillImage" />
      </cc:Work>
    </rdf:RDF>
  </metadata>
  <sodipodi:namedview
     pagecolor="#ffffff"
     bordercolor="#666666"
     borderopacity="1"
     objecttolerance="10"
     gridtolerance="10"
     guidetolerance="10"
     inkscape:pageopacity="0"
     inkscape:pageshadow="2"
     inkscape:window-width="1920"
     inkscape:window-height="1013"
     id="namedview17"
     showgrid="false"
     inkscape:zoom="2.8533333"
     inkscape:cx="86.51"
     inkscape:cy="62.890067"
     inkscape:window-x="0"
     inkscape:window-y="33"
     inkscape:window-maximized="1"
     inkscape:current-layer="Layer_1" />
  <defs
     id="defs4">
    <style
       id="style2">.cls-1{fill:#101d23;}.cls-2{fill:#fff;}</style>
  </defs>
  <title
     id="title6">Admin_Icons</title>
  <path
     class="cls-1"
     d="m 149.73,6.6745004e-5 h -131 A 18.73,18.73 0 0 0 0,18.720067 v 79.94 a 18.74,18.74 0 0 0 18.76,18.730003 h 21.52 l -17.64,27.57 a 3.83,3.83 0 0 0 5.18,5.35 l 55.06,-32.92 h 66.85 a 18.74,18.74 0 0 0 18.78,-18.730003 v -79.94 A 18.73,18.73 0 0 0 149.73,6.6745004e-5 Z"
     id="path8" />
  <path
     class="cls-2"
     d="m 33.3,41.610067 h 107.39 a 3.69,3.69 0 0 0 0,-7.37 H 33.3 a 3.69,3.69 0 0 0 0,7.37"
     id="path10" />
  <path
     class="cls-2"
     d="m 33.3,62.450067 h 107.39 a 3.69,3.69 0 0 0 0,-7.37 H 33.3 a 3.69,3.69 0 0 0 0,7.37"
     id="path12" />
  <path
     class="cls-2"
     d="m 33.3,84.890067 h 79.71 a 3.69,3.69 0 1 0 0,-7.37 H 33.3 a 3.69,3.69 0 0 0 0,7.37"
     id="path14" />
</svg>
