<svg id="Layer_1" data-name="Layer 1" xmlns="http://www.w3.org/2000/svg" viewBox="0 0 100 100"><defs><style>.cls-1{fill:#fff;}</style></defs><title>onlinebooking</title><path class="cls-1" d="M53,77.3l1.35.74L73.94,42.12a5.35,5.35,0,0,0-.41-5.79,5.4,5.4,0,0,0-2.31-1.79,5.33,5.33,0,0,0-3.13-.26l-40,8.52a4,4,0,0,0-1.59.72,4.07,4.07,0,0,0-1.59,2.63,4,4,0,0,0,.76,3.09l5.83,7.82a1,1,0,0,1,.19.75,1,1,0,0,1-.4.66L11.7,73.07a4.1,4.1,0,0,0-.83,5.73l4.19,5.62A4.12,4.12,0,0,0,17.75,86a4.07,4.07,0,0,0,3-.77l19.58-14.6a1,1,0,0,1,.74-.19,1,1,0,0,1,.67.4l5.72,7.67A4.08,4.08,0,0,0,54.36,78L53,77.3l-1.35-.73a1,1,0,0,1-1.69.12L44.25,69a4.1,4.1,0,0,0-5.73-.83L18.94,82.78a1,1,0,0,1-.74.19,1,1,0,0,1-.67-.39L13.34,77a1,1,0,0,1-.19-.74,1,1,0,0,1,.39-.67l19.59-14.6A4.09,4.09,0,0,0,34,55.22L28.13,47.4a1,1,0,0,1-.19-.76,1,1,0,0,1,.39-.65,1.08,1.08,0,0,1,.39-.18l40-8.52a2.29,2.29,0,0,1,1.34.11,2.25,2.25,0,0,1,1,.77,2.23,2.23,0,0,1,.17,2.48L51.66,76.57Z"/><path class="cls-1" d="M90.07,23.66l-9.78,6.79a1.61,1.61,0,1,0,1.83,2.64l9.79-6.79a1.61,1.61,0,1,0-1.84-2.64"/><path class="cls-1" d="M95.89,42.29,84.28,39.58a1.61,1.61,0,1,0-.73,3.13l11.61,2.71a1.61,1.61,0,1,0,.73-3.13"/><path class="cls-1" d="M73.37,14.28,71.28,26a1.61,1.61,0,1,0,3.17.56l2.09-11.73a1.61,1.61,0,0,0-3.17-.56"/></svg>