<?xml version="1.0" encoding="UTF-8" standalone="no"?><svg xmlns="http://www.w3.org/2000/svg" id="Layer_1" data-name="Layer 1" viewBox="0 0 87.172287 73.061485" version="1.1"><defs id="defs4"><style id="style2">.cls-1{fill:#fff;}</style></defs><title id="title6">onlinebooking</title><path class="cls-1" d="m 42.941619,64.32218 1.35,0.74 19.59,-35.92 a 5.35,5.35 0 0 0 -0.41,-5.79 5.4,5.4 0 0 0 -2.31,-1.79 5.33,5.33 0 0 0 -3.13,-0.26 l -40,8.52 a 4,4 0 0 0 -1.59,0.72 4.07,4.07 0 0 0 -1.59,2.63 4,4 0 0 0 0.76,3.09 l 5.83,7.82 a 1,1 0 0 1 0.19,0.75 1,1 0 0 1 -0.4,0.66 l -19.5899996,14.6 a 4.1,4.1 0 0 0 -0.82999998,5.73 l 4.18999998,5.62 a 4.12,4.12 0 0 0 2.69,1.58 4.07,4.07 0 0 0 2.9999996,-0.77 l 19.58,-14.6 a 1,1 0 0 1 0.74,-0.19 1,1 0 0 1 0.67,0.4 l 5.72,7.67 a 4.08,4.08 0 0 0 6.9,-0.51 l -1.36,-0.7 -1.35,-0.73 a 1,1 0 0 1 -1.69,0.12 l -5.71,-7.69 a 4.1,4.1 0 0 0 -5.73,-0.83 l -19.5799996,14.61 a 1,1 0 0 1 -0.74,0.19 1,1 0 0 1 -0.67,-0.39 l -4.19,-5.58 a 1,1 0 0 1 -0.19,-0.74 1,1 0 0 1 0.39,-0.67 l 19.5899996,-14.6 a 4.09,4.09 0 0 0 0.87,-5.77 l -5.87,-7.82 a 1,1 0 0 1 -0.19,-0.76 1,1 0 0 1 0.39,-0.65 1.08,1.08 0 0 1 0.39,-0.18 l 40,-8.52 a 2.29,2.29 0 0 1 1.34,0.11 2.25,2.25 0 0 1 1,0.77 2.23,2.23 0 0 1 0.17,2.48 l -19.57,35.92 z" id="path8"/><path class="cls-1" d="m 80.011619,10.68218 -9.78,6.79 a 1.61,1.61 0 1 0 1.83,2.64 l 9.79,-6.79 a 1.61,1.61 0 1 0 -1.84,-2.64" id="path10"/><path class="cls-1" d="m 85.831619,29.31218 -11.61,-2.71 a 1.61,1.61 0 1 0 -0.73,3.13 l 11.61,2.71 a 1.61,1.61 0 1 0 0.73,-3.13" id="path12"/><path class="cls-1" d="m 63.311619,1.3021799 -2.09,11.7200001 a 1.61,1.61 0 1 0 3.17,0.56 l 2.09,-11.7300001 a 1.61,1.61 0 0 0 -3.17,-0.56" id="path14"/></svg>