<svg id="Layer_1" data-name="Layer 1" xmlns="http://www.w3.org/2000/svg" viewBox="0 0 1024 1024"><title>Web_icons_OUTLINE</title><path d="M958,721.58a37.74,37.74,0,0,0-12.26-26L692.53,465.77,803,385.17A37.5,37.5,0,0,0,794,319.71L116.81,69a37.5,37.5,0,0,0-46.72,51.62l316.52,648a37.49,37.49,0,0,0,66.06,2.48l68.78-117.54L775,883.72a37.5,37.5,0,0,0,53-2.56L948.32,748.6A37.81,37.81,0,0,0,958,721.58ZM797.66,803l-260-236a37.5,37.5,0,0,0-57.57,8.83l-56.78,97-244.7-501,523.78,194L611.14,432.3a37.52,37.52,0,0,0-3.1,58.07L867.58,726Z"/></svg>