<svg id="Layer_1" data-name="Layer 1" xmlns="http://www.w3.org/2000/svg" viewBox="0 0 1024 1024"><title>Web_icons_OUTLINE</title><path d="M840.84,767.09,738.17,639.15l-.09-.1a91.89,91.89,0,0,0-61.55-33.85l-.64-.07a92.41,92.41,0,0,0-67.41,19.73l-.1.08-42.84,34.38C523.8,627.25,487,591.55,456.14,553a586.28,586.28,0,0,1-76.23-123.95l43.36-34.8.1-.08a91.89,91.89,0,0,0,33.85-61.55c0-.21,0-.42.07-.64a91.91,91.91,0,0,0-19.72-67.41l-.08-.1L334.81,136.57l-.08-.1a91.89,91.89,0,0,0-61.55-33.85l-.62-.07a93.88,93.88,0,0,0-9.77-.51h0a92.65,92.65,0,0,0-57.65,20.24l-.1.08-78.27,62.81A203.5,203.5,0,0,0,69.84,430.91,1440.42,1440.42,0,0,0,248.75,717.58C319.71,806,402.89,887.78,496,960.67A203.85,203.85,0,0,0,749.19,959l77.43-62.15.11-.08a91.89,91.89,0,0,0,33.85-61.55c0-.21,0-.42.07-.63a91.91,91.91,0,0,0-19.73-67.42Zm-54.78,59.67a17.18,17.18,0,0,1-6.38,11.62l-77.44,62.15a128.82,128.82,0,0,1-160,1.08q-133-104.15-235-231A1358.77,1358.77,0,0,1,137.66,398.89a128.75,128.75,0,0,1,36.05-155.23L252,180.85A17.1,17.1,0,0,1,262.78,177a17.64,17.64,0,0,1,1.92.1,17.18,17.18,0,0,1,11.62,6.38L379,311.45a17.33,17.33,0,0,1-2.66,24.35l-52.7,42.29a59.62,59.62,0,0,0-17.24,70.22A658.82,658.82,0,0,0,397.65,600c38,47.34,82.54,89.58,133.07,127a58.73,58.73,0,0,0,35,11.52c.5,0,1,0,1.52,0A59.51,59.51,0,0,0,603,725.39l52.28-42a17.13,17.13,0,0,1,10.82-3.81,17.46,17.46,0,0,1,1.91.1,17.18,17.18,0,0,1,11.62,6.38L782.35,814A17.21,17.21,0,0,1,786.06,826.76Z"/><path d="M762,524.08a37.5,37.5,0,0,0,47.65-23.29A212,212,0,0,0,562.27,225.11a37.5,37.5,0,1,0,16.56,73.15h0A137,137,0,0,1,738.69,476.43,37.52,37.52,0,0,0,762,524.08Z"/><path d="M968.5,295A369,369,0,0,0,541,63.19a37.5,37.5,0,1,0,16.56,73.15,293.76,293.76,0,0,1,342.78,382,37.5,37.5,0,1,0,70.94,24.36A369.76,369.76,0,0,0,968.5,295Z"/></svg>