<svg id="Layer_1" data-name="Layer 1" xmlns="http://www.w3.org/2000/svg" viewBox="0 0 100 100"><defs><style>.cls-1{fill:#fff;}</style></defs><title>Phone</title><path class="cls-1" d="M66,64.36,65,63l-5.57,4.11a2.73,2.73,0,0,1-1.65.53A2.61,2.61,0,0,1,56.18,67a70.52,70.52,0,0,1-12.6-13,65.35,65.35,0,0,1-8.34-15.24,2.7,2.7,0,0,1,.91-3.16l5.62-4.15a5.25,5.25,0,0,0,1.11-7.33L32.82,10.46a5.26,5.26,0,0,0-7.34-1.11l-8.35,6.16a16.75,16.75,0,0,0-5.51,20A143.38,143.38,0,0,0,28.39,65,150.75,150.75,0,0,0,52.22,90.43,16.77,16.77,0,0,0,73,91.15l8.26-6.09a5.28,5.28,0,0,0,2.08-3.44,5.22,5.22,0,0,0-1-3.89L72.35,64.08A5.24,5.24,0,0,0,65,63l1,1.39,1,1.39a1.77,1.77,0,0,1,1.33-.33,1.8,1.8,0,0,1,1.18.71L79.63,79.78A1.75,1.75,0,0,1,80,81.11a1.8,1.8,0,0,1-.71,1.17L71,88.37a13.32,13.32,0,0,1-16.53-.56A147.45,147.45,0,0,1,31.17,63,140.07,140.07,0,0,1,14.8,34.17a13.31,13.31,0,0,1,4.38-15.88l8.35-6.16a1.8,1.8,0,0,1,2.51.38L40.1,26.16a1.79,1.79,0,0,1,.33,1.33,1.76,1.76,0,0,1-.71,1.17L34.1,32.81A6.16,6.16,0,0,0,32,40,68.52,68.52,0,0,0,40.8,56,74.23,74.23,0,0,0,54,69.72a6.06,6.06,0,0,0,3.72,1.34,6.13,6.13,0,0,0,3.76-1.2l5.57-4.11Z"/><path class="cls-1" d="M52.7,28.27A23.39,23.39,0,0,1,71.1,53a1.73,1.73,0,1,0,3.45.19,26.85,26.85,0,0,0-21-28.26,1.73,1.73,0,0,0-.81,3.36Z"/><path class="cls-1" d="M51.05,15.36A37.24,37.24,0,0,1,83.34,57.88a1.72,1.72,0,1,0,3.41.52A40.69,40.69,0,0,0,51.47,11.93a1.73,1.73,0,0,0-.42,3.43Z"/></svg>