<?xml version="1.0" encoding="UTF-8" standalone="no"?><svg xmlns="http://www.w3.org/2000/svg" id="Layer_1" data-name="Layer 1" viewBox="0 0 76.902687 86.079079" version="1.1"><defs id="defs4"><style id="style2">.cls-1{fill:#fff;}</style></defs><title id="title6">Phone</title><path class="cls-1" d="m 55.695489,56.02988 -1,-1.36 -5.57,4.11 a 2.73,2.73 0 0 1 -1.65,0.53 2.61,2.61 0 0 1 -1.6,-0.64 70.52,70.52 0 0 1 -12.6,-13 65.35,65.35 0 0 1 -8.34,-15.24 2.7,2.7 0 0 1 0.91,-3.16 l 5.62,-4.15 a 5.25,5.25 0 0 0 1.11,-7.33 l -10.06,-13.6599996 a 5.26,5.26 0 0 0 -7.34,-1.11 l -8.3499997,6.16 a 16.75,16.75 0 0 0 -5.51,19.9999996 143.38,143.38 0 0 0 16.7699997,29.49 150.75,150.75 0 0 0 23.83,25.43 16.77,16.77 0 0 0 20.78,0.72 l 8.26,-6.09 a 5.28,5.28 0 0 0 2.08,-3.44 5.22,5.22 0 0 0 -1,-3.89 l -9.99,-13.65 a 5.24,5.24 0 0 0 -7.35,-1.08 l 1,1.39 1,1.39 a 1.77,1.77 0 0 1 1.33,-0.33 1.8,1.8 0 0 1 1.18,0.71 l 10.12,13.62 a 1.75,1.75 0 0 1 0.37,1.33 1.8,1.8 0 0 1 -0.71,1.17 l -8.29,6.09 a 13.32,13.32 0 0 1 -16.53,-0.56 147.45,147.45 0 0 1 -23.3,-24.81 140.07,140.07 0 0 1 -16.3699997,-28.83 13.31,13.31 0 0 1 4.38,-15.8799996 l 8.3499997,-6.16 a 1.8,1.8 0 0 1 2.51,0.38 l 10.06,13.6499996 a 1.79,1.79 0 0 1 0.33,1.33 1.76,1.76 0 0 1 -0.71,1.17 l -5.62,4.15 a 6.16,6.16 0 0 0 -2.1,7.19 68.52,68.52 0 0 0 8.8,16 74.23,74.23 0 0 0 13.2,13.72 6.06,6.06 0 0 0 3.72,1.34 6.13,6.13 0 0 0 3.76,-1.2 l 5.57,-4.11 z" id="path8"/><path class="cls-1" d="m 42.395489,19.93988 a 23.39,23.39 0 0 1 18.4,24.73 1.73,1.73 0 1 0 3.45,0.19 26.85,26.85 0 0 0 -21,-28.26 1.73,1.73 0 0 0 -0.81,3.36 z" id="path10"/><path class="cls-1" d="m 40.745489,7.0298804 a 37.24,37.24 0 0 1 32.29,42.5199996 1.7247101,1.7247101 0 1 0 3.41,0.52 40.69,40.69 0 0 0 -35.28,-46.4699996 1.73,1.73 0 0 0 -0.42,3.43 z" id="path12"/></svg>