<svg xmlns="http://www.w3.org/2000/svg" data-name="Layer 1" viewBox="0 0 46.5 58.82"><path d="M41.86 49.51h-25.3l1.82-3.34.23-.48c1.31-3.43 3.24-7.05 3.54-11.65h15.13a4.64 4.64 0 0 0 0-9.28H18.72l-.73-.78a9 9 0 0 1-2.43-6.14v-.86a7.71 7.71 0 0 1 7.69-7.72h6.24A7.76 7.76 0 0 1 37.22 17a4.64 4.64 0 0 0 9.28 0 17 17 0 0 0-17-17h-6.25a17 17 0 0 0-17 17v.86a18.15 18.15 0 0 0 1.39 6.92h-3a4.64 4.64 0 0 0 0 9.28h8.21c-.22 1.79-1.32 4.52-2.74 7.9l-5.45 10a4.64 4.64 0 0 0 4.07 6.86h33.13a4.64 4.64 0 0 0 0-9.28z"/></svg>