<?xml version="1.0" encoding="UTF-8" standalone="no"?><svg xmlns="http://www.w3.org/2000/svg" id="Layer_1" data-name="Layer 1" viewBox="0 0 46.5 58.820001" version="1.1"><title id="title2">pounds</title><path d="m 41.86,49.51 h -25.3 l 1.82,-3.34 0.23,-0.48 c 1.31,-3.43 3.24,-7.05 3.54,-11.65 h 15.13 a 4.64,4.64 0 0 0 0,-9.28 H 18.72 l -0.73,-0.78 a 9,9 0 0 1 -2.43,-6.14 v -0.86 a 7.71,7.71 0 0 1 7.69,-7.72 h 6.24 A 7.76,7.76 0 0 1 37.22,17 4.64,4.64 0 0 0 46.5,17 17,17 0 0 0 29.5,0 H 23.25 A 17,17 0 0 0 6.2499998,17 v 0.86 a 18.15,18.15 0 0 0 1.39,6.92 h -3 a 4.64,4.64 0 0 0 0,9.28 H 12.85 c -0.22,1.79 -1.32,4.52 -2.74,7.9 l -5.4500002,10 a 4.64,4.64 0 0 0 4.07,6.86 H 41.86 a 4.64,4.64 0 0 0 0,-9.28 z" id="path4"/></svg>