<?xml version="1.0" encoding="UTF-8" standalone="no"?><svg xmlns="http://www.w3.org/2000/svg" id="Layer_1" data-name="Layer 1" viewBox="0 0 114.26001 112.93001" version="1.1"><defs id="defs4"><style id="style2">.cls-1{fill:gray;}</style></defs><title id="title6">Admin_Icons</title><path class="cls-1" d="M 94.68,0.88000901 A 3,3 0 0 0 92.55,9.0065539e-6 H 3 A 3,3 0 0 0 0,3.000009 V 109.93001 a 3,3 0 0 0 3,3 h 108.26 a 3,3 0 0 0 3,-3 V 21.720009 a 3,3 0 0 0 -0.88,-2.13 z M 80.51,6.020009 v 32.4 H 26.73 v -32.4 z M 19.38,110.27001 Z m 0,-3.35 V 65.500009 h 71.83 v 41.420001 z m 77.85,0 V 62.490009 a 3,3 0 0 0 -3,-3 H 16.36 a 3,3 0 0 0 -3,3 V 106.92001 H 6.01 V 6.020009 H 20.7 v 35.42 a 3,3 0 0 0 3,3 h 59.81 a 3,3 0 0 0 3,-3 v -35.42 h 4.76 l 16.94,17 v 83.950001 z" id="path8"/><rect class="cls-1" x="57.459999" y="10.700011" width="12.69" height="24.719999" id="rect10"/></svg>