<svg id="Layer_1" data-name="Layer 1" xmlns="http://www.w3.org/2000/svg" viewBox="0 0 300 300"><defs><style>.cls-1{fill:#ffd617}</style></defs><path class="cls-1" d="M151.11 87.62a53.48 53.48 0 0 0-68.21 32.7 8 8 0 0 0 15.1 5.31 37.43 37.43 0 0 1 47.8-22.92 8 8 0 1 0 5.31-15.09z"/><path class="cls-1" d="m252.18 228.69-47.44-44.45c1.48-2.18 2.87-4.43 4.15-6.73A88.52 88.52 0 0 0 131.6 46a89.39 89.39 0 0 0-18.78 2 88.5 88.5 0 1 0 65.82 161.45q3.59-2.26 6.92-4.83l47.44 44.5a14 14 0 0 0 19.15-20.43zm-107.86-35a61.19 61.19 0 0 1-12.87 1.31 60.46 60.46 0 0 1-59.06-47.73A61.17 61.17 0 0 1 71 134.45a60.46 60.46 0 0 1 47.73-59.06A61.17 61.17 0 0 1 131.6 74a60.5 60.5 0 0 1 47.2 98.27c-1 1.29-2.11 2.54-3.24 3.74l-.05.05a59.44 59.44 0 0 1-11.74 9.65 60.28 60.28 0 0 1-19.45 7.95z"/></svg>