<?xml version="1.0" encoding="UTF-8" standalone="no"?><svg xmlns="http://www.w3.org/2000/svg" id="Layer_1" fill="#fe4c00" data-name="Layer 1" viewBox="0 0 192.24849 191.81219" version="1.1"><title id="title2">WebIcons</title><path class="cls-1" d="M 77.75,19 A 58.75,58.75 0 1 1 19.01,77.75 58.82,58.82 0 0 1 77.75,19 m 0,-19 A 77.75,77.75 0 1 0 155.5,77.75 77.75,77.75 0 0 0 77.75,0 Z" id="path4"/><path class="cls-1" d="m 47.63,69.86 a 33.87,33.87 0 0 1 32.21,-23.39 8.5,8.5 0 0 0 0,-17 50.91,50.91 0 0 0 -48.38,35.14 8.5004618,8.5004618 0 1 0 16.17,5.25 z" id="path6"/><path class="cls-1" d="m 118,134.34 58.56,55.18 a 9.5,9.5 0 0 0 13,-13.83 L 131,120.51 a 9.5,9.5 0 1 0 -13,13.83" id="path8"/></svg>