<svg id="Layer_1" data-name="Layer 1" xmlns="http://www.w3.org/2000/svg" viewBox="0 0 1024 1024"><title>Web_icons_OUTLINE</title><path d="M428.54,188.16A236.67,236.67,0,0,0,203.62,351.49,37.5,37.5,0,0,0,275,374.67h0A161.21,161.21,0,0,1,428.54,263.16a37.5,37.5,0,0,0,0-75Z"/><path d="M939.78,884.77l-232.45-220a363.74,363.74,0,0,0,87.54-237.21c0-201.66-163.48-365.14-365.14-365.14S64.59,225.85,64.59,427.51,228.07,792.65,429.73,792.65a363.54,363.54,0,0,0,223.2-76.15L888.22,939.23a37.5,37.5,0,0,0,51.56-54.46Zm-510-167.12a289,289,0,1,1,112.91-22.77A288.22,288.22,0,0,1,429.73,717.65Z"/></svg>