<?xml version="1.0" encoding="UTF-8" standalone="no"?><svg xmlns="http://www.w3.org/2000/svg" id="Layer_1" data-name="Layer 1" viewBox="0 0 213.84966 205.09" version="1.1"><defs id="defs4"><style id="style2">.cls-1{fill:#fe4c00;}</style></defs><title id="title6">Admin_Icons</title><path class="cls-1" d="m 106.91122,20.02 22.44,45.48 a 19,19 0 0 0 14.31,10.39 l 50.19,7.3 -36.32,35.4 a 19,19 0 0 0 -5.46,16.83 l 8.57,50 -44.89,-23.6 a 19,19 0 0 0 -17.679997,0 l -44.89,23.6 8.57,-50 a 19,19 0 0 0 -5.46,-16.81 l -36.32,-35.4 50.19,-7.3 a 19,19 0 0 0 14.3,-10.39 l 22.449997,-45.5 m 0,-20 a 18.28,18.28 0 0 0 -9.279997,2.54 18.22,18.22 0 0 0 -7,7.59 l -0.52,1 -22.68,45.94 -51.86,7.54 a 18,18 0 0 0 -13.2199996,9.07 18.18,18.18 0 0 0 -1,15.82 18.41,18.41 0 0 0 4.13,6.1 l 37.5199996,36.57 -8.87,51.77 v -0.13 a 18.08,18.08 0 0 0 1.25,10.37 18.21,18.21 0 0 0 16.65,10.89 h 0.06 a 18.15,18.15 0 0 0 8.4,-2.1 l 46.379997,-24.38 46.38,24.38 a 18.15,18.15 0 0 0 8.4,2.1 h 0.06 a 18.21,18.21 0 0 0 14.9,-7.78 17.79,17.79 0 0 0 2.39,-4.82 17.94,17.94 0 0 0 0.61,-8.65 v 0 l -8.78,-51.65 37.53,-36.57 v 0 a 18.27,18.27 0 0 0 4.13,-6.09 18.23,18.23 0 0 0 -5,-20.74 17.69,17.69 0 0 0 -4.24,-2.7 18.11,18.11 0 0 0 -4.94,-1.45 l -51.86,-7.54 -23.19,-47 v 0 a 18.16,18.16 0 0 0 -9.3,-8.68 18.12,18.12 0 0 0 -7,-1.42 z" id="path8"/></svg>