<svg id="Layer_1" data-name="Layer 1" xmlns="http://www.w3.org/2000/svg" viewBox="0 0 1024 1024"><title>Web_icons_OUTLINE</title><path d="M657.19,19.16h0M512.88,76a8.77,8.77,0,0,1,3.48.71A8,8,0,0,1,519,78.57l0,0,0,0a9.12,9.12,0,0,1,1.39,2l1.59-.72-1.56.77,106.62,216,17.45,35.35,39,5.67L922,372.46h.06a8.73,8.73,0,0,1,2.33.67h0l0,0a7.93,7.93,0,0,1,1.81,1.14,8.67,8.67,0,0,1,2.54,3.71,8.92,8.92,0,0,1,.52,3,8.13,8.13,0,0,1-.6,3l0,.08,0,.08a8.8,8.8,0,0,1-1.83,2.65l-.4.39-.05,0L754.23,555.16,726,582.68l6.67,38.87L773.37,858.9l0,.1a9.29,9.29,0,0,1,.13,1.56v.06a8,8,0,0,1-.37,2.39v.06a8,8,0,0,1-1,2.1,8.86,8.86,0,0,1-4,3.2A8.3,8.3,0,0,1,765,869h-.25a8.82,8.82,0,0,1-3.54-.92l-.09-.05-.1,0L547.78,755.87l-34.9-18.35L478,755.87,264.73,868l-.09,0-.09.05A8.82,8.82,0,0,1,261,869h-.18a8.48,8.48,0,0,1-4.71-1.42,8.65,8.65,0,0,1-3.27-3.87,8.21,8.21,0,0,1-.62-3v-.11a9.29,9.29,0,0,1,.13-1.56h0l40.73-237.45,6.67-38.87-28.24-27.52L99,387,99,387l-.06-.05a8.8,8.8,0,0,1-1.83-2.65l0-.08,0-.09a7.87,7.87,0,0,1-.6-3,8.92,8.92,0,0,1,1.19-4.51,8.2,8.2,0,0,1,3-3.05l.06,0,.06,0a8.66,8.66,0,0,1,2.88-1h.12l238.41-34.65,39-5.67,17.45-35.35L502.86,85.56l2.39-4.85a8.93,8.93,0,0,1,1.4-2l0,0,0,0a8.06,8.06,0,0,1,1.69-1.37A8.68,8.68,0,0,1,512.88,76m0-75a83.68,83.68,0,0,0-42.67,11.67,82.67,82.67,0,0,0-18.44,14.87,84,84,0,0,0-13.8,20l-2.37,4.81L331.36,263.59,93,298.24A83.47,83.47,0,0,0,46.66,440.71L219.17,608.87l-40.82,238,.1-.57a84.66,84.66,0,0,0-1.22,14.29A83.63,83.63,0,0,0,260.77,944H261a83.7,83.7,0,0,0,38.62-9.63L512.88,822.26l213.23,112.1A83.66,83.66,0,0,0,764.74,944H765a83.47,83.47,0,0,0,83.54-83.43,85,85,0,0,0-1.21-14.25h0L806.58,608.87,979.1,440.71h0a83.46,83.46,0,0,0-46.3-142.46L694.39,263.59l-106.61-216h0a84.21,84.21,0,0,0-13.79-20A83.4,83.4,0,0,0,512.88,1Z"/><path d="M657.19,19.16h0M512.88,76a8.77,8.77,0,0,1,3.48.71A8,8,0,0,1,519,78.57l0,0,0,0a9.12,9.12,0,0,1,1.39,2l1.59-.72-1.56.77,106.62,216,17.45,35.35,39,5.67L922,372.46h.06a8.73,8.73,0,0,1,2.33.67h0l0,0a7.93,7.93,0,0,1,1.81,1.14,8.67,8.67,0,0,1,2.54,3.71,8.92,8.92,0,0,1,.52,3,8.13,8.13,0,0,1-.6,3l0,.08,0,.08a8.8,8.8,0,0,1-1.83,2.65l-.4.39-.05,0L754.23,555.16,726,582.68l6.67,38.87L773.37,858.9l0,.1a9.29,9.29,0,0,1,.13,1.56v.06a8,8,0,0,1-.37,2.39v.06a8,8,0,0,1-1,2.1,8.86,8.86,0,0,1-4,3.2A8.3,8.3,0,0,1,765,869h-.25a8.82,8.82,0,0,1-3.54-.92l-.09-.05-.1,0L547.78,755.87l-34.9-18.35L478,755.87,264.73,868l-.09,0-.09.05A8.82,8.82,0,0,1,261,869h-.18a8.48,8.48,0,0,1-4.71-1.42,8.65,8.65,0,0,1-3.27-3.87,8.21,8.21,0,0,1-.62-3v-.11a9.29,9.29,0,0,1,.13-1.56h0l40.73-237.45,6.67-38.87-28.24-27.52L99,387,99,387l-.06-.05a8.8,8.8,0,0,1-1.83-2.65l0-.08,0-.09a7.87,7.87,0,0,1-.6-3,8.92,8.92,0,0,1,1.19-4.51,8.2,8.2,0,0,1,3-3.05l.06,0,.06,0a8.66,8.66,0,0,1,2.88-1h.12l238.41-34.65,39-5.67,17.45-35.35L502.86,85.56l2.39-4.85a8.93,8.93,0,0,1,1.4-2l0,0,0,0a8.06,8.06,0,0,1,1.69-1.37A8.68,8.68,0,0,1,512.88,76m0-75a83.68,83.68,0,0,0-42.67,11.67,82.67,82.67,0,0,0-18.44,14.87,84,84,0,0,0-13.8,20l-2.37,4.81L331.36,263.59,93,298.24A83.47,83.47,0,0,0,46.66,440.71L219.17,608.87l-40.82,238,.1-.57a84.66,84.66,0,0,0-1.22,14.29A83.63,83.63,0,0,0,260.77,944H261a83.7,83.7,0,0,0,38.62-9.63L512.88,822.26l213.23,112.1A83.66,83.66,0,0,0,764.74,944H765a83.47,83.47,0,0,0,83.54-83.43,85,85,0,0,0-1.21-14.25h0L806.58,608.87,979.1,440.71h0a83.46,83.46,0,0,0-46.3-142.46L694.39,263.59l-106.61-216h0a84.21,84.21,0,0,0-13.79-20A83.4,83.4,0,0,0,512.88,1Z"/></svg>