<svg id="Layer_1" data-name="Layer 1" xmlns="http://www.w3.org/2000/svg" viewBox="0 0 1024 1024"><title>Web_icons_OUTLINE</title><path d="M998.21,446.61a187.89,187.89,0,0,0-140.68-112,346,346,0,0,0-690.69-.38A187.85,187.85,0,0,0,9,519.81v4.13A187.86,187.86,0,0,0,197,712h97.51A37.51,37.51,0,0,0,332,674.47V369.29a37.49,37.49,0,0,0-37.49-37.5H242.25A269.16,269.16,0,0,1,262.4,251,271.19,271.19,0,0,1,771,275.91a269.07,269.07,0,0,1,11.06,55.88H727.48a37.49,37.49,0,0,0-37.5,37.5V674.47a37.51,37.51,0,0,0,37.5,37.5h31.28q-3.85,6.13-8.13,11.82a169.86,169.86,0,0,1-30,30.9,184.75,184.75,0,0,1-57.5,30.75,212,212,0,0,1-40,8.93,45.07,45.07,0,0,0-2-5.7,46.13,46.13,0,0,0-16.68-20.27,45.53,45.53,0,0,0-12.12-5.82,46.19,46.19,0,0,0-13.71-2.09H434.24a46.14,46.14,0,0,0-46.15,46.15v46.71a46.14,46.14,0,0,0,46.15,46.15H578.6a46.08,46.08,0,0,0,43.06-29.56,290.69,290.69,0,0,0,55.07-10.23,268.15,268.15,0,0,0,56.65-23.57,247.82,247.82,0,0,0,70.74-59.06,250.81,250.81,0,0,0,38.85-66,187.85,187.85,0,0,0,170-187.16v-4.13A187.55,187.55,0,0,0,998.21,446.61ZM257,637H197a112.86,112.86,0,0,1-113-113v-4.13a112.85,112.85,0,0,1,113-113h60Zm681-113A112.89,112.89,0,0,1,825,637H765V406.79h60a112.88,112.88,0,0,1,113,113Z"/></svg>